<?xml version="1.0" encoding="utf-8"?>
<!-- Generator: Adobe Illustrator 22.0.0, SVG Export Plug-In . SVG Version: 6.00 Build 0)  -->
<svg version="1.1" id="Layer_1" xmlns="http://www.w3.org/2000/svg" xmlns:xlink="http://www.w3.org/1999/xlink" x="0px" y="0px"
	 viewBox="0 0 1000 750" style="enable-background:new 0 0 1000 750;" xml:space="preserve">
<style type="text/css">
	.st0{fill:#57575C;}
	.st1{fill:#FCC29B;}
	.st2{fill:#FFFFFF;}
	.st3{opacity:0.34;fill:#333333;enable-background:new    ;}
	.st4{fill:none;stroke:#191113;stroke-width:10;stroke-linecap:round;stroke-linejoin:round;stroke-miterlimit:10;}
	.st5{fill:none;stroke:#270E11;stroke-width:6;stroke-linejoin:round;stroke-miterlimit:10;}
	.st6{fill:#9DD7CE;}
	.st7{opacity:0.69;fill:#333333;enable-background:new    ;}
	.st8{fill:#C1BFBF;}
	.st9{fill:none;stroke:#191113;stroke-width:6;stroke-linejoin:round;stroke-miterlimit:10;}
	.st10{fill:#BE2C3F;}
	.st11{fill:none;stroke:#191113;stroke-width:10;stroke-linejoin:round;stroke-miterlimit:10;}
	.st12{opacity:0.53;fill:#333333;enable-background:new    ;}
	.st13{fill:none;stroke:#270E11;stroke-width:4;stroke-linejoin:round;stroke-miterlimit:10;}
	
		.st14{opacity:0.36;fill:none;stroke:#F598AA;stroke-width:4;stroke-linejoin:round;stroke-miterlimit:10;enable-background:new    ;}
	.st15{fill:none;stroke:#191113;stroke-width:8;stroke-linecap:round;stroke-linejoin:round;stroke-miterlimit:10;}
	.st16{fill:#F26653;}
	.st17{fill:#E97F24;}
	.st18{fill:#D44744;}
	.st19{opacity:0.55;fill:#FFFFFF;enable-background:new    ;}
</style>
<rect id="XMLID_81_" class="st0" width="1000" height="750"/>
<rect id="XMLID_78_" x="540.4" y="394.6" class="st1" width="102.9" height="206.4"/>
<rect id="XMLID_96_" x="540.4" y="394.6" class="st2" width="102.9" height="206.4"/>
<rect id="XMLID_2_" x="540.4" y="394.6" class="st3" width="13.6" height="206.4"/>
<rect id="XMLID_26_" x="540.4" y="394.6" class="st4" width="102.9" height="206.4"/>
<g id="XMLID_32_">
	<g id="XMLID_130_">
		<line id="XMLID_131_" class="st5" x1="557.2" y1="556" x2="629.1" y2="556"/>
	</g>
	<g id="XMLID_127_">
		<line id="XMLID_128_" class="st5" x1="557.2" y1="530" x2="629.1" y2="530"/>
	</g>
	<g id="XMLID_124_">
		<line id="XMLID_125_" class="st5" x1="557.2" y1="504" x2="629.1" y2="504"/>
	</g>
	<g id="XMLID_121_">
		<line id="XMLID_122_" class="st5" x1="557.2" y1="478" x2="629.1" y2="478"/>
	</g>
	<g id="XMLID_118_">
		<line id="XMLID_119_" class="st5" x1="557.2" y1="452" x2="629.1" y2="452"/>
	</g>
	<g id="XMLID_115_">
		<line id="XMLID_116_" class="st5" x1="557.2" y1="426" x2="629.1" y2="426"/>
	</g>
</g>
<rect id="XMLID_75_" x="394.6" y="313" class="st6" width="148" height="288"/>
<rect id="XMLID_86_" x="394.6" y="313" class="st7" width="13.4" height="288"/>
<path id="XMLID_69_" class="st8" d="M362.6,152.7h-48v-36c0-6.6,5.4-12,12-12h24c6.6,0,12,5.4,12,12V152.7z"/>
<path id="XMLID_99_" class="st7" d="M339.3,104.7h-12.8c-6.6,0-12,5.4-12,12v36h12.8v-36C327.3,110.1,332.7,104.7,339.3,104.7z"/>
<path id="XMLID_10_" class="st4" d="M362.6,152.7h-48v-36c0-6.6,5.4-12,12-12h24c6.6,0,12,5.4,12,12V152.7z"/>
<line id="XMLID_12_" class="st4" x1="339" y1="105" x2="339" y2="58"/>
<line id="XMLID_126_" class="st4" x1="922" y1="601" x2="945.6" y2="601"/>
<line id="XMLID_139_" class="st4" x1="702.5" y1="601" x2="904.9" y2="601"/>
<line id="XMLID_138_" class="st4" x1="669" y1="601" x2="678" y2="601"/>
<line id="XMLID_120_" class="st4" x1="175.5" y1="601" x2="654.5" y2="601"/>
<line id="XMLID_5_" class="st4" x1="151.7" y1="601" x2="160.1" y2="601"/>
<line id="XMLID_25_" class="st4" x1="65.3" y1="601" x2="135" y2="601"/>
<rect id="XMLID_54_" x="282.6" y="220.1" class="st8" width="112" height="380.9"/>
<rect id="XMLID_74_" x="282.6" y="220.1" class="st7" width="11.4" height="380.9"/>
<rect id="XMLID_1_" x="282.6" y="220.1" class="st4" width="112" height="380.9"/>
<g id="XMLID_6_">
	<g>
		<g>
			<line id="XMLID_258_" class="st9" x1="302" y1="518" x2="375" y2="518"/>
			<line id="XMLID_257_" class="st9" x1="302" y1="530" x2="375" y2="530"/>
		</g>
	</g>
	<g>
		<g>
			<line id="XMLID_252_" class="st9" x1="302" y1="484" x2="375" y2="484"/>
			<line id="XMLID_251_" class="st9" x1="302" y1="496" x2="375" y2="496"/>
		</g>
	</g>
	<g>
		<g>
			<line id="XMLID_246_" class="st9" x1="302" y1="450" x2="375" y2="450"/>
			<line id="XMLID_245_" class="st9" x1="302" y1="462" x2="375" y2="462"/>
		</g>
	</g>
	<g>
		<g>
			<line id="XMLID_240_" class="st9" x1="302" y1="416" x2="375" y2="416"/>
			<line id="XMLID_239_" class="st9" x1="302" y1="428" x2="375" y2="428"/>
		</g>
	</g>
	<g>
		<g>
			<line id="XMLID_234_" class="st9" x1="302" y1="382" x2="375" y2="382"/>
			<line id="XMLID_233_" class="st9" x1="302" y1="394" x2="375" y2="394"/>
		</g>
	</g>
	<g>
		<g>
			<line id="XMLID_228_" class="st9" x1="302" y1="348" x2="375" y2="348"/>
			<line id="XMLID_227_" class="st9" x1="302" y1="360" x2="375" y2="360"/>
		</g>
	</g>
	<g>
		<g>
			<line id="XMLID_222_" class="st9" x1="302" y1="314" x2="375" y2="314"/>
			<line id="XMLID_221_" class="st9" x1="302" y1="326" x2="375" y2="326"/>
		</g>
	</g>
	<g>
		<g>
			<line id="XMLID_216_" class="st9" x1="302" y1="280" x2="375" y2="280"/>
			<line id="XMLID_215_" class="st9" x1="302" y1="292" x2="375" y2="292"/>
		</g>
	</g>
	<g>
		<g>
			<line id="XMLID_210_" class="st9" x1="302" y1="246" x2="375" y2="246"/>
			<line id="XMLID_209_" class="st9" x1="302" y1="258" x2="375" y2="258"/>
		</g>
	</g>
</g>
<path id="XMLID_63_" class="st8" d="M375.6,220.1h-74v-43c0-20.4,16.6-37,37-37l0,0c20.4,0,37,16.6,37,37V220.1z"/>
<path id="XMLID_98_" class="st7" d="M345.1,140.7c-2.1-0.4-4.3-0.6-6.5-0.6l0,0c-20.4,0-37,16.6-37,37v43h13v-43
	C314.6,158.9,327.7,143.8,345.1,140.7z"/>
<path id="XMLID_9_" class="st4" d="M375.6,220.1h-74v-43c0-20.4,16.6-37,37-37l0,0c20.4,0,37,16.6,37,37V220.1z"/>
<rect id="XMLID_11_" x="394.6" y="313" class="st4" width="148" height="288"/>
<rect id="XMLID_92_" x="394.6" y="293" class="st10" width="152.7" height="20"/>
<rect id="XMLID_13_" x="394.6" y="293" class="st4" width="153.4" height="20"/>
<rect id="XMLID_82_" x="314.6" y="549.5" class="st2" width="48" height="51.5"/>
<rect id="XMLID_95_" x="314.6" y="551.5" class="st3" width="48" height="10.5"/>
<rect id="XMLID_106_" x="314.6" y="562" class="st3" width="11.1" height="39"/>
<rect id="XMLID_14_" x="314.6" y="549.5" class="st4" width="48" height="51.5"/>
<g id="XMLID_16_">
	<g id="XMLID_760_">
		<g id="XMLID_774_">
			<g id="XMLID_785_">
				<line id="XMLID_786_" class="st11" x1="518" y1="545" x2="518" y2="560"/>
			</g>
			<g id="XMLID_783_">
				<line id="XMLID_784_" class="st11" x1="498" y1="545" x2="498" y2="560"/>
			</g>
			<g id="XMLID_781_">
				<line id="XMLID_782_" class="st11" x1="478" y1="545" x2="478" y2="560"/>
			</g>
			<g id="XMLID_779_">
				<line id="XMLID_780_" class="st11" x1="458" y1="545" x2="458" y2="560"/>
			</g>
			<g id="XMLID_777_">
				<line id="XMLID_778_" class="st11" x1="438" y1="545" x2="438" y2="560"/>
			</g>
			<g id="XMLID_775_">
				<line id="XMLID_776_" class="st11" x1="418" y1="545" x2="418" y2="560"/>
			</g>
		</g>
	</g>
	<g id="XMLID_720_">
		<g id="XMLID_734_">
			<g id="XMLID_745_">
				<line id="XMLID_746_" class="st11" x1="518" y1="505" x2="518" y2="520"/>
			</g>
			<g id="XMLID_743_">
				<line id="XMLID_744_" class="st11" x1="498" y1="505" x2="498" y2="520"/>
			</g>
			<g id="XMLID_741_">
				<line id="XMLID_742_" class="st11" x1="478" y1="505" x2="478" y2="520"/>
			</g>
			<g id="XMLID_739_">
				<line id="XMLID_740_" class="st11" x1="458" y1="505" x2="458" y2="520"/>
			</g>
			<g id="XMLID_737_">
				<line id="XMLID_738_" class="st11" x1="438" y1="505" x2="438" y2="520"/>
			</g>
			<g id="XMLID_735_">
				<line id="XMLID_736_" class="st11" x1="418" y1="505" x2="418" y2="520"/>
			</g>
		</g>
	</g>
	<g id="XMLID_680_">
		<g id="XMLID_694_">
			<g id="XMLID_705_">
				<line id="XMLID_706_" class="st11" x1="518" y1="465" x2="518" y2="480"/>
			</g>
			<g id="XMLID_703_">
				<line id="XMLID_704_" class="st11" x1="498" y1="465" x2="498" y2="480"/>
			</g>
			<g id="XMLID_701_">
				<line id="XMLID_702_" class="st11" x1="478" y1="465" x2="478" y2="480"/>
			</g>
			<g id="XMLID_699_">
				<line id="XMLID_700_" class="st11" x1="458" y1="465" x2="458" y2="480"/>
			</g>
			<g id="XMLID_697_">
				<line id="XMLID_698_" class="st11" x1="438" y1="465" x2="438" y2="480"/>
			</g>
			<g id="XMLID_695_">
				<line id="XMLID_696_" class="st11" x1="418" y1="465" x2="418" y2="480"/>
			</g>
		</g>
	</g>
	<g id="XMLID_640_">
		<g id="XMLID_654_">
			<g id="XMLID_665_">
				<line id="XMLID_666_" class="st11" x1="518" y1="425" x2="518" y2="440"/>
			</g>
			<g id="XMLID_663_">
				<line id="XMLID_664_" class="st11" x1="498" y1="425" x2="498" y2="440"/>
			</g>
			<g id="XMLID_661_">
				<line id="XMLID_662_" class="st11" x1="478" y1="425" x2="478" y2="440"/>
			</g>
			<g id="XMLID_659_">
				<line id="XMLID_660_" class="st11" x1="458" y1="425" x2="458" y2="440"/>
			</g>
			<g id="XMLID_657_">
				<line id="XMLID_658_" class="st11" x1="438" y1="425" x2="438" y2="440"/>
			</g>
			<g id="XMLID_655_">
				<line id="XMLID_656_" class="st11" x1="418" y1="425" x2="418" y2="440"/>
			</g>
		</g>
	</g>
	<g id="XMLID_600_">
		<g id="XMLID_614_">
			<g id="XMLID_625_">
				<line id="XMLID_626_" class="st11" x1="518" y1="385" x2="518" y2="400"/>
			</g>
			<g id="XMLID_623_">
				<line id="XMLID_624_" class="st11" x1="498" y1="385" x2="498" y2="400"/>
			</g>
			<g id="XMLID_621_">
				<line id="XMLID_622_" class="st11" x1="478" y1="385" x2="478" y2="400"/>
			</g>
			<g id="XMLID_619_">
				<line id="XMLID_620_" class="st11" x1="458" y1="385" x2="458" y2="400"/>
			</g>
			<g id="XMLID_617_">
				<line id="XMLID_618_" class="st11" x1="438" y1="385" x2="438" y2="400"/>
			</g>
			<g id="XMLID_615_">
				<line id="XMLID_616_" class="st11" x1="418" y1="385" x2="418" y2="400"/>
			</g>
		</g>
	</g>
	<g id="XMLID_560_">
		<g id="XMLID_574_">
			<g id="XMLID_585_">
				<line id="XMLID_586_" class="st11" x1="518" y1="345" x2="518" y2="360"/>
			</g>
			<g id="XMLID_583_">
				<line id="XMLID_584_" class="st11" x1="498" y1="345" x2="498" y2="360"/>
			</g>
			<g id="XMLID_581_">
				<line id="XMLID_582_" class="st11" x1="478" y1="345" x2="478" y2="360"/>
			</g>
			<g id="XMLID_579_">
				<line id="XMLID_580_" class="st11" x1="458" y1="345" x2="458" y2="360"/>
			</g>
			<g id="XMLID_577_">
				<line id="XMLID_578_" class="st11" x1="438" y1="345" x2="438" y2="360"/>
			</g>
			<g id="XMLID_575_">
				<line id="XMLID_576_" class="st11" x1="418" y1="345" x2="418" y2="360"/>
			</g>
		</g>
	</g>
</g>
<rect id="XMLID_76_" x="437.5" y="543.3" class="st1" width="61.5" height="57.7"/>
<rect id="XMLID_123_" x="437.5" y="543.3" class="st7" width="61.5" height="13.4"/>
<rect id="XMLID_117_" x="437.5" y="556.8" class="st7" width="12" height="44.2"/>
<rect id="XMLID_15_" x="437.5" y="543.3" class="st4" width="61.5" height="57.7"/>
<rect id="XMLID_79_" x="220.9" y="313" class="st10" width="60.6" height="288"/>
<rect id="XMLID_58_" x="220.9" y="313" class="st12" width="10.1" height="288"/>
<rect id="XMLID_33_" x="220.9" y="313" class="st4" width="60.6" height="288"/>
<g id="XMLID_41_">
	<g id="XMLID_457_">
		<g id="XMLID_468_">
			<g id="XMLID_475_">
				<line id="XMLID_477_" class="st13" x1="238" y1="505" x2="238" y2="520"/>
				<line id="XMLID_476_" class="st14" x1="238" y1="525" x2="238" y2="531"/>
			</g>
			<g id="XMLID_472_">
				<line id="XMLID_474_" class="st13" x1="251" y1="505" x2="251" y2="520"/>
				<line id="XMLID_473_" class="st14" x1="251" y1="525" x2="251" y2="531"/>
			</g>
			<g id="XMLID_469_">
				<line id="XMLID_471_" class="st13" x1="264" y1="505" x2="264" y2="520"/>
				<line id="XMLID_470_" class="st14" x1="264" y1="525" x2="264" y2="531"/>
			</g>
		</g>
	</g>
	<g id="XMLID_426_">
		<g id="XMLID_437_">
			<g id="XMLID_444_">
				<line id="XMLID_446_" class="st13" x1="238" y1="461" x2="238" y2="476"/>
				<line id="XMLID_445_" class="st14" x1="238" y1="481" x2="238" y2="487"/>
			</g>
			<g id="XMLID_441_">
				<line id="XMLID_443_" class="st13" x1="251" y1="461" x2="251" y2="476"/>
				<line id="XMLID_442_" class="st14" x1="251" y1="481" x2="251" y2="487"/>
			</g>
			<g id="XMLID_438_">
				<line id="XMLID_440_" class="st13" x1="264" y1="461" x2="264" y2="476"/>
				<line id="XMLID_439_" class="st14" x1="264" y1="481" x2="264" y2="487"/>
			</g>
		</g>
	</g>
	<g id="XMLID_395_">
		<g id="XMLID_406_">
			<g id="XMLID_413_">
				<line id="XMLID_415_" class="st13" x1="238" y1="417" x2="238" y2="432"/>
				<line id="XMLID_414_" class="st14" x1="238" y1="437" x2="238" y2="443"/>
			</g>
			<g id="XMLID_410_">
				<line id="XMLID_412_" class="st13" x1="251" y1="417" x2="251" y2="432"/>
				<line id="XMLID_411_" class="st14" x1="251" y1="437" x2="251" y2="443"/>
			</g>
			<g id="XMLID_407_">
				<line id="XMLID_409_" class="st13" x1="264" y1="417" x2="264" y2="432"/>
				<line id="XMLID_408_" class="st14" x1="264" y1="437" x2="264" y2="443"/>
			</g>
		</g>
	</g>
	<g id="XMLID_364_">
		<g id="XMLID_375_">
			<g id="XMLID_382_">
				<line id="XMLID_384_" class="st13" x1="238" y1="373" x2="238" y2="388"/>
				<line id="XMLID_383_" class="st14" x1="238" y1="393" x2="238" y2="399"/>
			</g>
			<g id="XMLID_379_">
				<line id="XMLID_381_" class="st13" x1="251" y1="373" x2="251" y2="388"/>
				<line id="XMLID_380_" class="st14" x1="251" y1="393" x2="251" y2="399"/>
			</g>
			<g id="XMLID_376_">
				<line id="XMLID_378_" class="st13" x1="264" y1="373" x2="264" y2="388"/>
				<line id="XMLID_377_" class="st14" x1="264" y1="393" x2="264" y2="399"/>
			</g>
		</g>
	</g>
	<g id="XMLID_333_">
		<g id="XMLID_344_">
			<g id="XMLID_351_">
				<line id="XMLID_353_" class="st13" x1="238" y1="329" x2="238" y2="344"/>
				<line id="XMLID_352_" class="st14" x1="238" y1="349" x2="238" y2="355"/>
			</g>
			<g id="XMLID_348_">
				<line id="XMLID_350_" class="st13" x1="251" y1="329" x2="251" y2="344"/>
				<line id="XMLID_349_" class="st14" x1="251" y1="349" x2="251" y2="355"/>
			</g>
			<g id="XMLID_345_">
				<line id="XMLID_347_" class="st13" x1="264" y1="329" x2="264" y2="344"/>
				<line id="XMLID_346_" class="st14" x1="264" y1="349" x2="264" y2="355"/>
			</g>
		</g>
	</g>
</g>
<rect id="XMLID_84_" x="242" y="553" class="st2" width="20" height="48"/>
<rect id="XMLID_37_" x="242" y="553" class="st4" width="20" height="48"/>
<line id="XMLID_42_" class="st15" x1="525" y1="246" x2="525" y2="290.7"/>
<line id="XMLID_46_" class="st15" x1="515.3" y1="255.3" x2="535.3" y2="255.3"/>
<line id="XMLID_47_" class="st15" x1="508.8" y1="268.3" x2="542.6" y2="268.3"/>
<line id="XMLID_48_" class="st4" x1="813" y1="601" x2="813" y2="424"/>
<line id="XMLID_51_" class="st4" x1="775" y1="434.2" x2="775" y2="424"/>
<path id="XMLID_31_" class="st4" d="M775,424c0-10.5,8.5-19,19-19s19,8.5,19,19"/>
<polygon id="XMLID_49_" class="st4" points="792.5,452.3 757.5,452.3 775,432 "/>
<line id="XMLID_56_" class="st4" x1="197.5" y1="601" x2="197.5" y2="426"/>
<line id="XMLID_55_" class="st4" x1="159.5" y1="434.9" x2="159.5" y2="426"/>
<path id="XMLID_53_" class="st4" d="M159.5,426c0-10.5,8.5-19,19-19s19,8.5,19,19"/>
<polygon id="XMLID_143_" class="st2" points="177,454.3 142,454.3 159.5,434 "/>
<polygon id="XMLID_52_" class="st4" points="177,454.3 142,454.3 159.5,434 "/>
<ellipse id="XMLID_85_" class="st16" cx="106.3" cy="508.8" rx="41" ry="56.9"/>
<path id="XMLID_88_" class="st12" d="M76.6,508.8c0-28.3,14.9-51.7,34.4-56.1c-2.2-0.5-4.4-0.8-6.6-0.8c-22.6,0-41,25.5-41,56.9
	s18.4,56.9,41,56.9c2.3,0,4.5-0.3,6.6-0.8C91.4,560.5,76.6,537.1,76.6,508.8z"/>
<ellipse id="XMLID_70_" class="st4" cx="106.3" cy="508.8" rx="41" ry="56.9"/>
<line id="XMLID_68_" class="st4" x1="107.8" y1="542.2" x2="119.6" y2="530.5"/>
<line id="XMLID_67_" class="st4" x1="106.3" y1="524.4" x2="93.8" y2="512.6"/>
<ellipse id="XMLID_72_" class="st17" cx="559.5" cy="543" rx="25" ry="34.4"/>
<path id="XMLID_89_" class="st12" d="M544.5,543c0-16.6,8.6-30.5,20-33.7c-1.6-0.4-3.3-0.7-5-0.7c-13.8,0-25,15.4-25,34.4
	s11.2,34.4,25,34.4c1.7,0,3.4-0.2,5-0.7C553.1,573.5,544.5,559.6,544.5,543z"/>
<ellipse id="XMLID_77_" class="st4" cx="559.5" cy="543" rx="25" ry="34.4"/>
<path id="XMLID_73_" class="st18" d="M762.8,510.2c3.8,35.5-23.1,49.8-37.7,48.9c-14.7,0.9-41.5-13.4-37.7-48.9
	c6.8-34.4,21.7-61,37.7-60.9C741,449.2,756,475.8,762.8,510.2z"/>
<path id="XMLID_90_" class="st12" d="M734.7,557.1c-14.7,0.9-41.5-13.4-37.7-48.9c5.6-28.6,17-51.9,29.8-58.8
	c-0.6-0.1-1.1-0.1-1.7-0.1c-16-0.2-31,26.4-37.7,60.9c-3.8,35.5,23.1,49.8,37.7,48.9c3.5,0.2,7.6-0.4,11.8-2
	C736.1,557.2,735.4,557.2,734.7,557.1z"/>
<path id="XMLID_62_" class="st4" d="M762.8,510.2c3.8,35.5-23.1,49.8-37.7,48.9c-14.7,0.9-41.5-13.4-37.7-48.9
	c6.8-34.4,21.7-61,37.7-60.9C741,449.2,756,475.8,762.8,510.2z"/>
<line id="XMLID_65_" class="st4" x1="725.1" y1="535.3" x2="737.7" y2="522.7"/>
<line id="XMLID_66_" class="st4" x1="725.1" y1="513.5" x2="711.3" y2="499.7"/>
<line id="XMLID_134_" class="st4" x1="410.5" y1="648" x2="516" y2="648"/>
<line id="XMLID_133_" class="st4" x1="531.8" y1="648" x2="542.6" y2="648"/>
<line id="XMLID_137_" class="st4" x1="555.3" y1="648" x2="557.4" y2="648"/>
<line id="XMLID_83_" class="st4" x1="359.4" y1="648" x2="385.5" y2="648"/>
<polyline id="XMLID_80_" class="st4" points="559.5,553.5 559.5,559.2 559.5,563.7 559.5,599.4 "/>
<line id="XMLID_64_" class="st4" x1="725.1" y1="487.5" x2="725.1" y2="601"/>
<line id="XMLID_71_" class="st4" x1="107.8" y1="498" x2="107.8" y2="601"/>
<ellipse id="XMLID_87_" class="st17" cx="863.9" cy="505.6" rx="41" ry="56.9"/>
<path id="XMLID_91_" class="st12" d="M832.9,505.6c0-29,15.7-53,36-56.4c-1.6-0.3-3.3-0.4-5-0.4c-22.6,0-41,25.5-41,56.9
	s18.4,56.9,41,56.9c1.7,0,3.4-0.2,5-0.4C848.6,558.6,832.9,534.6,832.9,505.6z"/>
<ellipse id="XMLID_50_" class="st4" cx="863.9" cy="505.6" rx="41" ry="56.9"/>
<line id="XMLID_59_" class="st4" x1="865.5" y1="544" x2="877.2" y2="532.3"/>
<line id="XMLID_60_" class="st4" x1="863.9" y1="526.1" x2="851.4" y2="514.4"/>
<line id="XMLID_57_" class="st4" x1="865.5" y1="499.7" x2="865.5" y2="600.6"/>
<line id="XMLID_93_" class="st9" x1="327.3" y1="183.7" x2="327.3" y2="220.1"/>
<line id="XMLID_94_" class="st9" x1="349" y1="183.7" x2="349" y2="220.1"/>
<circle id="XMLID_100_" class="st19" cx="106" cy="476" r="3.5"/>
<circle id="XMLID_103_" class="st19" cx="127.6" cy="514" r="4.5"/>
<circle id="XMLID_104_" class="st12" cx="124.1" cy="490.2" r="4.5"/>
<circle id="XMLID_102_" class="st12" cx="93.8" cy="496" r="3.3"/>
<circle id="XMLID_101_" class="st19" cx="556.4" cy="526.9" r="2.4"/>
<circle id="XMLID_105_" class="st12" cx="570.9" cy="536.4" r="3.4"/>
<circle id="XMLID_109_" class="st19" cx="723.6" cy="478" r="2.4"/>
<circle id="XMLID_111_" class="st19" cx="743.3" cy="506" r="3.4"/>
<circle id="XMLID_108_" class="st12" cx="738.1" cy="487.5" r="3.4"/>
<circle id="XMLID_110_" class="st12" cx="711.3" cy="524.5" r="3.4"/>
<circle id="XMLID_113_" class="st19" cx="879.1" cy="489.6" r="4.7"/>
<circle id="XMLID_114_" class="st12" cx="877.1" cy="514.3" r="3.4"/>
<circle id="XMLID_112_" class="st12" cx="860.9" cy="478.8" r="3.4"/>
<path id="XMLID_4_" class="st17" d="M712.8,601c0-11.5,9.3-20.7,20.7-20.7s20.7,9.3,20.7,20.7H712.8z"/>
<path id="XMLID_135_" class="st12" d="M739.6,581.2c-1.9-0.6-4-0.9-6.2-0.9c-11.5,0-20.7,9.3-20.7,20.7H725
	C725.1,591.7,731.2,583.8,739.6,581.2z"/>
<path id="XMLID_3_" class="st4" d="M712.8,601c0-11.5,9.3-20.7,20.7-20.7s20.7,9.3,20.7,20.7H712.8z"/>
<path id="XMLID_132_" class="st18" d="M739,601c0-16.5,13.3-29.8,29.8-29.8s29.8,13.3,29.8,29.8H739z"/>
<path id="XMLID_136_" class="st12" d="M774.5,571.8c-1.9-0.4-3.8-0.6-5.8-0.6c-16.5,0-29.8,13.3-29.8,29.8h11.5
	C750.5,586.5,760.8,574.4,774.5,571.8z"/>
<path id="XMLID_129_" class="st4" d="M739,601c0-16.5,13.3-29.8,29.8-29.8s29.8,13.3,29.8,29.8H739z"/>
</svg>
