<?xml version="1.0" encoding="utf-8"?>
<!-- Generator: Adobe Illustrator 22.0.0, SVG Export Plug-In . SVG Version: 6.00 Build 0)  -->
<svg version="1.1" id="Layer_1" xmlns="http://www.w3.org/2000/svg" xmlns:xlink="http://www.w3.org/1999/xlink" x="0px" y="0px"
	 viewBox="0 0 1000 750" style="enable-background:new 0 0 1000 750;" xml:space="preserve">
<style type="text/css">
	.st0{fill:#FCB432;}
	.st1{fill:#464F5A;}
	.st2{fill:#BCBFC3;}
	.st3{fill:#2DA7DF;}
	.st4{opacity:0.4;fill:#848484;enable-background:new    ;}
	.st5{fill:none;stroke:#464F5A;stroke-width:4;stroke-linecap:round;stroke-linejoin:round;stroke-miterlimit:10;}
	.st6{opacity:0.32;fill:#848484;enable-background:new    ;}
	.st7{fill:#AFB2B3;}
	.st8{fill:#AFAFB0;}
	.st9{fill:#FFFFFF;}
	.st10{fill:#6768AF;}
	.st11{opacity:0.2;fill:#464F5A;enable-background:new    ;}
	
		.st12{opacity:0.2;fill:none;stroke:#464F5A;stroke-width:4;stroke-linecap:round;stroke-linejoin:round;stroke-miterlimit:10;enable-background:new    ;}
	.st13{opacity:0.2;}
	.st14{opacity:9.000000e-02;}
	.st15{fill:#F09F54;}
	.st16{fill:#ED8B3B;}
	.st17{fill:#F36C3D;}
	.st18{fill:#8F91C7;}
	.st19{fill:#BECCD5;stroke:#464F5A;stroke-width:4;stroke-linecap:round;stroke-linejoin:round;stroke-miterlimit:10;}
	
		.st20{opacity:0.3;fill:none;stroke:#464F5A;stroke-width:4;stroke-linecap:round;stroke-linejoin:round;stroke-miterlimit:10;enable-background:new    ;}
	.st21{opacity:0.62;fill:#FFFFFF;enable-background:new    ;}
	.st22{opacity:0.71;fill:#5E5E5E;enable-background:new    ;}
	.st23{opacity:0.8;fill:#BCBFC3;enable-background:new    ;}
	.st24{opacity:0.3;}
	.st25{fill:none;stroke:#464F5A;stroke-width:2;stroke-linejoin:round;}
	.st26{fill:none;stroke:#464F5A;stroke-width:2;stroke-linejoin:round;stroke-dasharray:2.858,1.9053;}
	.st27{fill:none;stroke:#464F5A;stroke-width:2;stroke-linejoin:round;stroke-dasharray:3.0046,2.003;}
	.st28{fill:none;stroke:#464F5A;stroke-linejoin:round;stroke-miterlimit:10;}
	.st29{fill:none;stroke:#464F5A;stroke-linecap:round;stroke-linejoin:round;stroke-miterlimit:10;}
</style>
<rect class="st0" width="1000" height="750"/>
<path id="XMLID_1313_" class="st1" d="M909.8,541.3H95.7c-5,0-9-4-9-9l0,0c0-5,4-9,9-9h814.2c5,0,9,4,9,9l0,0
	C918.8,537.3,914.8,541.3,909.8,541.3z"/>
<g id="XMLID_24_">
	<rect id="XMLID_6_" x="407.4" y="522.8" class="st1" width="140.8" height="8.4"/>
	<g id="XMLID_104_">
		<path id="XMLID_76_" class="st2" d="M646,467.9H313.8c-6.6,0-12-5.4-12-12V233.4c0-6.6,5.4-12,12-12H646c6.6,0,12,5.4,12,12v222.4
			C658,462.5,652.7,467.9,646,467.9z"/>
		<rect id="XMLID_80_" x="324.3" y="244" class="st3" width="312.6" height="181.7"/>
		<path id="XMLID_18_" class="st4" d="M646.8,467.9h-52.1v-94.8c0-7.6,6.1-13.7,13.7-13.7h38.4L646.8,467.9L646.8,467.9z"/>
		<path id="XMLID_107_" class="st4" d="M327.1,376.3h-25.3V451c0,9.3,8,16.9,17.4,16.9h29.1v-70
			C348.2,386.2,338.7,376.3,327.1,376.3z"/>
		<path id="XMLID_5_" class="st5" d="M647,467.9H314.2c-6.6,0-12-5.4-12-12V233.4c0-6.6,5.4-12,12-12H647c6.6,0,12,5.4,12,12v222.4
			C659,462.5,653.6,467.9,647,467.9z"/>
		<rect id="XMLID_7_" x="324.8" y="244" class="st5" width="311.7" height="181.7"/>
	</g>
	<path id="XMLID_179_" class="st6" d="M575.9,416.9H404.1c-3.9,0-7-3.2-7-7V287.3c0-3.9,3.2-7,7-7h171.8c3.9,0,7,3.2,7,7v122.5
		C582.9,413.7,579.8,416.9,575.9,416.9z"/>
	<path id="XMLID_134_" class="st7" d="M567.9,410.1H396.1c-3.9,0-7-3.2-7-7V280.6c0-3.9,3.2-7,7-7h171.8c3.9,0,7,3.2,7,7v122.5
		C575,407,571.8,410.1,567.9,410.1z"/>
	<path id="XMLID_137_" class="st5" d="M567.9,410.1H396.1c-3.9,0-7-3.2-7-7V280.6c0-3.9,3.2-7,7-7h171.8c3.9,0,7,3.2,7,7v122.5
		C575,407,571.8,410.1,567.9,410.1z"/>
	<polygon id="XMLID_96_" class="st8" points="522.5,522.8 438.7,522.8 449.1,467.9 512.1,467.9 	"/>
	<polygon id="XMLID_99_" class="st6" points="514.9,483.4 512.1,467.9 449.1,467.9 446.3,483.4 	"/>
	<polygon id="XMLID_3_" class="st5" points="522.5,522.8 438.7,522.8 449.1,467.9 512.1,467.9 	"/>
	<rect id="XMLID_8_" x="407.4" y="522.8" class="st5" width="140.8" height="8.4"/>
	<circle id="XMLID_9_" class="st1" cx="480.1" cy="442.7" r="6.2"/>
	<path id="XMLID_133_" class="st9" d="M553.8,397.5H382c-3.9,0-7-3.2-7-7V267.9c0-3.9,3.2-7,7-7h171.8c3.9,0,7,3.2,7,7v122.5
		C560.9,394.3,557.7,397.5,553.8,397.5z"/>
	<path id="XMLID_25_" class="st5" d="M553.8,397.5H382c-3.9,0-7-3.2-7-7V267.9c0-3.9,3.2-7,7-7h171.8c3.9,0,7,3.2,7,7v122.5
		C560.9,394.3,557.7,397.5,553.8,397.5z"/>
	<path id="XMLID_105_" class="st2" d="M560.9,282H375v-13.8c0-4,3.3-7.4,7.4-7.4H554c3.8,0,6.9,3.1,6.9,6.9V282z"/>
	<path id="XMLID_26_" class="st5" d="M560.9,282H375v-13.8c0-4,3.3-7.4,7.4-7.4H554c3.8,0,6.9,3.1,6.9,6.9V282z"/>
	<g id="XMLID_108_">
		<circle id="XMLID_106_" class="st1" cx="392.9" cy="271.5" r="3.3"/>
		<circle id="XMLID_109_" class="st1" cx="403.8" cy="271.5" r="3.3"/>
		<circle id="XMLID_120_" class="st1" cx="414.6" cy="271.5" r="3.3"/>
	</g>
	<path id="XMLID_122_" class="st10" d="M543.4,318.6H391.1c-1.1,0-2-0.9-2-2v-21.3c0-1.1,0.9-2,2-2h152.3c1.1,0,2,0.9,2,2v21.3
		C545.4,317.7,544.5,318.6,543.4,318.6z"/>
	<g id="XMLID_123_">
		<path id="XMLID_124_" class="st11" d="M434.9,345.3H391c-1.1,0-2-0.9-2-2v-11.5c0-1.1,0.9-2,2-2h43.9c1.1,0,2,0.9,2,2v11.5
			C436.9,344.4,436.1,345.3,434.9,345.3z"/>
		<line id="XMLID_125_" class="st12" x1="396.1" y1="356.6" x2="431.3" y2="356.6"/>
		<line id="XMLID_128_" class="st12" x1="396.1" y1="367.9" x2="431.3" y2="367.9"/>
	</g>
	<g id="XMLID_127_">
		<path id="XMLID_131_" class="st11" d="M489.9,345.3H446c-1.1,0-2-0.9-2-2v-11.5c0-1.1,0.9-2,2-2h43.9c1.1,0,2,0.9,2,2v11.5
			C491.9,344.4,491,345.3,489.9,345.3z"/>
		<line id="XMLID_130_" class="st12" x1="451" y1="356.6" x2="484.8" y2="356.6"/>
		<line id="XMLID_129_" class="st12" x1="451" y1="367.9" x2="484.8" y2="367.9"/>
	</g>
	<g id="XMLID_132_" class="st13">
		<path id="XMLID_135_" class="st1" d="M544.8,369.3h-43.9c-1.1,0-2-0.9-2-2v-35.4c0-1.1,0.9-2,2-2h43.9c1.1,0,2,0.9,2,2v35.4
			C546.8,368.4,545.9,369.3,544.8,369.3z"/>
	</g>
	<g id="XMLID_126_" class="st14">
		<path id="XMLID_136_" class="st1" d="M543.4,380.6h-41.8c-1.6,0-2.8-1.3-2.8-2.8s1.3-2.8,2.8-2.8h41.8c1.6,0,2.8,1.3,2.8,2.8
			S544.9,380.6,543.4,380.6z"/>
	</g>
</g>
<g id="XMLID_23_">
	<g id="XMLID_12_">
		<path id="XMLID_71_" class="st9" d="M229.2,488.4h-80.6c-1,0-1.9,0.3-2.6,1l-19.5,17c-1.8,1.6-1.8,4.4,0,5.9l19.5,17.3
			c0.7,0.6,1.6,1.2,2.6,1.2h80.6c4.6,0,8.4-4.2,8.4-8.8v-25.5C237.5,492.1,233.8,488.4,229.2,488.4z M146.4,514.3c-2.7,0-5-2.2-5-5
			s2.2-5,5-5s5,2.2,5,5S149.2,514.3,146.4,514.3z"/>
		<rect id="XMLID_70_" x="167.1" y="488.4" class="st15" width="23.5" height="42.5"/>
		<rect id="XMLID_69_" x="190.6" y="488.4" class="st16" width="23.5" height="42.5"/>
		<path id="XMLID_58_" class="st17" d="M227.1,530.9h-13v-42.5h13.4c5.5,0,10.1,4.5,10.1,10.1v22
			C237.5,526.2,232.8,530.9,227.1,530.9z"/>
		<path id="XMLID_117_" class="st4" d="M231.4,490.5c-0.4-0.1-0.8-0.1-1.2-0.1h-80.6c-1,0-1.9,0.3-2.6,1l-19.5,17
			c-1.8,1.6-1.8,4.4,0,5.9l12.2,10.7l13.2,3.3c0.6,0.2,1.3,0.2,2,0.2c1.3,0,2.5-0.3,3.7-0.9l71.8-36.6
			C230.7,490.9,231.1,490.7,231.4,490.5z M147.4,516.3c-2.7,0-5-2.2-5-5s2.2-5,5-5s5,2.2,5,5S150.2,516.3,147.4,516.3z"/>
		<path id="XMLID_29_" class="st5" d="M229.2,488.4h-80.6c-1,0-1.9,0.3-2.6,1l-19.5,17c-1.8,1.6-1.8,4.4,0,5.9l19.5,17.3
			c0.7,0.6,1.6,1.2,2.6,1.2h80.6c4.6,0,8.4-4.2,8.4-8.8v-25.5C237.5,492.1,233.8,488.4,229.2,488.4z M146.4,514.3c-2.7,0-5-2.2-5-5
			s2.2-5,5-5s5,2.2,5,5S149.2,514.3,146.4,514.3z"/>
		<rect id="XMLID_17_" x="167.1" y="488.4" class="st5" width="23.5" height="42.5"/>
		<rect id="XMLID_21_" x="190.6" y="488.4" class="st5" width="23.5" height="42.5"/>
		<path id="XMLID_22_" class="st5" d="M227.1,530.9h-13v-42.5h13.4c5.5,0,10.1,4.5,10.1,10.1v22
			C237.5,526.2,232.8,530.9,227.1,530.9z"/>
	</g>
	<g id="XMLID_20_">
		<path id="XMLID_74_" class="st9" d="M208.4,448l-71.8,36.6c-0.9,0.4-1.5,1.2-1.9,2.1l-9.6,24c-0.9,2.2,0.4,4.7,2.7,5.3l25.1,6.4
			c0.9,0.2,1.9,0.1,2.8-0.3l71.8-36.6c4.1-2.1,5.7-7.1,3.6-11.1l-11.6-22.7C217.4,447.5,212.4,445.9,208.4,448z"/>
		
			<rect id="XMLID_77_" x="182.2" y="457.9" transform="matrix(0.8908 -0.4545 0.4545 0.8908 -196.4606 140.4635)" class="st18" width="23.5" height="42"/>
		<path id="XMLID_33_" class="st5" d="M208.4,448l-71.8,36.6c-0.9,0.4-1.5,1.2-1.9,2.1l-9.6,24c-0.9,2.2,0.4,4.7,2.7,5.3l25.1,6.4
			c0.9,0.2,1.9,0.1,2.8-0.3l71.8-36.6c4.1-2.1,5.7-7.1,3.6-11.1l-11.6-22.7C217.4,447.5,212.4,445.9,208.4,448z"/>
		<circle id="XMLID_34_" class="st1" cx="144.2" cy="504.3" r="5.8"/>
		
			<rect id="XMLID_79_" x="161.2" y="468.6" transform="matrix(0.8908 -0.4545 0.4545 0.8908 -203.6312 132.1016)" class="st19" width="23.5" height="42"/>
		
			<rect id="XMLID_32_" x="161.2" y="468.6" transform="matrix(0.8908 -0.4545 0.4545 0.8908 -203.6312 132.1016)" class="st5" width="23.5" height="42"/>
		
			<rect id="XMLID_31_" x="182.2" y="457.9" transform="matrix(0.8908 -0.4545 0.4545 0.8908 -196.4606 140.4635)" class="st5" width="23.5" height="42"/>
		<path id="XMLID_30_" class="st10" d="M225.9,486.2l-12,6.1l-19.1-37.4l12-6.1c4.9-2.5,10.9-0.6,13.5,4.4l10,19.6
			C232.8,477.7,230.8,483.7,225.9,486.2z"/>
		<path id="XMLID_78_" class="st5" d="M225.9,486.2l-12,6.1l-19.1-37.4l12-6.1c4.9-2.5,10.9-0.6,13.5,4.4l10,19.6
			C232.8,477.7,230.8,483.7,225.9,486.2z"/>
	</g>
</g>
<g id="XMLID_90_">
	<path id="XMLID_102_" class="st9" d="M327,531.2h-67.3c-5.5,0-10-4.5-10-10V386.3c0-5.5,4.5-10,10-10H327c5.5,0,10,4.5,10,10v134.9
		C337,526.8,332.5,531.2,327,531.2z"/>
	<path id="XMLID_83_" class="st10" d="M338.4,422.8h-88.7v-36.7c0-5.4,4.4-9.8,9.8-9.8H328c5.7,0,10.3,4.7,10.3,10.3v36.2H338.4z"/>
	<path id="XMLID_10_" class="st5" d="M327,531.2h-67.3c-5.5,0-10-4.5-10-10V386.3c0-5.5,4.5-10,10-10H327c5.5,0,10,4.5,10,10v134.9
		C337,526.8,332.5,531.2,327,531.2z"/>
	<path id="XMLID_82_" class="st2" d="M327.1,531.2H260c-5.7,0-10.4-4.7-10.4-10.4v-19.2H337v19.7C337,526.8,332.5,531.2,327.1,531.2
		z"/>
	<path id="XMLID_81_" class="st5" d="M327.3,531.2H260c-5.7,0-10.4-4.7-10.4-10.4v-19.2H337v19.9C337,526.9,332.6,531.2,327.3,531.2
		z"/>
	<circle id="XMLID_84_" class="st1" cx="294" cy="515.8" r="5"/>
	<line id="XMLID_86_" class="st20" x1="269.4" y1="438.3" x2="318.7" y2="438.3"/>
	<line id="XMLID_87_" class="st20" x1="279.2" y1="453.8" x2="310.2" y2="453.8"/>
	<line id="XMLID_88_" class="st20" x1="269.4" y1="467.9" x2="318.7" y2="467.9"/>
	<circle id="XMLID_85_" class="st21" cx="294" cy="403.1" r="11.2"/>
	<path id="XMLID_89_" class="st16" d="M310.2,483.4c0,3.1-2.5,5.6-5.6,5.6h-21.1c-3.1,0-5.6-2.5-5.6-5.6l0,0c0-3.1,2.5-5.6,5.6-5.6
		h21.1C307.7,477.7,310.2,480.2,310.2,483.4L310.2,483.4z"/>
</g>
<g id="XMLID_111_">
	<path id="XMLID_100_" class="st2" d="M848.2,512.9H605.9V367.3c0-4.3,3.5-7.8,7.8-7.8h226.8c4.2,0,7.6,3.4,7.6,7.6v145.8H848.2z"/>
	<path id="XMLID_11_" class="st5" d="M848.8,513.2H606.6v-146c0-4.4,3.6-8,8-8h226.2c4.4,0,8,3.6,8,8V513.2z"/>
	<rect id="XMLID_101_" x="620" y="372.1" class="st22" width="215.5" height="128.2"/>
	<path id="XMLID_183_" class="st6" d="M672.7,475.9h-18.6c-1.1,0-2-0.9-2-2v-63.7c0-1.1,0.9-2,2-2h18.6c1.1,0,2,0.9,2,2V474
		C674.7,475,673.8,475.9,672.7,475.9z"/>
	<path id="XMLID_178_" class="st6" d="M807,488.8H699.6c-2.2,0-4-1.8-4-4v-82.1c0-2.2,1.8-4,4-4H807c2.2,0,4,1.8,4,4v82.1
		C811,487,809.3,488.8,807,488.8z"/>
	<rect id="XMLID_103_" x="620" y="372.6" class="st5" width="215.3" height="127.1"/>
	<path id="XMLID_110_" class="st9" d="M875.2,513.2H580.1v9.4c0,4.4,3.6,8,8,8h279.1c4.4,0,8-3.6,8-8L875.2,513.2L875.2,513.2z"/>
	<path id="XMLID_206_" class="st23" d="M591.4,531.2H864c5.5,0,10-4.2,11-9.9H580.3C581.3,527,585.9,531.2,591.4,531.2z"/>
	<path id="XMLID_15_" class="st5" d="M875.2,513.2H580.1v9.4c0,4.4,3.6,8,8,8h279.1c4.4,0,8-3.6,8-8L875.2,513.2L875.2,513.2z"/>
	<rect id="XMLID_201_" x="646.8" y="403.1" class="st15" width="22.5" height="22.5"/>
	<rect id="XMLID_138_" x="647.2" y="403.3" class="st5" width="22.5" height="22.5"/>
	<rect id="XMLID_180_" x="647.2" y="403.3" class="st5" width="22.5" height="22.5"/>
	<rect id="XMLID_156_" x="646.8" y="425.6" class="st18" width="22.5" height="22.5"/>
	<rect id="XMLID_140_" x="647.2" y="425.9" class="st5" width="22.5" height="22.5"/>
	<rect id="XMLID_202_" x="646.8" y="448.1" class="st10" width="22.5" height="22.5"/>
	<rect id="XMLID_143_" x="647.2" y="448.4" class="st5" width="22.5" height="22.5"/>
	<path id="XMLID_115_" class="st9" d="M800.5,481.9H693c-2.2,0-4-1.8-4-4v-82.1c0-2.2,1.8-4,4-4h107.5c2.2,0,4,1.8,4,4v82.1
		C804.5,480.2,802.7,481.9,800.5,481.9z"/>
	<path id="XMLID_139_" class="st5" d="M800.5,481.9H693c-2.2,0-4-1.8-4-4v-82.1c0-2.2,1.8-4,4-4h107.5c2.2,0,4,1.8,4,4v82.1
		C804.5,480.2,802.7,481.9,800.5,481.9z"/>
	<g id="XMLID_147_" class="st24">
		<g id="XMLID_205_">
			<polyline id="XMLID_419_" class="st25" points="770.7,458.2 770.7,459.7 769.2,459.7 			"/>
			<line id="XMLID_418_" class="st26" x1="767.3" y1="459.7" x2="725.4" y2="459.7"/>
			<polyline id="XMLID_417_" class="st25" points="724.4,459.7 722.9,459.7 722.9,458.2 			"/>
			<line id="XMLID_416_" class="st27" x1="722.9" y1="456.1" x2="722.9" y2="417.1"/>
			<polyline id="XMLID_415_" class="st25" points="722.9,416.1 722.9,414.6 724.4,414.6 			"/>
			<line id="XMLID_214_" class="st26" x1="726.3" y1="414.6" x2="768.2" y2="414.6"/>
			<polyline id="XMLID_213_" class="st25" points="769.2,414.6 770.7,414.6 770.7,416.1 			"/>
			<line id="XMLID_211_" class="st27" x1="770.7" y1="418.1" x2="770.7" y2="457.2"/>
		</g>
	</g>
	<g id="XMLID_155_">
		<rect id="XMLID_154_" x="719.6" y="411.1" class="st9" width="7.1" height="7.1"/>
		<rect id="XMLID_153_" x="719.3" y="410.8" class="st28" width="7" height="7"/>
	</g>
	<g id="XMLID_157_">
		<rect id="XMLID_159_" x="719.6" y="456.1" class="st9" width="7.1" height="7.1"/>
		<rect id="XMLID_158_" x="719.3" y="455.9" class="st28" width="7" height="7"/>
	</g>
	<g id="XMLID_162_">
		<rect id="XMLID_166_" x="767.2" y="411.1" class="st9" width="7.1" height="7.1"/>
		<rect id="XMLID_164_" x="767.2" y="410.8" class="st28" width="7" height="7"/>
	</g>
	<g id="XMLID_196_">
		<rect id="XMLID_198_" x="767.2" y="456.1" class="st9" width="7.1" height="7.1"/>
		<rect id="XMLID_197_" x="767.2" y="455.9" class="st28" width="7" height="7"/>
	</g>
	<g id="XMLID_229_">
		<g id="XMLID_225_">
			<polygon id="XMLID_230_" class="st9" points="658.5,437.5 665.6,452.7 672.5,456.3 677.3,451.5 673.8,444.5 			"/>
			<polygon id="XMLID_227_" class="st28" points="658.5,437.5 665.6,452.7 672.5,456.3 677.3,451.5 673.8,444.5 			"/>
			<circle id="XMLID_224_" class="st1" cx="667.5" cy="446.1" r="1.9"/>
			<line id="XMLID_226_" class="st29" x1="658.5" y1="437.5" x2="666.4" y2="445.4"/>
		</g>
		
			<rect id="XMLID_231_" x="673.3" y="453.1" transform="matrix(0.7071 -0.7071 0.7071 0.7071 -123.9391 611.8992)" class="st9" width="6.8" height="4.9"/>
		
			<rect id="XMLID_228_" x="673.3" y="453.1" transform="matrix(0.7071 -0.7071 0.7071 0.7071 -123.9391 611.8992)" class="st28" width="6.8" height="4.9"/>
	</g>
</g>
</svg>
