<?xml version="1.0" encoding="utf-8"?>
<!-- Generator: Adobe Illustrator 22.0.0, SVG Export Plug-In . SVG Version: 6.00 Build 0)  -->
<svg version="1.1" id="Layer_1" xmlns="http://www.w3.org/2000/svg" xmlns:xlink="http://www.w3.org/1999/xlink" x="0px" y="0px"
	 viewBox="0 0 650 650" style="enable-background:new 0 0 650 650;" xml:space="preserve">
<path d="M325,647.5c48.8,0,88.3-39.5,88.3-88.3H236.7C236.7,608,276.2,647.5,325,647.5z"/>
<path d="M597.2,506.6c-25.2,0-45.6-20.4-45.6-45.6V303.8c0-97.8-62-181.2-148.8-212.9v-8.1C402.8,39.8,368,5,325,5h0
	c-43,0-77.8,34.8-77.8,77.8v8.1C160.4,122.6,98.4,206,98.4,303.8v157.1c0,25.2-20.4,45.6-45.6,45.6h0v19h544.4L597.2,506.6
	L597.2,506.6z"/>
</svg>
