<?xml version="1.0" encoding="utf-8"?>
<!-- Generator: Adobe Illustrator 22.0.0, SVG Export Plug-In . SVG Version: 6.00 Build 0)  -->
<svg version="1.1" id="Layer_1" xmlns="http://www.w3.org/2000/svg" xmlns:xlink="http://www.w3.org/1999/xlink" x="0px" y="0px"
	 viewBox="0 0 650 650" style="enable-background:new 0 0 650 650;" xml:space="preserve">
<style type="text/css">
	.st0{stroke:#000000;stroke-miterlimit:10;}
</style>
<path class="st0" d="M325,62.2c-155.6,0-281.7,126.1-281.7,281.7S169.4,625.7,325,625.7s281.7-126.1,281.7-281.7
	S480.6,62.2,325,62.2z M325,555.2c-116.7,0-211.3-94.6-211.3-211.3S208.3,132.6,325,132.6s211.3,94.6,211.3,211.3
	S441.7,555.2,325,555.2z"/>
<circle class="st0" cx="323.1" cy="343.9" r="25.8"/>
<rect x="297.3" y="161.4" class="st0" width="51.6" height="208.3"/>
<rect x="345" y="327.5" transform="matrix(-0.7071 0.7071 -0.7071 -0.7071 919.7625 430.2511)" class="st0" width="51.6" height="156.2"/>
<path class="st0" d="M51.3,191.5c31.1-55.8,78.9-101.1,136.5-129.3c-17-26.4-46.7-43.8-80.4-43.8c-52.8,0-95.6,42.8-95.6,95.6
	C11.8,146,27.4,174.2,51.3,191.5z"/>
<path class="st0" d="M462.5,62.4c57.3,28.2,105,73.6,136.1,129.7c25.4-18.4,41.3-48.9,39.6-82.5c-2.7-52.7-47.7-93.3-100.4-90.6
	C506,20.6,478.6,37.6,462.5,62.4z"/>
</svg>
