<?xml version="1.0" encoding="utf-8"?>
<!-- Generator: Adobe Illustrator 22.0.0, SVG Export Plug-In . SVG Version: 6.00 Build 0)  -->
<svg version="1.1" id="Layer_1" xmlns="http://www.w3.org/2000/svg" xmlns:xlink="http://www.w3.org/1999/xlink" x="0px" y="0px"
	 viewBox="0 0 650 650" style="enable-background:new 0 0 650 650;" xml:space="preserve">
<style type="text/css">
	.st0{fill:#020202;stroke:#000000;stroke-miterlimit:10;}
</style>
<path class="st0" d="M451.9,627.8H198.1c-29.9,0-54.2-24.3-54.2-54.2V221.1h362.2v352.6C506.1,603.6,481.9,627.8,451.9,627.8z"/>
<path class="st0" d="M325,18.9c-100,0-181.1,81.1-181.1,181.1h23.2c0-87.2,70.7-157.9,157.9-157.9S482.9,112.8,482.9,200h23.2
	C506.1,99.9,425,18.9,325,18.9z"/>
<path class="st0" d="M498.9,247.9H151.1c-14.8,0-26.8-12-26.8-26.8v0h401.5v0C525.8,235.9,513.7,247.9,498.9,247.9z"/>
</svg>
