<?xml version="1.0" encoding="utf-8"?>
<!-- Generator: Adobe Illustrator 22.0.0, SVG Export Plug-In . SVG Version: 6.00 Build 0)  -->
<svg version="1.1" id="Layer_1" xmlns="http://www.w3.org/2000/svg" xmlns:xlink="http://www.w3.org/1999/xlink" x="0px" y="0px"
	 viewBox="0 0 650 650" style="enable-background:new 0 0 650 650;" xml:space="preserve">
<path d="M494.7,26.4H155.3c-41.7,0-75.6,33.8-75.6,75.6v520.5h490.5V102C570.2,60.3,536.4,26.4,494.7,26.4z M257.4,551.8h-77.5
	v-77.5h77.5V551.8z M257.4,429.6h-77.5v-77.5h77.5V429.6z M257.4,307.4h-77.5v-77.5h77.5V307.4z M257.4,185.2h-77.5v-77.5h77.5
	V185.2z M470.1,551.8h-77.5v-77.5h77.5V551.8z M470.1,429.6h-77.5v-77.5h77.5V429.6z M470.1,307.4h-77.5v-77.5h77.5V307.4z
	 M470.1,185.2h-77.5v-77.5h77.5V185.2z"/>
</svg>
