<?xml version="1.0" encoding="utf-8"?>
<!-- Generator: Adobe Illustrator 22.0.0, SVG Export Plug-In . SVG Version: 6.00 Build 0)  -->
<svg version="1.1" id="Layer_1" xmlns="http://www.w3.org/2000/svg" xmlns:xlink="http://www.w3.org/1999/xlink" x="0px" y="0px"
	 viewBox="0 0 650 650" style="enable-background:new 0 0 650 650;" xml:space="preserve">
<style type="text/css">
	.st0{stroke:#000000;stroke-miterlimit:10;}
	.st1{stroke:#000000;stroke-width:9;stroke-miterlimit:10;}
</style>
<g>
	<path class="st0" d="M377.7,33.9H273.1c-11,0-19.9,8.9-19.9,19.9l0,0c0,11,8.9,19.9,19.9,19.9h104.5c11,0,19.9-8.9,19.9-19.9l0,0
		C397.6,42.8,388.7,33.9,377.7,33.9z"/>
	<path class="st0" d="M377.7,78.1H273.1c-13.4,0-24.4-10.9-24.4-24.4c0-13.4,10.9-24.4,24.4-24.4h104.5c13.4,0,24.4,10.9,24.4,24.4
		C402,67.2,391.1,78.1,377.7,78.1z M273.1,38.3c-8.6,0-15.5,7-15.5,15.5c0,8.6,7,15.5,15.5,15.5h104.5c8.6,0,15.5-7,15.5-15.5
		c0-8.6-7-15.5-15.5-15.5H273.1z"/>
</g>
<path class="st1" d="M574.7,553.9L388.1,241.1c-8.7-14.6-13.3-31.3-13.3-48.3V53.8h-99.5v138.9c0,17-4.6,33.7-13.3,48.3L75.3,553.9
	c-15.8,26.5,3.3,60.1,34.1,60.1h431.2C571.4,614,590.5,580.4,574.7,553.9z M476.7,559.1H174.1c-14.9,0-24.1-16.2-16.5-29l86-144.2
	c0,0,46.3,40.2,86.1,17.5c36.7-20.9,42.9-30.6,71.7-27l91.7,153.7C500.8,542.9,491.6,559.1,476.7,559.1z"/>
</svg>
