<?xml version="1.0" encoding="utf-8"?>
<!-- Generator: Adobe Illustrator 22.0.0, SVG Export Plug-In . SVG Version: 6.00 Build 0)  -->
<svg version="1.1" id="Layer_1" xmlns="http://www.w3.org/2000/svg" xmlns:xlink="http://www.w3.org/1999/xlink" x="0px" y="0px"
	 viewBox="0 0 650 650" style="enable-background:new 0 0 650 650;" xml:space="preserve">
<circle cx="297" cy="182.7" r="154.8"/>
<g>
	<g>
		<path d="M629.5,578.6L534.8,420c-4.4-7.4-6.8-15.9-6.8-24.5V325h-50.4v70.5c0,8.6-2.3,17.1-6.8,24.5l-94.7,158.6
			c-8,13.4,1.7,30.5,17.3,30.5h218.7C627.8,609.1,637.5,592,629.5,578.6z"/>
	</g>
</g>
<path d="M339.3,579.3L444.5,403c4.9-8.2,7.5-17.6,7.5-27.2v-53.2c-4.9-4.2-10-8.1-15.2-11.9c-35.1,37.2-84.7,60.4-139.9,60.4
	c-55.1,0-104.8-23.2-139.9-60.4c-60.5,43.5-99.8,114.5-99.8,194.7c0,11.8,0.9,23.4,2.5,34.8c69.8,40.3,150.8,63.4,237.2,63.4
	c14.2,0,28.2-0.6,42-1.8C335.4,595.1,334.9,586.7,339.3,579.3z"/>
</svg>
