<?xml version="1.0" encoding="utf-8"?>
<!-- Generator: Adobe Illustrator 22.0.0, SVG Export Plug-In . SVG Version: 6.00 Build 0)  -->
<svg version="1.1" id="Layer_1" xmlns="http://www.w3.org/2000/svg" xmlns:xlink="http://www.w3.org/1999/xlink" x="0px" y="0px"
	 viewBox="0 0 650 650" style="enable-background:new 0 0 650 650;" xml:space="preserve">
<g>
	<circle cx="325" cy="195.9" r="151.7"/>
	<polygon points="324.4,602.7 304.2,544.1 324.4,324.4 346.1,544.8 	"/>
	<g>
		<path d="M227.4,390.4l9.1-32c-18.2-9.7-34.6-22.3-48.6-37.1C128.7,363.9,90.1,433.4,90.1,512c0,11.6,0.9,23,2.5,34.1
			c55.5,32.1,118.3,53,185.2,59.7L227.4,390.4z"/>
		<path d="M462.1,321.2c-14,14.9-30.4,27.4-48.6,37.1l9.1,32l-50.4,215.5c67-6.7,129.7-27.7,185.2-59.7c1.6-11.1,2.5-22.5,2.5-34.1
			C559.9,433.4,521.3,363.9,462.1,321.2z"/>
	</g>
</g>
</svg>
