<?xml version="1.0" encoding="utf-8"?>
<!-- Generator: Adobe Illustrator 22.0.0, SVG Export Plug-In . SVG Version: 6.00 Build 0)  -->
<svg version="1.1" id="Layer_1" xmlns="http://www.w3.org/2000/svg" xmlns:xlink="http://www.w3.org/1999/xlink" x="0px" y="0px"
	 viewBox="0 0 650 650" style="enable-background:new 0 0 650 650;" xml:space="preserve">
<circle cx="325" cy="270.1" r="134"/>
<path d="M446.1,380.9c-30.4,32.2-73.3,52.3-121.1,52.3c-47.7,0-90.7-20.1-121.1-52.3c-52.3,37.7-86.4,99.1-86.4,168.5
	c0,10.2,0.8,20.3,2.2,30.1c60.4,34.9,130.5,54.9,205.3,54.9s144.9-20,205.3-54.9c1.4-9.8,2.2-19.9,2.2-30.1
	C532.5,480,498.4,418.5,446.1,380.9z"/>
<rect x="203.8" y="119.4" width="242.5" height="124.1"/>
<polygon points="325,243.3 114.2,122.4 325,15.7 535.8,122.4 "/>
<polygon points="137.7,400.8 117.5,341.6 138.7,119.4 159.9,342.2 "/>
<circle cx="138.7" cy="169.1" r="18.4"/>
</svg>
