<?xml version="1.0" encoding="utf-8"?>
<!-- Generator: Adobe Illustrator 22.0.0, SVG Export Plug-In . SVG Version: 6.00 Build 0)  -->
<svg version="1.1" id="Layer_1" xmlns="http://www.w3.org/2000/svg" xmlns:xlink="http://www.w3.org/1999/xlink" x="0px" y="0px"
	 viewBox="0 0 1000 750" style="enable-background:new 0 0 1000 750;" xml:space="preserve">
<style type="text/css">
	.st0{fill:#D7EAC6;}
	
		.st1{opacity:0.2;fill:#232323;stroke:#232323;stroke-width:6;stroke-linecap:round;stroke-linejoin:round;stroke-miterlimit:10;enable-background:new    ;}
	.st2{fill:#DDD6E2;}
	.st3{fill:#C3BACE;}
	.st4{fill:none;stroke:#4D5382;stroke-width:4;stroke-linecap:round;stroke-linejoin:round;stroke-miterlimit:10;}
	.st5{fill:#797397;}
	.st6{fill:#686389;}
	.st7{fill:#4D5382;}
	.st8{fill:#62AF97;}
	.st9{fill:none;stroke:#4D5382;stroke-width:8;stroke-linecap:round;stroke-linejoin:round;stroke-miterlimit:10;}
	.st10{fill:none;stroke:#4D5382;stroke-width:6;stroke-linecap:round;stroke-linejoin:round;stroke-miterlimit:10;}
	.st11{fill:#B2CEDE;}
	.st12{fill:#C1CEE0;}
	.st13{opacity:0.69;fill:#F2F5F6;enable-background:new    ;}
	.st14{fill:#545B8A;}
	.st15{fill:none;stroke:#C3C8E5;stroke-width:3;stroke-linecap:round;stroke-linejoin:round;stroke-miterlimit:10;}
	.st16{fill:#E4E1EA;}
	.st17{fill:#DED7E3;}
	.st18{fill:#F7DA96;}
	.st19{fill:#E0BA77;}
	.st20{opacity:0.3;fill:#DED7E3;enable-background:new    ;}
</style>
<rect id="XMLID_28_" class="st0" width="1000" height="750"/>
<path id="XMLID_129_" class="st1" d="M701.3,70.4h-61.9c-10.6,0-19.4,8.7-19.4,19.4v21.3c0,10.6-8.7,19.4-19.4,19.4H399.3
	c-10.6,0-19.4-8.7-19.4-19.4V89.8c0-10.6-8.7-19.4-19.4-19.4h-61.9c-14.9,0-27.1,12.2-27.1,27.1V684c0,14.9,12.2,27.1,27.1,27.1
	h402.6c14.9,0,27.1-12.2,27.1-27.1V97.5C728.4,82.6,716.4,70.4,701.3,70.4z"/>
<g>
	<path id="XMLID_92_" class="st2" d="M593.5,62.1v-9.7c0-7.5-6-13.6-13.6-13.6h-81.3c-7.5,0-13.6,6-13.6,13.6v9.7
		c0,7.5-6,13.6-13.6,13.6l0,0c-7.5,0-13.6-6-13.6-13.6v-9.7c0-7.5-6-13.6-13.6-13.6h-27.1c-7.5,0-13.6,6-13.6,13.6v9.7
		c0,7.5-6,13.6-13.6,13.6h-24.4c-7.5,0-13.6,6-13.6,13.6v9.7h294.2v-9.7c0-7.5-6-13.6-13.6-13.6H607
		C599.7,75.6,593.5,69.6,593.5,62.1z"/>
	<path id="XMLID_147_" class="st3" d="M352.3,89.2v9.7h294.2v-9.7c0-2.9-1-5.6-2.5-7.7H354.8C353.3,83.6,352.3,86.3,352.3,89.2z"/>
	<path id="XMLID_13_" class="st4" d="M593.5,62.1v-9.7c0-7.5-6-13.6-13.6-13.6h-81.3c-7.5,0-13.6,6-13.6,13.6v9.7
		c0,7.5-6,13.6-13.6,13.6l0,0c-7.5,0-13.6-6-13.6-13.6v-9.7c0-7.5-6-13.6-13.6-13.6h-27.1c-7.5,0-13.6,6-13.6,13.6v9.7
		c0,7.5-6,13.6-13.6,13.6h-24.4c-7.5,0-13.6,6-13.6,13.6v9.7h294.2v-9.7c0-7.5-6-13.6-13.6-13.6H607
		C599.7,75.6,593.5,69.6,593.5,62.1z"/>
	<path id="XMLID_91_" class="st5" d="M701.3,38.9h-61.9c-10.6,0-19.4,8.7-19.4,19.4v21.3c0,10.6-8.7,19.4-19.4,19.4H399.3
		c-10.6,0-19.4-8.7-19.4-19.4V58.2c0-10.6-8.7-19.4-19.4-19.4h-61.9c-14.9,0-27.1,12.2-27.1,27.1v586.5c0,14.9,12.2,27.1,27.1,27.1
		h402.6c14.9,0,27.1-12.2,27.1-27.1V66C728.4,51.1,716.4,38.9,701.3,38.9z"/>
	<path id="XMLID_144_" class="st6" d="M701.3,38.9h-61.9c-10.6,0-19.4,8.7-19.4,19.4v21.3c0,10.6-8.7,19.4-19.4,19.4H399.3
		c-10.6,0-19.4-8.7-19.4-19.4V58.2c0-10.6-8.7-19.4-19.4-19.4h-61.9c-14.9,0-27.1,12.2-27.1,27.1v586.5c0,14.9,12.2,27.1,27.1,27.1
		h402.6c14.9,0,27.1-12.2,27.1-27.1V66C728.4,51.1,716.4,38.9,701.3,38.9z"/>
	<path id="XMLID_146_" class="st5" d="M298.7,662.2c-5.4,0-9.7-4.3-9.7-9.7V66c0-5.4,4.3-9.7,9.7-9.7h61.9c1.2,0,1.9,0.8,1.9,1.9
		v21.3c0,20.3,16.5,36.8,36.8,36.8h201.3c20.3,0,36.8-16.5,36.8-36.8V58.2c0-1.2,0.8-1.9,1.9-1.9h61.9c5.4,0,9.7,4.3,9.7,9.7v586.5
		c0,5.4-4.3,9.7-9.7,9.7H298.7z"/>
	<path id="XMLID_89_" class="st7" d="M340.1,555.7v-66.8l24-38.7c6.8-11,5.8-25-2.3-35c0,0,0-0.2-0.2-0.2
		c-25.6-31.6-39.5-71.2-39.5-111.9c0-98.1,79.9-178.1,178.1-178.1s178.1,79.9,178.1,178.1c0,40.7-14.1,80.3-39.5,111.9
		c0,0,0,0.2-0.2,0.2c-8.1,10.1-9.3,24-2.5,35l24,38.7v66.6c-12,12-19,19-31,31h-258C359.1,574.5,352.1,567.7,340.1,555.7z"/>
	<path id="XMLID_134_" class="st8" d="M548.4,472.5c-15.1,15.1-23.6,23.6-38.7,38.7v61.4h93.5c15.1-15.1,23.6-23.6,38.7-38.7v-61.4
		H548.4z"/>
	<path id="XMLID_93_" class="st9" d="M340.1,555.7v-66.8l24-38.7c6.8-11,5.8-25-2.3-35c0,0,0-0.2-0.2-0.2
		c-25.6-31.6-39.5-71.2-39.5-111.9c0-98.1,79.9-178.1,178.1-178.1s178.1,79.9,178.1,178.1c0,40.7-14.1,80.3-39.5,111.9
		c0,0,0,0.2-0.2,0.2c-8.1,10.1-9.3,24-2.5,35l24,38.7v66.6c-12,12-19,19-31,31h-258C359.1,574.5,352.1,567.7,340.1,555.7z"/>
	<path id="XMLID_11_" class="st10" d="M701.3,38.9h-61.9c-10.6,0-19.4,8.7-19.4,19.4v21.3c0,10.6-8.7,19.4-19.4,19.4H399.3
		c-10.6,0-19.4-8.7-19.4-19.4V58.2c0-10.6-8.7-19.4-19.4-19.4h-61.9c-14.9,0-27.1,12.2-27.1,27.1v586.5c0,14.9,12.2,27.1,27.1,27.1
		h402.6c14.9,0,27.1-12.2,27.1-27.1V66C728.4,51.1,716.4,38.9,701.3,38.9z"/>
	<g id="XMLID_9_">
		<g id="XMLID_26_">
			<line id="XMLID_29_" class="st4" x1="438.8" y1="38.9" x2="438.8" y2="69.8"/>
		</g>
		<g id="XMLID_22_">
			<line id="XMLID_25_" class="st4" x1="421.4" y1="38.9" x2="421.4" y2="69.8"/>
		</g>
	</g>
	<g id="XMLID_10_">
		<g id="XMLID_23_">
			<line id="XMLID_24_" class="st4" x1="572.6" y1="38.9" x2="572.6" y2="69.8"/>
		</g>
		<g id="XMLID_19_">
			<line id="XMLID_20_" class="st4" x1="555.2" y1="38.9" x2="555.2" y2="69.8"/>
		</g>
		<g id="XMLID_17_">
			<line id="XMLID_18_" class="st4" x1="537.7" y1="38.9" x2="537.7" y2="69.8"/>
		</g>
		<g id="XMLID_15_">
			<line id="XMLID_16_" class="st4" x1="520.3" y1="38.9" x2="520.3" y2="69.8"/>
		</g>
		<g id="XMLID_12_">
			<line id="XMLID_14_" class="st4" x1="502.9" y1="38.9" x2="502.9" y2="69.8"/>
		</g>
	</g>
	<circle id="XMLID_94_" class="st11" cx="500" cy="303.1" r="154.9"/>
	<circle id="XMLID_127_" class="st12" cx="500" cy="303.1" r="154.9"/>
	<path id="XMLID_142_" class="st13" d="M585.2,180.7L349,346.1c4.5,18,12,35.2,22.3,50.5l253.8-177.5
		C614.2,204.2,600.9,191.2,585.2,180.7z"/>
	<path id="XMLID_140_" class="st13" d="M405.1,432.6l242-169.4c-2.7-8.9-6.4-17.4-10.6-25.6L384.8,413.8
		C391,420.6,397.8,427,405.1,432.6z"/>
	<circle id="XMLID_122_" class="st7" cx="500" cy="303.1" r="48.6"/>
	
		<ellipse id="XMLID_123_" transform="matrix(0.1602 -0.9871 0.9871 0.1602 120.736 748.0811)" class="st14" cx="500" cy="303.1" rx="21.3" ry="21.3"/>
	<circle id="XMLID_7_" class="st10" cx="500" cy="303.1" r="154.9"/>
	<line id="XMLID_36_" class="st15" x1="575.5" y1="483.1" x2="575.5" y2="500.5"/>
	<line id="XMLID_37_" class="st15" x1="584.8" y1="483.1" x2="584.8" y2="500.5"/>
	<line id="XMLID_38_" class="st15" x1="593.9" y1="483.1" x2="593.9" y2="500.5"/>
	<line id="XMLID_44_" class="st15" x1="575.5" y1="537.9" x2="575.5" y2="555.1"/>
	<line id="XMLID_43_" class="st15" x1="584.8" y1="537.9" x2="584.8" y2="555.1"/>
	<line id="XMLID_42_" class="st15" x1="593.9" y1="537.9" x2="593.9" y2="555.1"/>
	<line id="XMLID_41_" class="st15" x1="620.6" y1="510" x2="603.2" y2="510"/>
	<line id="XMLID_40_" class="st15" x1="620.6" y1="519.1" x2="603.2" y2="519.1"/>
	<line id="XMLID_39_" class="st15" x1="620.6" y1="528.2" x2="603.2" y2="528.2"/>
	<line id="XMLID_47_" class="st15" x1="566" y1="510" x2="548.6" y2="510"/>
	<line id="XMLID_46_" class="st15" x1="566" y1="519.1" x2="548.6" y2="519.1"/>
	<line id="XMLID_45_" class="st15" x1="566" y1="528.2" x2="548.6" y2="528.2"/>
	<path id="XMLID_30_" class="st3" d="M452.6,485H342.4l-2.5,4.1v66.6c12,12,19,19,31,31h81.5V485H452.6z"/>
	<polygon id="XMLID_141_" class="st16" points="375.9,575.1 351.7,550.9 351.7,485 452.6,485 452.6,575.1 	"/>
	<path id="XMLID_90_" class="st4" d="M452.6,485H342.4l-2.5,4.1v66.6c12,12,19,19,31,31h81.5V485H452.6z"/>
	<g id="XMLID_98_">
		<circle id="XMLID_95_" class="st17" cx="321.9" cy="125" r="15.5"/>
		<circle id="XMLID_27_" class="st4" cx="321.9" cy="125" r="15.5"/>
		<line id="XMLID_97_" class="st4" x1="315.7" y1="125" x2="327.7" y2="125"/>
		<line id="XMLID_96_" class="st4" x1="321.7" y1="119" x2="321.7" y2="131"/>
	</g>
	<g id="XMLID_100_">
		<circle id="XMLID_104_" class="st17" cx="678.1" cy="125" r="15.5"/>
		<circle id="XMLID_103_" class="st4" cx="678.1" cy="125" r="15.5"/>
		<line id="XMLID_102_" class="st4" x1="671.9" y1="125" x2="683.9" y2="125"/>
		<line id="XMLID_101_" class="st4" x1="677.9" y1="119" x2="677.9" y2="131"/>
	</g>
	<g id="XMLID_99_">
		<circle id="XMLID_108_" class="st17" cx="678.1" cy="430.8" r="15.5"/>
		<circle id="XMLID_107_" class="st4" cx="678.1" cy="430.8" r="15.5"/>
		<line id="XMLID_106_" class="st4" x1="671.9" y1="430.8" x2="683.9" y2="430.8"/>
		<line id="XMLID_105_" class="st4" x1="677.9" y1="424.8" x2="677.9" y2="436.8"/>
	</g>
	<g id="XMLID_33_">
		<circle id="XMLID_112_" class="st17" cx="678.1" cy="619" r="15.5"/>
		<circle id="XMLID_111_" class="st4" cx="678.1" cy="619" r="15.5"/>
		<line id="XMLID_110_" class="st4" x1="671.9" y1="619" x2="683.9" y2="619"/>
		<line id="XMLID_109_" class="st4" x1="677.9" y1="612.8" x2="677.9" y2="625"/>
	</g>
	<g id="XMLID_32_">
		<circle id="XMLID_116_" class="st17" cx="321.9" cy="619" r="15.5"/>
		<circle id="XMLID_115_" class="st4" cx="321.9" cy="619" r="15.5"/>
		<line id="XMLID_114_" class="st4" x1="315.7" y1="619" x2="327.7" y2="619"/>
		<line id="XMLID_113_" class="st4" x1="321.7" y1="612.8" x2="321.7" y2="625"/>
	</g>
	<g id="XMLID_34_">
		<circle id="XMLID_120_" class="st17" cx="321.9" cy="430.8" r="15.5"/>
		<circle id="XMLID_119_" class="st4" cx="321.9" cy="430.8" r="15.5"/>
		<line id="XMLID_118_" class="st4" x1="315.7" y1="430.8" x2="327.7" y2="430.8"/>
		<line id="XMLID_117_" class="st4" x1="321.7" y1="424.8" x2="321.7" y2="436.8"/>
	</g>
	<path id="XMLID_88_" class="st18" d="M579.6,352.8L429.2,546.4c-11.4,14.7-33.1,16.6-47,4.1l0,0c-13.7-12.6-13.9-34.3-0.4-47
		l178.7-167.8c4.8-4.6,12.6-4.6,17.6-0.2l0,0C583,339.9,583.8,347.6,579.6,352.8z"/>
	<path id="XMLID_151_" class="st19" d="M578.2,335.4c-1.7-1.7-4.1-2.7-6.2-3.1c1.4,4.1,0.8,8.5-2.1,12L419.5,537.9
		c-10.1,12.8-27.7,15.9-41.2,8.3c1.2,1.5,2.5,3.1,3.9,4.5l0,0c13.7,12.6,35.4,10.6,47-4.1L579.6,353
		C583.8,347.6,583,339.9,578.2,335.4z"/>
	<path id="XMLID_21_" class="st4" d="M579.6,352.8L429.2,546.4c-11.4,14.7-33.1,16.6-47,4.1l0,0c-13.7-12.6-13.9-34.3-0.4-47
		l178.7-167.8c4.8-4.6,12.6-4.6,17.6-0.2l0,0C583,339.9,583.8,347.6,579.6,352.8z"/>
	<path id="XMLID_121_" class="st14" d="M606.1,546.4h-43c-3.3,0-5.8-2.5-5.8-5.8v-43c0-3.3,2.5-5.8,5.8-5.8h43
		c3.3,0,5.8,2.5,5.8,5.8v43C611.9,543.9,609.4,546.4,606.1,546.4z"/>
	<path id="XMLID_31_" class="st4" d="M606.1,546.4h-43c-3.3,0-5.8-2.5-5.8-5.8v-43c0-3.3,2.5-5.8,5.8-5.8h43c3.3,0,5.8,2.5,5.8,5.8
		v43C611.9,543.9,609.4,546.4,606.1,546.4z"/>
	<circle id="XMLID_124_" class="st7" cx="404" cy="525.5" r="15.5"/>
	<circle id="XMLID_125_" class="st14" cx="404" cy="525.5" r="9.5"/>
	<circle id="XMLID_131_" class="st4" cx="356.4" cy="505.2" r="4.6"/>
	<circle id="XMLID_138_" class="st4" cx="431.9" cy="567.7" r="4.6"/>
	<circle id="XMLID_128_" class="st20" cx="500" cy="270.4" r="5.4"/>
	<circle id="XMLID_133_" class="st20" cx="500" cy="335.8" r="5.4"/>
	<circle id="XMLID_143_" class="st20" cx="532.7" cy="303.1" r="5.4"/>
	<circle id="XMLID_132_" class="st20" cx="467.3" cy="303.1" r="5.4"/>
</g>
</svg>
