<?xml version="1.0" encoding="utf-8"?>
<!-- Generator: Adobe Illustrator 22.0.0, SVG Export Plug-In . SVG Version: 6.00 Build 0)  -->
<svg version="1.1" id="Layer_1" xmlns="http://www.w3.org/2000/svg" xmlns:xlink="http://www.w3.org/1999/xlink" x="0px" y="0px"
	 viewBox="0 0 1000 750" style="enable-background:new 0 0 1000 750;" xml:space="preserve">
<style type="text/css">
	.st0{fill:#ADDABF;}
	.st1{opacity:0.6;}
	.st2{fill:none;stroke:#434343;stroke-width:6;stroke-miterlimit:10;}
	.st3{fill:#434343;stroke:#434343;stroke-width:6;stroke-miterlimit:10;}
	.st4{fill:#FFFFFF;}
	.st5{fill:#D8D9D8;}
	.st6{fill:none;stroke:#133C4F;stroke-width:4;stroke-linecap:round;stroke-linejoin:round;stroke-miterlimit:10;}
	.st7{fill:#B94F9D;}
	.st8{fill:#70C171;}
	.st9{fill:#133C4F;}
	.st10{fill:#708799;}
	.st11{fill:#D9BB95;}
	.st12{fill:#D6DAE2;}
	.st13{fill:none;stroke:#133C4F;stroke-width:4;stroke-miterlimit:10;}
	.st14{fill:#F48062;}
	.st15{fill:#FDBA24;}
	.st16{fill:#71C170;}
	.st17{fill:#EE244E;}
	.st18{fill:#CE7867;}
	.st19{fill:#9153A1;}
	.st20{fill:#F2C517;}
	.st21{fill:none;stroke:#133C4F;stroke-width:6;stroke-linecap:round;stroke-linejoin:round;stroke-miterlimit:10;}
</style>
<rect id="XMLID_36_" class="st0" width="1000" height="750"/>
<g id="XMLID_1_">
	<g id="XMLID_52_" class="st1">
		<g id="XMLID_240_">
			<g id="XMLID_242_">
				<g id="XMLID_251_">
					<polygon id="XMLID_252_" class="st2" points="714.8,300.9 687.9,254.3 714.8,207.8 768.5,207.8 795.4,254.3 768.5,300.9 					
						"/>
				</g>
			</g>
		</g>
		<g id="XMLID_216_">
			<g id="XMLID_223_">
				<g id="XMLID_230_">
					<polygon id="XMLID_231_" class="st3" points="621.7,247.2 594.8,200.6 621.7,154.1 675.4,154.1 702.3,200.6 675.4,247.2 					
						"/>
				</g>
				<g id="XMLID_228_">
					<polygon id="XMLID_229_" class="st2" points="621.7,139.7 594.8,93.2 621.7,46.6 675.4,46.6 702.3,93.2 675.4,139.7 					"/>
				</g>
			</g>
			<g id="XMLID_217_">
				<g id="XMLID_218_">
					<polygon id="XMLID_219_" class="st3" points="528.5,193.5 501.7,146.9 528.5,100.3 582.3,100.3 609.1,146.9 582.3,193.5 					
						"/>
				</g>
			</g>
		</g>
		<g id="XMLID_205_">
			<g id="XMLID_209_">
				<g id="XMLID_212_">
					<polygon id="XMLID_213_" class="st2" points="435.4,247.2 408.5,200.6 435.4,154.1 489.1,154.1 516,200.6 489.1,247.2 					"/>
				</g>
			</g>
		</g>
		<g id="XMLID_194_">
			<g id="XMLID_196_">
				<g id="XMLID_199_">
					<polygon id="XMLID_200_" class="st3" points="249.2,247.2 222.3,200.6 249.2,154.1 302.9,154.1 329.7,200.6 302.9,247.2 					
						"/>
				</g>
			</g>
		</g>
	</g>
	<g id="XMLID_3_" class="st1">
		<g id="XMLID_138_">
			<g id="XMLID_189_">
				<g id="XMLID_190_">
					<polygon id="XMLID_191_" class="st2" points="621.7,354.2 594.8,307.7 621.7,261.1 675.4,261.1 702.3,307.7 675.4,354.2 					
						"/>
				</g>
			</g>
			<g id="XMLID_141_">
				<g id="XMLID_183_">
					<polygon id="XMLID_187_" class="st2" points="528.5,515.4 501.7,468.8 528.5,422.3 582.3,422.3 609.1,468.8 582.3,515.4 					
						"/>
				</g>
			</g>
		</g>
	</g>
</g>
<g>
	<path id="XMLID_116_" class="st4" d="M738.9,638L738.9,638c-10.5,0-19-8.5-19-19V470h38v149C757.9,629.5,749.4,638,738.9,638z"/>
	<path id="XMLID_114_" class="st5" d="M760.9,454h-44c-4.4,0-8,3.6-8,8l0,0c0,4.4,3.6,8,8,8h44c4.4,0,8-3.6,8-8l0,0
		C768.9,457.6,765.3,454,760.9,454z"/>
	<path id="XMLID_25_" class="st6" d="M738.9,638L738.9,638c-10.5,0-19-8.5-19-19V470h38v149C757.9,629.5,749.4,638,738.9,638z"/>
	<path id="XMLID_24_" class="st6" d="M760.9,454h-44c-4.4,0-8,3.6-8,8l0,0c0,4.4,3.6,8,8,8h44c4.4,0,8-3.6,8-8l0,0
		C768.9,457.6,765.3,454,760.9,454z"/>
	<path id="XMLID_113_" class="st7" d="M728.9,565v54c0,5.5,4.5,10,10,10s10-4.5,10-10v-54H728.9z"/>
	<path id="XMLID_107_" class="st6" d="M728.9,565v54c0,5.5,4.5,10,10,10s10-4.5,10-10v-54H728.9z"/>
	<circle id="XMLID_143_" class="st7" cx="719.9" cy="414.3" r="3.8"/>
	<circle id="XMLID_145_" class="st7" cx="733.8" cy="431.8" r="3.2"/>
	<circle id="XMLID_148_" class="st7" cx="750.4" cy="382.3" r="7.2"/>
	<circle id="XMLID_149_" class="st7" cx="746.2" cy="411.9" r="6.2"/>
	<circle id="XMLID_129_" class="st6" cx="719.9" cy="414.3" r="3.8"/>
	<circle id="XMLID_128_" class="st6" cx="733.8" cy="431.8" r="3.2"/>
	<circle id="XMLID_127_" class="st6" cx="731.9" cy="398.5" r="2.1"/>
	<circle id="XMLID_119_" class="st6" cx="750.4" cy="382.3" r="7.2"/>
	<circle id="XMLID_117_" class="st6" cx="746.2" cy="411.9" r="6.2"/>
	<circle id="XMLID_140_" class="st7" cx="735.4" cy="525.4" r="7.2"/>
	<circle id="XMLID_134_" class="st6" cx="735.4" cy="525.4" r="7.2"/>
	<circle id="XMLID_153_" class="st7" cx="741.6" cy="550.1" r="3.1"/>
	<circle id="XMLID_151_" class="st6" cx="741.6" cy="550.1" r="3.1"/>
	<circle id="XMLID_165_" class="st7" cx="745.7" cy="484" r="4.3"/>
	<circle id="XMLID_162_" class="st6" cx="745.7" cy="484" r="4.3"/>
	<circle id="XMLID_169_" class="st8" cx="730.6" cy="477.3" r="1.6"/>
	<circle id="XMLID_167_" class="st6" cx="730.6" cy="477.3" r="1.6"/>
	<circle id="XMLID_160_" class="st9" cx="740.1" cy="580.6" r="1.6"/>
	<circle id="XMLID_156_" class="st9" cx="731.5" cy="597.4" r="2.6"/>
	<circle id="XMLID_158_" class="st9" cx="743.2" cy="610.4" r="3.8"/>
	<circle id="XMLID_159_" class="st9" cx="737.6" cy="575.9" r="0.6"/>
</g>
<path id="XMLID_76_" class="st4" d="M573.4,505c-2.2,0-4-1.8-4-4V306.5c0-16.3-13.2-29.5-29.5-29.5s-29.5,13.2-29.5,29.5v44.2
	c0,37.1-30.2,67.3-67.3,67.3s-67.3-30.2-67.3-67.3v-95.6c0-22.6-18.4-41-41-41s-41,18.4-41,41V296c0,2.2-1.8,4-4,4s-4-1.8-4-4v-40.9
	c0-27,22-49,49-49s49,22,49,49v95.6c0,32.7,26.6,59.3,59.3,59.3s59.3-26.6,59.3-59.3v-44.2c0-20.7,16.8-37.5,37.5-37.5
	s37.5,16.8,37.5,37.5V501C577.4,503.2,575.6,505,573.4,505z"/>
<path id="XMLID_33_" class="st6" d="M573.4,505c-2.2,0-4-1.8-4-4V306.5c0-16.3-13.2-29.5-29.5-29.5s-29.5,13.2-29.5,29.5v44.2
	c0,37.1-30.2,67.3-67.3,67.3s-67.3-30.2-67.3-67.3v-95.6c0-22.6-18.4-41-41-41s-41,18.4-41,41V296c0,2.2-1.8,4-4,4s-4-1.8-4-4v-40.9
	c0-27,22-49,49-49s49,22,49,49v95.6c0,32.7,26.6,59.3,59.3,59.3s59.3-26.6,59.3-59.3v-44.2c0-20.7,16.8-37.5,37.5-37.5
	s37.5,16.8,37.5,37.5V501C577.4,503.2,575.6,505,573.4,505z"/>
<path id="XMLID_38_" class="st4" d="M435.7,671h-20V101c0-5.5,4.5-10,10-10l0,0c5.5,0,10,4.5,10,10V671z"/>
<path id="XMLID_8_" class="st6" d="M435.7,671h-20V101c0-5.5,4.5-10,10-10l0,0c5.5,0,10,4.5,10,10V671z"/>
<path id="XMLID_49_" class="st10" d="M470.6,346.6h-27.8v-10h27.8c2.8,0,5,2.2,5,5l0,0C475.6,344.3,473.3,346.6,470.6,346.6z"/>
<path id="XMLID_14_" class="st6" d="M470.6,346.6h-27.8v-10h27.8c2.8,0,5,2.2,5,5l0,0C475.6,344.3,473.3,346.6,470.6,346.6z"/>
<g>
	<rect id="XMLID_109_" x="500.1" y="654" class="st11" width="320" height="17"/>
	<rect id="XMLID_18_" x="500.1" y="654" class="st6" width="320" height="17"/>
</g>
<rect id="XMLID_106_" x="516.3" y="504" class="st12" width="10" height="150"/>
<rect id="XMLID_20_" x="516.3" y="504" class="st6" width="10" height="150"/>
<rect id="XMLID_108_" x="794" y="504" class="st12" width="10" height="150"/>
<rect id="XMLID_27_" x="794" y="504" class="st6" width="10" height="150"/>
<path id="XMLID_34_" class="st13" d="M285.2,560.1c0,0-0.4-9.3-2-13.7c4.7,2.1,9.1,11.7,9.1,11.7L285.2,560.1z"/>
<rect id="XMLID_51_" x="352.1" y="649" class="st10" width="123.5" height="22"/>
<rect id="XMLID_35_" x="352.1" y="649" class="st6" width="123.5" height="22"/>
<g>
	<path id="XMLID_64_" class="st4" d="M321.9,623.9l-21.3-3.6v-16.1h8.5c3.4,0,6.4-2.6,6.5-6c0.1-3.5-2.7-6.4-6.2-6.4h-38.9
		c-3.4,0-6.4,2.6-6.5,6c-0.1,3.5,2.7,6.4,6.2,6.4h8.8v16.1l-21.3,3.6c-4.8,0.8-8.1,5.4-7.3,10.3l5.2,28.8c0.8,4.7,4.9,8.1,9.7,8.1
		h49.2c4.7,0,8.8-3.4,9.7-8.1l5.2-28.8C330,629.3,326.8,624.7,321.9,623.9z"/>
	<path id="XMLID_32_" class="st6" d="M321.9,623.9l-21.3-3.6v-16.1h8.5c3.4,0,6.4-2.6,6.5-6c0.1-3.5-2.7-6.4-6.2-6.4h-38.9
		c-3.4,0-6.4,2.6-6.5,6c-0.1,3.5,2.7,6.4,6.2,6.4h8.8v16.1l-21.3,3.6c-4.8,0.8-8.1,5.4-7.3,10.3l5.2,28.8c0.8,4.7,4.9,8.1,9.7,8.1
		h49.2c4.7,0,8.8-3.4,9.7-8.1l5.2-28.8C330,629.3,326.8,624.7,321.9,623.9z"/>
	<path id="XMLID_65_" class="st14" d="M305.6,566c-4.1-13.2-12.3-20.4-15.8-24c-1.9,15-17.6,19.7-16,33.8
		c1.3,11.5,12.3,15,17.7,14.1C302.8,588,308.8,576.2,305.6,566z"/>
	<path id="XMLID_31_" class="st13" d="M305.6,566c-4.1-13.2-12.3-20.4-15.8-24c-1.9,15-17.6,19.7-16,33.8
		c1.3,11.5,12.3,15,17.7,14.1C302.8,588,308.8,576.2,305.6,566z"/>
	<path id="XMLID_66_" class="st15" d="M296.5,576.2c-1.6-7.1-5-10.7-6.8-12.6c-1,7.9-9.2,10.3-8.4,17.7c0.7,6.1,6.5,7.9,9.3,7.4
		C296.5,587.7,297.4,580.3,296.5,576.2z"/>
	<path id="XMLID_30_" class="st13" d="M297.4,575.1c-1.6-6.7-5.9-9.7-7.7-11.6c-1,7.9-9.2,10.3-8.4,17.7c0.7,6.1,6.5,7.9,9.3,7.4
		C296.5,587.7,298.4,579.3,297.4,575.1z"/>
	<path id="XMLID_67_" class="st16" d="M261.4,639.3l3.4,18.8c0.3,1.6,1.7,2.8,3.4,2.8h43.1c1.7,0,3.1-1.2,3.4-2.8l3.4-18.8H261.4z"
		/>
	<path id="XMLID_70_" class="st6" d="M261.4,639.3l3.4,18.8c0.3,1.6,1.7,2.8,3.4,2.8h43.1c1.7,0,3.1-1.2,3.4-2.8l3.4-18.8H261.4z"/>
	<line id="XMLID_69_" class="st6" x1="289.8" y1="591.8" x2="289.8" y2="652"/>
</g>
<g>
	<path id="XMLID_12_" class="st4" d="M306.8,366.1v-58h-34v58c0,3.2-2,6-5,7c-28.5,9.4-48.9,36.6-48,68.5c1,37,31.3,67.1,68.3,68
		c39.4,0.9,71.7-30.8,71.7-70c0-30.9-20.1-57.2-47.9-66.4C308.8,372,306.8,369.2,306.8,366.1z"/>
	<path id="XMLID_43_" class="st6" d="M306.8,366.1v-58h-34v58c0,3.2-2,6-5,7c-28.5,9.4-48.9,36.6-48,68.5c1,37,31.3,67.1,68.3,68
		c39.4,0.9,71.7-30.8,71.7-70c0-30.9-20.1-57.2-47.9-66.4C308.8,372,306.8,369.2,306.8,366.1z"/>
	<path id="XMLID_45_" class="st17" d="M347.3,422.5L347.3,422.5c-1.4-6.1-6.8-10.6-13.2-10.6c-3.1,0-6,1.1-8.3,2.9
		c-1.6-1.1-3.5-1.8-5.6-1.8c-2,0-3.9,0.6-5.4,1.7c0-0.3,0-0.5,0-0.8c0-5.3-4.3-9.5-9.5-9.5c-1.5,0-2.9,0.4-4.2,1
		c-3.3-4.9-8.9-8.1-15.3-8.1c-10.2,0-18.5,8.3-18.5,18.5c0,2.4,1.3,6.8,1.3,6.8c0-0.3,0,0,0-0.3c0-6.1-6.3-11.6-12.3-11.6
		s-11,4.9-11,11c0,0.3,0,0.6,0,0.8h-13.1c-1.7,5.9-2.6,12.2-2.4,18.7c0.4,15.3,6.7,29.8,17.7,40.7c11,10.9,25.5,17.2,40.8,17.5
		c0.5,0,1,0,1.5,0l0,0c16,0,31.1-6.2,42.4-17.6c11.3-11.3,17.6-26.4,17.6-42.4C349.8,433.6,348.9,427.9,347.3,422.5z"/>
	<path id="XMLID_60_" class="st6" d="M347.3,422.5L347.3,422.5c-1.4-6.1-6.8-10.6-13.2-10.6c-3.1,0-6,1.1-8.3,2.9
		c-1.6-1.1-3.5-1.8-5.6-1.8c-2,0-3.9,0.6-5.4,1.7c0-0.3,0-0.5,0-0.8c0-5.3-4.3-9.5-9.5-9.5c-1.5,0-2.9,0.4-4.2,1
		c-3.3-4.9-8.9-8.1-15.3-8.1c-10.2,0-18.5,8.3-18.5,18.5c0,2.4,1.3,6.8,1.3,6.8c0-0.3,0,0,0-0.3c0-6.1-6.3-11.6-12.3-11.6
		s-11,4.9-11,11c0,0.3,0,0.6,0,0.8h-13.1c-1.7,5.9-2.6,12.2-2.4,18.7c0.4,15.3,6.7,29.8,17.7,40.7c11,10.9,25.5,17.2,40.8,17.5
		c0.5,0,1,0,1.5,0l0,0c16,0,31.1-6.2,42.4-17.6c11.3-11.3,17.6-26.4,17.6-42.4C349.8,433.6,348.9,427.9,347.3,422.5z"/>
	<path id="XMLID_41_" class="st6" d="M247.2,427.8c-1.2-1.8-1.9-3.9-1.9-6.2c0-6.1,4.9-11,11-11c6.1,0,12.3,3,12.3,11"/>
	<path id="XMLID_44_" class="st6" d="M267.4,418.2c-0.1-0.8-0.2-1.7-0.2-2.5c0-10.2,8.3-18.5,18.5-18.5c6.4,0,12,3.2,15.3,8.1"/>
	<path id="XMLID_47_" class="st6" d="M296.2,410.7c0.8-2.4,2.6-4.3,4.8-5.4"/>
	<path id="XMLID_50_" class="st6" d="M301.1,405.3c1.3-0.6,2.7-1,4.2-1c5.3,0,9.5,4.3,9.5,9.5"/>
	<path id="XMLID_53_" class="st6" d="M316.2,413.8c1.2-0.6,2.6-0.9,4-0.9c2.1,0,4,0.7,5.6,1.8"/>
	<path id="XMLID_59_" class="st6" d="M320.5,425.5c0-4.4,2-8.2,5.2-10.7"/>
	<path id="XMLID_56_" class="st6" d="M325.8,414.8c2.3-1.8,5.2-2.9,8.3-2.9c6.5,0,11.9,4.5,13.2,10.6"/>
	<rect id="XMLID_63_" x="280.4" y="281" class="st18" width="18.7" height="35.5"/>
	<rect id="XMLID_62_" x="280.4" y="281" class="st6" width="18.7" height="35.5"/>
	<path id="XMLID_13_" class="st5" d="M310.8,308h-42c-4.4,0-8-3.6-8-8l0,0c0-4.4,3.6-8,8-8h42c4.4,0,8,3.6,8,8l0,0
		C318.8,304.5,315.2,308,310.8,308z"/>
	<path id="XMLID_15_" class="st6" d="M310.8,308h-42c-4.4,0-8-3.6-8-8l0,0c0-4.4,3.6-8,8-8h42c4.4,0,8,3.6,8,8l0,0
		C318.8,304.5,315.2,308,310.8,308z"/>
	<circle id="XMLID_71_" class="st17" cx="289.8" cy="371.8" r="7.5"/>
	<circle id="XMLID_68_" class="st13" cx="289.8" cy="371.8" r="7.5"/>
	<circle id="XMLID_72_" class="st17" cx="313.3" cy="397" r="4"/>
	<circle id="XMLID_73_" class="st6" cx="313.3" cy="397" r="4"/>
	<circle id="XMLID_74_" class="st6" cx="272.8" cy="388.6" r="1.7"/>
	<circle id="XMLID_75_" class="st9" cx="272.5" cy="451.3" r="4"/>
	<circle id="XMLID_78_" class="st9" cx="293.7" cy="471.6" r="6.4"/>
	<circle id="XMLID_82_" class="st9" cx="316.2" cy="453.7" r="2.3"/>
	<circle id="XMLID_81_" class="st9" cx="296.2" cy="435.7" r="1.6"/>
</g>
<rect id="XMLID_87_" x="408.7" y="324.6" class="st10" width="34" height="34"/>
<rect id="XMLID_9_" x="408.7" y="324.6" class="st6" width="34" height="34"/>
<g id="XMLID_90_">
	<path id="XMLID_92_" class="st4" d="M589.5,555c-2.2,0-4-1.8-4-4V421.3c0-21.7,17.6-39.3,39.3-39.3s39.3,17.6,39.3,39.3v90.2
		c0,2.2-1.8,4-4,4s-4-1.8-4-4v-90.2c0-17.3-14-31.3-31.3-31.3s-31.3,14-31.3,31.3V551C593.5,553.2,591.7,555,589.5,555z"/>
</g>
<g id="XMLID_89_">
	<path id="XMLID_91_" class="st6" d="M589.5,555c-2.2,0-4-1.8-4-4V421.3c0-21.7,17.6-39.3,39.3-39.3s39.3,17.6,39.3,39.3v90.2
		c0,2.2-1.8,4-4,4s-4-1.8-4-4v-90.2c0-17.3-14-31.3-31.3-31.3s-31.3,14-31.3,31.3V551C593.5,553.2,591.7,555,589.5,555z"/>
</g>
<g>
	<path id="XMLID_110_" class="st4" d="M660.1,638L660.1,638c-10.5,0-19-8.5-19-19V470h38v149C679.1,629.5,670.6,638,660.1,638z"/>
	<path id="XMLID_22_" class="st6" d="M660.1,638L660.1,638c-10.5,0-19-8.5-19-19V470h38v149C679.1,629.5,670.6,638,660.1,638z"/>
	<rect id="XMLID_112_" x="644.4" y="434.3" class="st18" width="31.5" height="35.7"/>
	<rect id="XMLID_111_" x="644.4" y="434.3" class="st6" width="31.5" height="35.7"/>
	<path id="XMLID_28_" class="st5" d="M682.1,454h-44c-4.4,0-8,3.6-8,8l0,0c0,4.4,3.6,8,8,8h44c4.4,0,8-3.6,8-8l0,0
		C690.1,457.6,686.5,454,682.1,454z"/>
	<path id="XMLID_21_" class="st6" d="M682.1,454h-44c-4.4,0-8,3.6-8,8l0,0c0,4.4,3.6,8,8,8h44c4.4,0,8-3.6,8-8l0,0
		C690.1,457.6,686.5,454,682.1,454z"/>
	<path id="XMLID_104_" class="st19" d="M650.1,588.2V619c0,5.5,4.5,10,10,10s10-4.5,10-10v-30.8H650.1z"/>
	<path id="XMLID_125_" class="st6" d="M650.1,588.2V619c0,5.5,4.5,10,10,10s10-4.5,10-10v-30.8H650.1z"/>
	<circle id="XMLID_48_" class="st19" cx="656.8" cy="562" r="3"/>
	<circle id="XMLID_46_" class="st6" cx="656.8" cy="562" r="3"/>
	<circle id="XMLID_122_" class="st19" cx="661.8" cy="531.8" r="5"/>
	<circle id="XMLID_137_" class="st6" cx="661.8" cy="531.8" r="5"/>
	<circle id="XMLID_147_" class="st19" cx="662.4" cy="577" r="2"/>
	<circle id="XMLID_144_" class="st6" cx="662.4" cy="577" r="2"/>
	<circle id="XMLID_139_" class="st9" cx="658.5" cy="610.4" r="1.8"/>
	<circle id="XMLID_142_" class="st9" cx="659.5" cy="600.2" r="2.9"/>
</g>
<g>
	<rect id="XMLID_94_" x="565.6" y="434.3" class="st18" width="31.5" height="35.7"/>
	<rect id="XMLID_93_" x="565.6" y="434.3" class="st6" width="31.5" height="35.7"/>
	<path id="XMLID_96_" class="st5" d="M603.4,454h-44c-4.4,0-8,3.6-8,8l0,0c0,4.4,3.6,8,8,8h44c4.4,0,8-3.6,8-8l0,0
		C611.4,457.6,607.8,454,603.4,454z"/>
	<path id="XMLID_19_" class="st6" d="M603.4,454h-44c-4.4,0-8,3.6-8,8l0,0c0,4.4,3.6,8,8,8h44c4.4,0,8-3.6,8-8l0,0
		C611.4,457.6,607.8,454,603.4,454z"/>
	<path id="XMLID_26_" class="st4" d="M581.4,638L581.4,638c-10.5,0-19-8.5-19-19V470h38v149C600.4,629.5,591.9,638,581.4,638z"/>
	<path id="XMLID_17_" class="st6" d="M581.4,638L581.4,638c-10.5,0-19-8.5-19-19V470h38v149C600.4,629.5,591.9,638,581.4,638z"/>
	<path id="XMLID_29_" class="st20" d="M571.4,539.3V619c0,5.5,4.5,10,10,10s10-4.5,10-10v-79.7H571.4z"/>
	<path id="XMLID_115_" class="st6" d="M571.4,539.3V619c0,5.5,4.5,10,10,10s10-4.5,10-10v-79.7H571.4z"/>
	<circle id="XMLID_171_" class="st9" cx="578.5" cy="575" r="2.9"/>
	<circle id="XMLID_174_" class="st9" cx="577.4" cy="523.3" r="1.9"/>
	<circle id="XMLID_173_" class="st9" cx="584.3" cy="551.1" r="1.2"/>
	<circle id="XMLID_172_" class="st9" cx="584.3" cy="594.5" r="1.2"/>
</g>
<rect id="XMLID_101_" x="500.1" y="496" class="st11" width="320" height="8"/>
<rect id="XMLID_16_" x="500.1" y="496" class="st6" width="320" height="8"/>
<rect id="XMLID_98_" x="371.1" y="263.4" class="st18" width="17.2" height="88.2"/>
<rect id="XMLID_95_" x="371.1" y="263.4" class="st6" width="17.2" height="88.2"/>
<rect id="XMLID_39_" x="325.5" y="336.6" class="st10" width="83.2" height="10"/>
<rect id="XMLID_10_" x="325.5" y="336.6" class="st6" width="83.2" height="10"/>
<path id="XMLID_40_" class="st10" d="M259.8,354.6h60c7.2,0,13-5.8,13-13l0,0c0-7.2-5.8-13-13-13h-60c-7.2,0-13,5.8-13,13l0,0
	C246.8,348.8,252.6,354.6,259.8,354.6z"/>
<path id="XMLID_11_" class="st6" d="M259.8,354.6h60c7.2,0,13-5.8,13-13l0,0c0-7.2-5.8-13-13-13h-60c-7.2,0-13,5.8-13,13l0,0
	C246.8,348.8,252.6,354.6,259.8,354.6z"/>
<line id="XMLID_23_" class="st21" x1="133.8" y1="671" x2="883.8" y2="671"/>
</svg>
