<?xml version="1.0" encoding="utf-8"?>
<!-- Generator: Adobe Illustrator 22.0.0, SVG Export Plug-In . SVG Version: 6.00 Build 0)  -->
<svg version="1.1" id="Layer_1" xmlns="http://www.w3.org/2000/svg" xmlns:xlink="http://www.w3.org/1999/xlink" x="0px" y="0px"
	 viewBox="0 0 1000 750" style="enable-background:new 0 0 1000 750;" xml:space="preserve">
<style type="text/css">
	.st0{fill:#FFF2DD;}
	.st1{opacity:0.55;}
	.st2{fill:none;stroke:#484848;stroke-width:6;stroke-linecap:round;stroke-linejoin:round;stroke-miterlimit:10;}
	.st3{fill:none;stroke:#333333;stroke-width:10;stroke-linecap:round;stroke-linejoin:round;stroke-miterlimit:10;}
	.st4{fill:none;stroke:#333333;stroke-width:6;stroke-linecap:round;stroke-linejoin:round;stroke-miterlimit:10;}
	.st5{fill:none;stroke:#333333;stroke-width:8;stroke-linecap:round;stroke-linejoin:round;stroke-miterlimit:10;}
	.st6{fill:none;stroke:#333333;stroke-width:5;stroke-linecap:round;stroke-linejoin:round;stroke-miterlimit:10;}
	.st7{fill:#333333;}
	.st8{fill:none;stroke:#333333;stroke-width:4;stroke-linecap:round;stroke-linejoin:round;stroke-miterlimit:10;}
	.st9{fill:none;stroke:#432A3A;stroke-width:10;stroke-linecap:round;stroke-linejoin:round;stroke-miterlimit:10;}
	.st10{fill:#FFE5CC;}
	.st11{fill:none;stroke:#432A3A;stroke-width:8;stroke-linecap:round;stroke-linejoin:round;stroke-miterlimit:10;}
	.st12{fill:#AE544A;}
	.st13{fill:#F5834A;}
	.st14{opacity:0.48;fill:#AE544A;stroke:#AE544A;stroke-width:10;stroke-miterlimit:10;enable-background:new    ;}
	.st15{fill:#FFFFFF;}
	.st16{fill:none;stroke:#432A3A;stroke-width:4;stroke-linecap:round;stroke-linejoin:round;stroke-miterlimit:10;}
	.st17{opacity:0.48;fill:#AE544A;enable-background:new    ;}
	.st18{fill:#933C35;}
	.st19{opacity:0.45;fill:#F5834A;enable-background:new    ;}
	
		.st20{fill:none;stroke:#432A3A;stroke-width:3;stroke-linecap:round;stroke-linejoin:round;stroke-miterlimit:10;stroke-dasharray:5,7;}
	.st21{fill:#EDAC7B;}
	.st22{opacity:0.84;fill:#EDAC7B;enable-background:new    ;}
	
		.st23{fill:none;stroke:#432A3A;stroke-width:4;stroke-linecap:round;stroke-linejoin:round;stroke-miterlimit:10;stroke-dasharray:7,9;}
	.st24{opacity:0.55;fill:#F5834A;enable-background:new    ;}
	.st25{fill:none;stroke:#432A3A;stroke-width:4;stroke-linecap:round;stroke-linejoin:round;stroke-dasharray:7.01,9.0129;}
	.st26{fill:#432A3A;}
	.st27{opacity:0.78;fill:#EDAC7B;enable-background:new    ;}
	.st28{fill:#F6CFB6;}
	.st29{opacity:0.75;fill:#F6CFB6;enable-background:new    ;}
	.st30{fill:none;stroke:#432A3A;stroke-width:5;stroke-linecap:round;stroke-linejoin:round;stroke-miterlimit:10;}
	.st31{fill:none;stroke:#432A3A;stroke-width:3;stroke-linecap:round;stroke-linejoin:round;stroke-miterlimit:10;}
</style>
<rect id="XMLID_25_" class="st0" width="1000" height="750"/>
<g id="XMLID_278_" class="st1">
	<polyline id="XMLID_285_" class="st2" points="770.1,298 770.1,331.7 702.5,331.7 	"/>
	<polyline id="XMLID_284_" class="st2" points="837.6,331.7 770.1,331.7 770.1,298 	"/>
	<rect id="XMLID_283_" x="736.3" y="331.7" class="st2" width="67.6" height="33.7"/>
	<polyline id="XMLID_282_" class="st2" points="789.2,399.3 770.1,399.3 770.1,365.5 837.6,365.5 	"/>
	<polyline id="XMLID_281_" class="st2" points="702.5,365.5 770.1,365.5 770.1,399.3 715.3,399.3 	"/>
	<polyline id="XMLID_280_" class="st2" points="679.5,331.7 736.3,331.7 736.3,365.5 702.5,365.5 	"/>
	<polyline id="XMLID_279_" class="st2" points="852.5,365.5 803.8,365.5 803.8,331.7 827.2,331.7 	"/>
</g>
<g id="XMLID_245_" class="st1">
	<path id="XMLID_244_" class="st3" d="M681.2,211.5L622.7,153c-8.5-8.5-8.5-22.4,0-30.9l58.5-58.5c8.5-8.5,22.4-8.5,30.9,0
		l58.5,58.5c8.5,8.5,8.5,22.4,0,30.9l-58.5,58.5C703.6,220,689.8,220,681.2,211.5z"/>
	<line id="XMLID_237_" class="st4" x1="696.6" y1="78.8" x2="696.6" y2="68.1"/>
	<line id="XMLID_236_" class="st4" x1="696.6" y1="206.9" x2="696.6" y2="196.2"/>
	<line id="XMLID_234_" class="st4" x1="755.4" y1="137.6" x2="766.1" y2="137.6"/>
	<line id="XMLID_233_" class="st4" x1="627.3" y1="137.6" x2="638" y2="137.6"/>
	<line id="XMLID_232_" class="st5" x1="696.6" y1="137.6" x2="679.6" y2="121.6"/>
	<line id="XMLID_231_" class="st6" x1="722.2" y1="103.8" x2="696.6" y2="139.4"/>
	<circle id="XMLID_226_" class="st7" cx="698.1" cy="137.6" r="8.3"/>
</g>
<g id="XMLID_225_" class="st1">
	<rect id="XMLID_224_" x="216.1" y="132.4" class="st3" width="111.5" height="110.9"/>
	<rect id="XMLID_223_" x="348.1" y="51.9" class="st3" width="84.2" height="110.9"/>
	<line id="XMLID_162_" class="st8" x1="238" y1="190.7" x2="267.8" y2="160.9"/>
	<line id="XMLID_30_" class="st8" x1="264.8" y1="187.9" x2="291.7" y2="160.9"/>
	<line id="XMLID_29_" class="st8" x1="243.9" y1="208.9" x2="254.8" y2="197.8"/>
	<line id="XMLID_24_" class="st8" x1="373.1" y1="103.6" x2="393.6" y2="83.2"/>
	<line id="XMLID_13_" class="st8" x1="403.6" y1="98.6" x2="411.5" y2="90.7"/>
	<line id="XMLID_7_" class="st8" x1="369.9" y1="132.4" x2="394.9" y2="107.3"/>
</g>
<line id="XMLID_33_" class="st9" x1="782" y1="663.9" x2="803.2" y2="663.9"/>
<line id="XMLID_4_" class="st9" x1="821.8" y1="663.9" x2="827" y2="663.9"/>
<line id="XMLID_222_" class="st9" x1="217.2" y1="663.9" x2="762" y2="663.9"/>
<line id="XMLID_305_" class="st9" x1="167.5" y1="663.9" x2="193.2" y2="663.9"/>
<g>
	<path id="XMLID_153_" class="st10" d="M368.1,264.7c0-8.6,7-15.6,15.6-15.6c8.6,0,15.6,7,15.6,15.6H368.1z"/>
	<path id="XMLID_54_" class="st11" d="M368.1,264.7c0-8.6,7-15.6,15.6-15.6c8.6,0,15.6,7,15.6,15.6H368.1z"/>
	<path id="XMLID_156_" class="st10" d="M600.8,264.7c0-8.6,7-15.6,15.6-15.6s15.6,7,15.6,15.6H600.8z"/>
	<path id="XMLID_155_" class="st11" d="M600.8,264.7c0-8.6,7-15.6,15.6-15.6s15.6,7,15.6,15.6H600.8z"/>
	<path id="XMLID_19_" class="st12" d="M622.7,278.1c-22.8,0-41.3-8.7-52.1-25l-7-9.4c-14.4-19.3-37.8-30.8-62.3-30.8h-2.6
		c-24.6,0-47.8,11.5-62.3,30.8l-7,9.4c-13.4,20.3-38.9,28.8-69.8,23.4l2.3-12.9c15.1,2.6,42.5,3.9,56.7-17.8l0.2-0.3l7.1-9.5
		c16.9-22.6,44.1-36,72.8-36h2.6c28.7,0,55.9,13.4,72.8,36l7.4,9.8c14.2,21.7,41.6,20.5,56.7,17.8l2.3,12.9
		C634.3,277.5,628.4,278.1,622.7,278.1z"/>
	<path id="XMLID_14_" class="st9" d="M622.7,278.1c-22.8,0-41.3-8.7-52.1-25l-7-9.4c-14.4-19.3-37.8-30.8-62.3-30.8h-2.6
		c-24.6,0-47.8,11.5-62.3,30.8l-7,9.4c-13.4,20.3-38.9,28.8-69.8,23.4l2.3-12.9c15.1,2.6,42.5,3.9,56.7-17.8l0.2-0.3l7.1-9.5
		c16.9-22.6,44.1-36,72.8-36h2.6c28.7,0,55.9,13.4,72.8,36l7.4,9.8c14.2,21.7,41.6,20.5,56.7,17.8l2.3,12.9
		C634.3,277.5,628.4,278.1,622.7,278.1z"/>
	<g id="XMLID_160_">
		<path id="XMLID_43_" class="st13" d="M283.8,451.9h-20.6l-23.4,153.9c0,0,16.5-7.8,22.1-7.8c17.7,0,22.1,7.8,22.1,7.8V451.9H283.8
			z"/>
		<path id="XMLID_5_" class="st9" d="M283.8,451.9h-20.6l-23.4,153.9c0,0,16.5-7.8,22.1-7.8c17.7,0,22.1,7.8,22.1,7.8V451.9H283.8z"
			/>
		<path id="XMLID_26_" class="st9" d="M283.8,451.9h-20.6l-23.4,153.9c0,0,16.5-7.8,22.1-7.8c17.7,0,22.1,7.8,22.1,7.8V451.9H283.8z
			"/>
		<path id="XMLID_44_" class="st12" d="M280.9,451.9h-17.6l-23.4,153.9c0,0,11.8-5.5,18.8-7.2L280.9,451.9z"/>
		<path id="XMLID_107_" class="st9" d="M280.9,451.9h-17.6l-23.4,153.9c0,0,11.8-5.5,18.8-7.2L280.9,451.9z"/>
	</g>
	<g id="XMLID_154_">
		<path id="XMLID_173_" class="st13" d="M716.2,451.9h20.6l23.4,153.9c0,0-16.5-7.8-22.1-7.8c-17.7,0-22.1,7.8-22.1,7.8V451.9H716.2
			z"/>
		<path id="XMLID_170_" class="st9" d="M716.2,451.9h20.6l23.4,153.9c0,0-16.5-7.8-22.1-7.8c-17.7,0-22.1,7.8-22.1,7.8V451.9H716.2z
			"/>
		<path id="XMLID_167_" class="st9" d="M716.2,451.9h20.6l23.4,153.9c0,0-16.5-7.8-22.1-7.8c-17.7,0-22.1,7.8-22.1,7.8V451.9H716.2z
			"/>
		<path id="XMLID_163_" class="st12" d="M719.1,451.9h17.6l23.4,153.9c0,0-11.8-5.5-18.8-7.2L719.1,451.9z"/>
		<path id="XMLID_159_" class="st9" d="M719.1,451.9h17.6l23.4,153.9c0,0-11.8-5.5-18.8-7.2L719.1,451.9z"/>
	</g>
	<path id="XMLID_16_" class="st12" d="M691.9,663.3H307.6c-14.5,0-26.2-11.7-26.2-26.2V364.1h436.7v272.9
		C718.1,651.6,706.5,663.3,691.9,663.3z"/>
	<path id="XMLID_97_" class="st14" d="M561.1,592H438.9c-9.6,0-17.5-7.9-17.5-17.5v-44.4h157.2v44.4
		C578.6,584.2,570.7,592,561.1,592z"/>
	<path id="XMLID_1_" class="st15" d="M513,585.1L513,585.1c0,7.2-5.8,13-13,13s-13-5.8-13-13l0,0h-9.8l0,0
		c0,12.6,10.3,22.8,22.8,22.8c12.6,0,22.8-10.3,22.8-22.8l0,0H513z"/>
	<path id="XMLID_56_" class="st16" d="M513,585.1L513,585.1c0,7.2-5.8,13-13,13s-13-5.8-13-13l0,0h-9.8l0,0
		c0,12.6,10.3,22.8,22.8,22.8c12.6,0,22.8-10.3,22.8-22.8l0,0H513z"/>
	<path id="XMLID_207_" class="st17" d="M692.2,650.9H307.8c-14.5,0-26.2-11.7-26.2-26.2v12.9c0,14.5,11.7,26.2,26.2,26.2h384.3
		c14.5,0,26.2-11.7,26.2-26.2v-12.9C718.4,639.3,706.7,650.9,692.2,650.9z"/>
	<path id="XMLID_185_" class="st18" d="M718.4,488.2V369H281.6v119.1c5.9,2.8,12.2,4.9,19,6.3c56.9,11.5,119.1,16.8,195.9,16.8h7
		c76.8,0,139-5.3,195.9-16.8C706.1,493.1,712.5,491,718.4,488.2z"/>
	<path id="XMLID_79_" class="st13" d="M561.1,584.3H438.9c-9.6,0-17.5-7.9-17.5-17.5v-44.4h157.2v44.4
		C578.6,576.6,570.7,584.3,561.1,584.3z"/>
	<path id="XMLID_190_" class="st19" d="M421.4,546.7c6,5.7,14.1,9.2,22.9,9.2h111.4c8.8,0,16.9-3.5,22.9-9.2v-19.9H421.4V546.7z"/>
	<path id="XMLID_165_" class="st20" d="M447.3,572.3h-8.4c-3.6,0-6.6-2.9-6.6-6.6v-33.5"/>
	<path id="XMLID_168_" class="st20" d="M567.7,554.8v11c0,3.6-2.9,6.6-6.6,6.6H458.5"/>
	<path id="XMLID_12_" class="st9" d="M561.1,584.3H438.9c-9.6,0-17.5-7.9-17.5-17.5v-44.4h157.2v44.4
		C578.6,576.6,570.7,584.3,561.1,584.3z"/>
	<path id="XMLID_80_" class="st21" d="M555.7,544.9H444.3c-14.7,0-26.7-12-26.7-26.7v-26.6h164.9v26.7
		C582.4,533,570.4,544.9,555.7,544.9z"/>
	<path id="XMLID_184_" class="st22" d="M417.6,509c24.7,1.4,50.8,2.2,78.9,2.2h7c28.1,0,54.3-0.8,78.9-2.2v-17.5H417.6V509z"/>
	<path id="XMLID_17_" class="st9" d="M555.7,544.9H444.3c-14.7,0-26.7-12-26.7-26.7v-26.6h164.9v26.7
		C582.4,533,570.4,544.9,555.7,544.9z"/>
	<path id="XMLID_82_" class="st20" d="M428.5,517v-20.5h143V517c0,8.7-7.1,15.8-15.8,15.8H444.3C435.6,532.8,428.5,525.7,428.5,517z
		"/>
	<path id="XMLID_3_" class="st9" d="M692.2,663.8H307.8c-14.5,0-26.2-11.7-26.2-26.2V364.7h436.7v272.9
		C718.4,652.1,706.7,663.8,692.2,663.8z"/>
	<path id="XMLID_8_" class="st23" d="M307.8,646.4c-4.8,0-8.7-3.9-8.7-8.7V382.1h401.8v255.5c0,4.8-3.9,8.7-8.7,8.7H307.8z"/>
	<path id="XMLID_18_" class="st13" d="M265.8,301.8l-14.7,107.5c-4.6,33.3,16.8,63.1,51.6,70.1c64.2,12.9,130.6,16.7,197.3,16.6
		c66.7,0.1,133.1-3.6,197.3-16.6c34.8-7,56.2-36.8,51.6-70.1l-14.7-107.5c-1.9-13.5-15.3-24.6-30.7-25.3
		c-135.8-6.4-271.1-6.4-406.9,0C281.2,277.2,267.7,288.2,265.8,301.8z"/>
	<path id="XMLID_41_" class="st24" d="M748.9,409.3l-14.7-107.5c-1.9-13.5-15.3-24.6-30.7-25.3c-135.8-6.4-271.1-6.4-406.9,0
		c-15.4,0.8-28.8,11.8-30.7,25.3l-14.8,107.5c-4.6,33.3,16.8,63.1,51.6,70.1c64.2,12.9,130.6,16.7,197.3,16.6
		c66.7,0.1,133.1-3.6,197.3-16.6C732,472.4,753.4,442.6,748.9,409.3z M697.2,479.7C641.1,491.5,579.6,497,503.5,497h-7.1
		c-76.1,0-137.6-5.5-193.7-17.3c-29.6-6.2-48.1-32.4-44.2-62.2l14.8-113.2c1.2-9.3,10.9-17.1,21.6-17.7c68.1-3.4,137-5.1,204.9-5.1
		s136.9,1.7,204.9,5.1c10.7,0.5,20.4,8.5,21.6,17.7l14.8,113.2C745.4,447.3,726.8,473.5,697.2,479.7z"/>
	<path id="XMLID_204_" class="st19" d="M697.3,468.9c-64.2,12.9-130.6,16.7-197.3,16.6c-66.7,0.1-133.1-3.6-197.3-16.6
		c-29.8-6-49.8-28.7-52.1-56c-2.6,31.9,18.5,59.7,52.1,66.5c64.2,12.9,130.6,16.7,197.3,16.6c66.7,0.1,133.1-3.6,197.3-16.6
		c33.5-6.8,54.6-34.6,52.1-66.5C747.1,440.2,727.1,462.9,697.3,468.9z"/>
	<path id="XMLID_9_" class="st9" d="M265.8,301.8l-14.7,107.5c-4.6,33.3,16.8,63.1,51.6,70.1c64.2,12.9,130.6,16.7,197.3,16.6
		c66.7,0.1,133.1-3.6,197.3-16.6c34.8-7,56.2-36.8,51.6-70.1l-14.7-107.5c-1.9-13.5-15.3-24.6-30.7-25.3
		c-135.8-6.4-271.1-6.4-406.9,0C281.2,277.2,267.7,288.2,265.8,301.8z"/>
	<g id="XMLID_6_">
		<path class="st25" d="M496.5,478.4c-74.8,0-135.3-5.1-190.3-16.3c-25.7-5.1-41.2-26-37.8-50.6l14.7-107.5
			c0.7-4.6,6.7-9.8,14.2-10.3c67.3-3.2,135.5-4.8,202.6-4.8s135.3,1.6,202.6,4.8c7.6,0.3,13.5,5.7,14.2,10.3l14.7,107.5
			c3.4,24.7-12.1,45.4-37.8,50.6c-55,11.1-115.5,16.3-190.3,16.3H496.5z"/>
	</g>
	<g id="XMLID_51_">
		<path id="XMLID_20_" class="st21" d="M375,679.5L375,679.5c-10.8,0-19.7-8.8-19.7-19.7V383.8h39.3v276.1
			C394.6,670.7,385.9,679.5,375,679.5z"/>
		<rect id="XMLID_169_" x="355.3" y="383.8" class="st26" width="39.3" height="14.2"/>
		<rect id="XMLID_100_" x="355.3" y="460.1" class="st27" width="39.3" height="19.7"/>
		<path id="XMLID_10_" class="st9" d="M375,679.5L375,679.5c-10.8,0-19.7-8.8-19.7-19.7V383.8h39.3v276.1
			C394.6,670.7,385.9,679.5,375,679.5z"/>
		<polygon id="XMLID_23_" class="st15" points="342.2,447 342.2,507 355.3,507 355.3,493.9 355.3,488.6 355.3,460.1 394.6,460.1 
			394.6,488.6 394.6,493.9 394.6,507 407.7,507 407.7,447 		"/>
		<path id="XMLID_36_" class="st11" d="M397.2,447H353c-5.9,0-10.7,4.8-10.7,10.7v38.6c0,5.9,4.8,10.7,10.7,10.7h2.4v-13.1v-14.2
			v-19.7h39.3v19.7v14.2V507h2.4c5.9,0,10.7-4.8,10.7-10.7v-38.6C407.7,451.8,403,447,397.2,447z"/>
		<circle id="XMLID_15_" class="st15" cx="375" cy="425.7" r="6"/>
		<circle id="XMLID_11_" class="st16" cx="375" cy="425.7" r="6"/>
		<circle id="XMLID_37_" class="st15" cx="375" cy="484.4" r="6"/>
		<circle id="XMLID_22_" class="st16" cx="375" cy="486.1" r="6"/>
		<circle id="XMLID_69_" class="st12" cx="375" cy="563.8" r="6"/>
		<circle id="XMLID_64_" class="st16" cx="375" cy="563.8" r="6"/>
		<circle id="XMLID_75_" class="st12" cx="375" cy="602.7" r="6"/>
		<circle id="XMLID_72_" class="st16" cx="375" cy="602.7" r="6"/>
		<path id="XMLID_78_" class="st15" d="M375,490.4L375,490.4c-2.4,0-4.4-2-4.4-4.4v-34.8c0-2.4,2-4.4,4.4-4.4l0,0
			c2.4,0,4.4,2,4.4,4.4v34.8C379.4,488.6,377.5,490.4,375,490.4z"/>
		<path id="XMLID_21_" class="st16" d="M375,490.4L375,490.4c-2.4,0-4.4-2-4.4-4.4v-34.8c0-2.4,2-4.4,4.4-4.4l0,0
			c2.4,0,4.4,2,4.4,4.4v34.8C379.4,488.6,377.5,490.4,375,490.4z"/>
	</g>
	<g id="XMLID_61_">
		<path id="XMLID_150_" class="st21" d="M625,679.5L625,679.5c-10.8,0-19.7-8.8-19.7-19.7V383.8h39.3v276.1
			C644.7,670.7,635.8,679.5,625,679.5z"/>
		<rect id="XMLID_166_" x="604" y="460.4" class="st27" width="39.3" height="19.7"/>
		<path id="XMLID_147_" class="st9" d="M625,679.5L625,679.5c-10.8,0-19.7-8.8-19.7-19.7V383.8h39.3v276.1
			C644.7,670.7,635.8,679.5,625,679.5z"/>
		<polygon id="XMLID_144_" class="st15" points="592.3,447 592.3,507 605.4,507 605.4,493.9 605.4,488.6 605.4,460.1 644.7,460.1 
			644.7,488.6 644.7,493.9 644.7,507 657.8,507 657.8,447 		"/>
		<path id="XMLID_141_" class="st11" d="M647.1,447H603c-5.9,0-10.7,4.8-10.7,10.7v38.6c0,5.9,4.8,10.7,10.7,10.7h2.4v-13.1v-14.2
			v-19.7h39.3v19.7v14.2V507h2.4c5.9,0,10.7-4.8,10.7-10.7v-38.6C657.8,451.8,653,447,647.1,447z"/>
		<circle id="XMLID_138_" class="st15" cx="625" cy="425.7" r="6"/>
		<circle id="XMLID_135_" class="st16" cx="625" cy="425.7" r="6"/>
		<circle id="XMLID_132_" class="st15" cx="625" cy="484.4" r="6"/>
		<circle id="XMLID_129_" class="st16" cx="625" cy="486.1" r="6"/>
		<circle id="XMLID_126_" class="st12" cx="625" cy="563.8" r="6"/>
		<circle id="XMLID_123_" class="st16" cx="625" cy="563.8" r="6"/>
		<circle id="XMLID_120_" class="st12" cx="625" cy="602.7" r="6"/>
		<circle id="XMLID_117_" class="st16" cx="625" cy="602.7" r="6"/>
		<path id="XMLID_108_" class="st15" d="M625,490.4L625,490.4c-2.4,0-4.4-2-4.4-4.4v-34.8c0-2.4,2-4.4,4.4-4.4l0,0
			c2.4,0,4.4,2,4.4,4.4v34.8C629.3,488.6,627.4,490.4,625,490.4z"/>
		<path id="XMLID_91_" class="st16" d="M625,490.4L625,490.4c-2.4,0-4.4-2-4.4-4.4v-34.8c0-2.4,2-4.4,4.4-4.4l0,0
			c2.4,0,4.4,2,4.4,4.4v34.8C629.3,488.6,627.4,490.4,625,490.4z"/>
		<rect id="XMLID_187_" x="605.4" y="383.8" class="st26" width="39.3" height="14.2"/>
	</g>
	<circle id="XMLID_32_" class="st22" cx="502.7" cy="517.5" r="6.2"/>
	<circle id="XMLID_31_" class="st16" cx="502.7" cy="517.5" r="6.2"/>
	<path id="XMLID_95_" class="st28" d="M529.5,402.2c0.2-2.8-1.4-5.6-4-6.8c-6.9-3.2-14.6-4.9-22.7-4.9c-8.1,0-15.8,1.7-22.7,4.9
		c-2.6,1.2-4.3,3.9-4,6.8c1.3,16.6,9.9,31.1,22.7,40.2c2.4,1.7,5.6,1.7,8,0C519.5,433.3,528.2,418.8,529.5,402.2z"/>
	<path id="XMLID_202_" class="st29" d="M506.8,430.4c-2.4,1.7-5.6,1.7-8,0c-10.8-7.6-18.6-19.2-21.5-32.5c-0.9,1.2-1.3,2.7-1.2,4.4
		c1.3,16.6,9.9,31.1,22.7,40.2c2.4,1.7,5.6,1.7,8,0c12.8-9.2,21.5-23.6,22.7-40.2c0.1-1.5-0.3-3.1-1.2-4.4
		C525.3,411.3,517.5,422.8,506.8,430.4z"/>
	<path id="XMLID_161_" class="st30" d="M529.5,402.2c0.2-2.8-1.4-5.6-4-6.8c-6.9-3.2-14.6-4.9-22.7-4.9c-8.1,0-15.8,1.7-22.7,4.9
		c-2.6,1.2-4.3,3.9-4,6.8c1.3,16.6,9.9,31.1,22.7,40.2c2.4,1.7,5.6,1.7,8,0C519.5,433.3,528.2,418.8,529.5,402.2z"/>
	<path id="XMLID_98_" class="st31" d="M490.8,400.8c3.8-1.1,7.9-1.5,11.9-1.5c4,0,8.1,0.5,11.9,1.5c3.6,1,5.8,4.7,4.9,8.3
		c-1.1,4.3-2.7,8.3-4.9,12.1"/>
</g>
</svg>
