<?xml version="1.0" encoding="utf-8"?>
<!-- Generator: Adobe Illustrator 22.0.0, SVG Export Plug-In . SVG Version: 6.00 Build 0)  -->
<svg version="1.1" id="Layer_1" xmlns="http://www.w3.org/2000/svg" xmlns:xlink="http://www.w3.org/1999/xlink" x="0px" y="0px"
	 viewBox="0 0 7500 3000" style="enable-background:new 0 0 7500 3000;" xml:space="preserve">
<style type="text/css">
	.st0{fill:#7ABBE6;}
	.st1{opacity:0.4;}
	.st2{fill:none;stroke:#434343;stroke-width:20;stroke-miterlimit:10;}
	.st3{fill:#434343;stroke:#434343;stroke-width:20;stroke-miterlimit:10;}
	.st4{fill:none;stroke:#402C76;stroke-width:20;stroke-linecap:round;stroke-linejoin:round;stroke-miterlimit:10;}
	.st5{fill:#FFFFFF;}
	.st6{fill:#B84E9D;}
	.st7{fill:#B94F9D;}
	.st8{fill:#B84E9D;stroke:#402C76;stroke-width:20;stroke-linecap:round;stroke-linejoin:round;stroke-miterlimit:10;}
	.st9{fill:#402C76;}
	.st10{fill:#F15B5C;}
	.st11{fill:#D19C5E;}
	.st12{fill:#DAD6E5;}
	.st13{fill:#6CC6AC;}
	.st14{fill:#6DC6AC;}
	.st15{fill:#6CC6AC;stroke:#402C76;stroke-width:20;stroke-linecap:round;stroke-linejoin:round;stroke-miterlimit:10;}
</style>
<rect id="XMLID_7_" class="st0" width="7500" height="3000"/>
<g id="XMLID_51_" class="st1">
	<g id="XMLID_240_">
		<g id="XMLID_242_">
			<g id="XMLID_251_">
				<polygon id="XMLID_252_" class="st2" points="4949.3,1651.7 4805.4,1402.4 4949.3,1153.2 5236.9,1153.2 5380.8,1402.4 
					5236.9,1651.7 				"/>
			</g>
		</g>
	</g>
	<g id="XMLID_204_">
		<g id="XMLID_223_">
			<g id="XMLID_230_">
				<polygon id="XMLID_231_" class="st3" points="4450.8,1364.2 4307.2,1114.9 4450.8,865.6 4738.3,865.6 4882.3,1114.9 
					4738.3,1364.2 				"/>
			</g>
			<g id="XMLID_228_">
				<polygon id="XMLID_229_" class="st2" points="4450.8,789.1 4307.2,539.8 4450.8,290.6 4738.3,290.6 4882.3,539.8 4738.3,789.1 
									"/>
			</g>
		</g>
		<g id="XMLID_206_">
			<g id="XMLID_215_">
				<polygon id="XMLID_216_" class="st2" points="3952.2,1651.7 3808.7,1402.4 3952.2,1153.2 4239.7,1153.2 4383.7,1402.4 
					4239.7,1651.7 				"/>
			</g>
			<g id="XMLID_213_">
				<polygon id="XMLID_214_" class="st3" points="3952.2,1076.7 3808.7,827.4 3952.2,578.1 4239.7,578.1 4383.7,827.4 
					4239.7,1076.7 				"/>
			</g>
		</g>
	</g>
	<g id="XMLID_168_">
		<g id="XMLID_187_">
			<g id="XMLID_196_">
				<polygon id="XMLID_197_" class="st3" points="3454.1,1939.2 3310.1,1690 3454.1,1440.7 3741.6,1440.7 3885.2,1690 
					3741.6,1939.2 				"/>
			</g>
			<g id="XMLID_194_">
				<polygon id="XMLID_195_" class="st2" points="3454.1,1364.2 3310.1,1114.9 3454.1,865.6 3741.6,865.6 3885.2,1114.9 
					3741.6,1364.2 				"/>
			</g>
			<g id="XMLID_192_">
				<polygon id="XMLID_193_" class="st2" points="3454.1,789.1 3310.1,539.8 3454.1,290.6 3741.6,290.6 3885.2,539.8 3741.6,789.1 
									"/>
			</g>
		</g>
		<g id="XMLID_170_">
			<g id="XMLID_177_">
				<polygon id="XMLID_178_" class="st3" points="2955.5,1076.7 2811.6,827.4 2955.5,578.1 3243.1,578.1 3386.6,827.4 
					3243.1,1076.7 				"/>
			</g>
		</g>
	</g>
	<g id="XMLID_73_">
		<g id="XMLID_151_">
			<g id="XMLID_160_">
				<polygon id="XMLID_161_" class="st3" points="2457,1939.2 2313,1690 2457,1440.7 2744.5,1440.7 2888.5,1690 2744.5,1939.2 				
					"/>
			</g>
			<g id="XMLID_158_">
				<polygon id="XMLID_159_" class="st2" points="2457,1364.2 2313,1114.9 2457,865.6 2744.5,865.6 2888.5,1114.9 2744.5,1364.2 
									"/>
			</g>
		</g>
	</g>
</g>
<line id="XMLID_23_" class="st4" x1="2119.2" y1="2709.4" x2="5342.6" y2="2709.4"/>
<g>
	<path id="XMLID_5_" class="st5" d="M4037.7,2636.4c-27.5-29.7-61.9-55.4-104.9-74.8V1011.3l49.4-85.5c21.9-38.3-5.6-85.5-49.4-85.5
		l0,0h-30.1h-308.2c-31.4,0-57.2,25.4-57.2,57.2V2562c-43,19.3-79.9,45.1-107.4,74.8h-1.3c-20.6,0-37,16.8-37,37v31.8h683.4v-31.8
		C4074.7,2653.1,4057.9,2636.4,4037.7,2636.4z"/>
	<path id="XMLID_33_" class="st4" d="M4033.4,2636.4c-27.5-29.7-61.9-55.4-104.9-74.8V1022.9c0-7.7,2.1-15,6-21.5l45.1-73.1
		c22.8-37-3.9-84.2-46.8-84.2l0,0h-30.1h-314.6c-30.5,0-55,24.5-55,55v1662.4c-43,19.3-75.6,49-103.1,79.1h-1.3
		c-22.8,0-41.3,18.5-41.3,41.3v27.5h683.4v-36.1C4070.4,2653.1,4053.6,2636.4,4033.4,2636.4z"/>
	<path id="XMLID_26_" class="st6" d="M3907.9,2616.6l-35.2-15.9V1381.4h-0.9c0-45.6-37-82.5-82.5-82.5c-37.4,0-68.8,24.9-79.1,58.9
		c-6.4-4.3-14.2-6.4-22.3-6.4c-18.9,0-34.8,12.9-39.5,30.1h-50.7v1218.9l-35.2,15.9c-18.5,8.2-35.2,18.1-50.7,28.4h445.7
		C3942.3,2634.2,3926,2624.8,3907.9,2616.6z"/>
	<path id="XMLID_94_" class="st4" d="M3907.9,2616.6l-35.2-15.9V1381.4h-0.9c0-45.6-37-82.5-82.5-82.5c-37.4,0-68.8,24.9-79.1,58.9
		c-6.4-4.3-14.2-6.4-22.3-6.4c-18.9,0-34.8,12.9-39.5,30.1h-50.7v1218.9l-35.2,15.9c-18.5,8.2-35.2,18.1-50.7,28.4h445.7
		C3942.3,2634.2,3926,2624.8,3907.9,2616.6z"/>
	<circle id="XMLID_24_" class="st6" cx="3677.2" cy="1125.7" r="40.8"/>
	<circle id="XMLID_50_" class="st4" cx="3677.2" cy="1125.7" r="40.8"/>
	<circle id="XMLID_4_" class="st6" cx="3720.1" cy="691.6" r="70.9"/>
	<circle id="XMLID_3_" class="st4" cx="3720.1" cy="691.6" r="70.9"/>
	<circle id="XMLID_14_" class="st6" cx="3810.4" cy="541.1" r="27.5"/>
	<circle id="XMLID_8_" class="st4" cx="3810.4" cy="541.1" r="27.5"/>
	<circle id="XMLID_28_" class="st7" cx="3797.5" cy="1022.5" r="17.2"/>
	<circle id="XMLID_83_" class="st8" cx="3797.5" cy="1022.5" r="17.2"/>
	<circle id="XMLID_74_" class="st9" cx="3742.9" cy="1788.8" r="13.8"/>
	<circle id="XMLID_76_" class="st9" cx="3720.6" cy="1985.7" r="43"/>
	<circle id="XMLID_78_" class="st9" cx="3776.4" cy="2204.9" r="18.9"/>
</g>
<g>
	<path id="XMLID_13_" class="st5" d="M3335.5,1868.3v-646h-232.1v646c-202,51.6-354.6,239.4-354.6,460.7
		c0,154.7,76.5,290.1,191.3,380.4h567.3c114.8-90.3,187-225.6,187-380.4C3694.3,2108.2,3541.8,1920.3,3335.5,1868.3z"/>
	<path id="XMLID_10_" class="st4" d="M3335.5,1868.3v-646h-232.1v646c-202,51.6-354.6,239.4-354.6,460.7
		c0,154.7,76.5,290.1,191.3,380.4h567.3c114.8-90.3,187-225.6,187-380.4C3694.3,2108.2,3541.8,1920.3,3335.5,1868.3z"/>
	<path id="XMLID_9_" class="st10" d="M3598.9,2155h-114.8c-1.7-24.1-21.9-43-46.4-43c-24.5,0-44.7,18.9-46.4,43h-4.7
		c-2.1-43-37.8-77.4-81.2-77.4c-13.8,0-26.6,3.4-37.8,9.5c-15.5-44.7-58-76.9-108.3-76.9c-55,0-101.4,39.1-112.2,91.1
		c-10.3-6.9-22.8-10.7-36.1-10.7c-36.1,0-65.3,28.8-66.6,64.5h-95.8c-24.5,53.7-37.4,113-37.4,171.9c0,123.8,54.6,239.4,149.6,318
		h525.6c95.4-78.7,149.6-194.3,149.6-318C3636.3,2268,3623.4,2208.7,3598.9,2155z"/>
	<path id="XMLID_40_" class="st4" d="M3598.9,2155h-114.8c-1.7-24.1-21.9-43-46.4-43c-24.5,0-44.7,18.9-46.4,43h-4.7
		c-2.1-43-37.8-77.4-81.2-77.4c-13.8,0-26.6,3.4-37.8,9.5c-15.5-44.7-58-76.9-108.3-76.9c-55,0-101.4,39.1-112.2,91.1
		c-10.3-6.9-22.8-10.7-36.1-10.7c-36.1,0-65.3,28.8-66.6,64.5h-95.8c-24.5,53.7-37.4,113-37.4,171.9c0,123.8,54.6,239.4,149.6,318
		h525.6c95.4-78.7,149.6-194.3,149.6-318C3636.3,2268,3623.4,2208.7,3598.9,2155z"/>
	<path id="XMLID_91_" class="st4" d="M3052.7,2167c-5.2-12.9-8.2-27.5-8.2-42.1c0-63.2,51.1-114.8,114.8-114.8
		c49.9,0,92.4,32.2,108.3,76.9"/>
	<path id="XMLID_29_" class="st4" d="M3358.2,2221.6"/>
	<path id="XMLID_38_" class="st4" d="M3230.2,2127.5c12.5-29.2,41.3-49.9,75.2-49.9c45.1,0,81.7,36.5,81.7,81.7"/>
	<path id="XMLID_39_" class="st4" d="M3391.3,2158.4c0-25.8,21.1-46.4,46.4-46.4c25.8,0,46.4,21.1,46.4,46.4"/>
	<rect id="XMLID_41_" x="3139.9" y="1054.7" class="st11" width="159" height="266.5"/>
	<rect id="XMLID_34_" x="3139.9" y="1054.7" class="st4" width="159" height="266.5"/>
	<path id="XMLID_30_" class="st12" d="M3350.5,1218.1h-257.9c-28.4,0-51.6-23.2-51.6-51.6l0,0c0-28.4,23.2-51.6,51.6-51.6h257.9
		c28.4,0,51.6,23.2,51.6,51.6l0,0C3402.1,1194.8,3378.9,1218.1,3350.5,1218.1z"/>
	<path id="XMLID_6_" class="st4" d="M3350.5,1218.1h-257.9c-28.4,0-51.6-23.2-51.6-51.6l0,0c0-28.4,23.2-51.6,51.6-51.6h257.9
		c28.4,0,51.6,23.2,51.6,51.6l0,0C3402.1,1194.8,3378.9,1218.1,3350.5,1218.1z"/>
	<circle id="XMLID_47_" class="st10" cx="3287.3" cy="1948.3" r="52.4"/>
	<circle id="XMLID_46_" class="st10" cx="3232.3" cy="1502.6" r="23.6"/>
	<circle id="XMLID_43_" class="st10" cx="3187.2" cy="1671.9" r="30.1"/>
	<circle id="XMLID_42_" class="st4" cx="3287.3" cy="1948.3" r="52.4"/>
	<circle id="XMLID_44_" class="st4" cx="3232.3" cy="1502.6" r="17.2"/>
	<circle id="XMLID_45_" class="st4" cx="3187.2" cy="1671.9" r="30.1"/>
	<circle id="XMLID_54_" class="st10" cx="3448.5" cy="2011.5" r="12.9"/>
	<circle id="XMLID_48_" class="st4" cx="3448.5" cy="2011.5" r="12.9"/>
	<circle id="XMLID_59_" class="st4" cx="3371.1" cy="2050.1" r="3.4"/>
	<circle id="XMLID_27_" class="st9" cx="3133.5" cy="2434.4" r="12.9"/>
	<circle id="XMLID_35_" class="st9" cx="3228" cy="2537.5" r="27.5"/>
	<circle id="XMLID_71_" class="st9" cx="3266.7" cy="2387.1" r="12.9"/>
	<circle id="XMLID_56_" class="st9" cx="3357" cy="2524.6" r="14.6"/>
</g>
<g>
	<path id="XMLID_31_" class="st12" d="M4339.9,1433h-272.1c-28.4,0-51.6-23.2-51.6-51.6l0,0c0-28.4,23.2-51.6,51.6-51.6h272.1
		c28.4,0,51.6,23.2,51.6,51.6l0,0C4391.5,1409.7,4368.3,1433,4339.9,1433z"/>
	<path id="XMLID_11_" class="st4" d="M4339.9,1433h-272.1c-28.4,0-51.6-23.2-51.6-51.6l0,0c0-28.4,23.2-51.6,51.6-51.6h272.1
		c28.4,0,51.6,23.2,51.6,51.6l0,0C4391.5,1409.7,4368.3,1433,4339.9,1433z"/>
	<path id="XMLID_12_" class="st5" d="M4319.7,1983.1V1433h-232.1v550.1l-376.5,590.1c-36.5,57.2,3.9,131.9,71.8,131.9h838.5
		c67.9,0,110-74.8,73.5-131.9L4319.7,1983.1z"/>
	<path id="XMLID_22_" class="st4" d="M4319.7,1983.1V1433h-232.1v550.1l-376.5,590.1c-36.5,57.2,3.9,131.9,71.8,131.9h838.5
		c67.9,0,110-74.8,73.5-131.9L4319.7,1983.1z"/>
	<path id="XMLID_25_" class="st13" d="M4643.7,2605l-151.3-238.1c-15.9-37.8-50.3-63.6-90.3-63.6c-20.2,0-39.5,6.9-55,18.5
		c-18.1-19.3-42.5-31.4-69.6-31.4c-37.8,0-70.9,23.6-87.7,58h-18.1c-18.1-19.8-43-32.2-70.5-32.2c-27.5,0-52.4,12.5-70.5,32.2h-7.7
		c-13.8,8.2-29.7,12.9-46.8,12.9s-32.7-4.7-46.8-12.9h-4.3L3761.4,2605c-8.2,12.9-3.4,23.2-1.7,26.2c2.6,5.2,9.5,13.3,22.8,13.3
		H4621c14.2,0,21.1-9.5,23.2-13.3C4647.6,2625.2,4650.2,2615.7,4643.7,2605z"/>
	<path id="XMLID_36_" class="st4" d="M4643.7,2605l-151.3-238.1c-15.9-37.8-50.3-63.6-90.3-63.6c-20.2,0-39.5,6.9-55,18.5
		c-18.1-19.3-42.5-31.4-69.6-31.4c-37.8,0-70.9,23.6-87.7,58h-18.1c-18.1-19.8-43-32.2-70.5-32.2c-27.5,0-52.4,12.5-70.5,32.2h-7.7
		c-13.8,8.2-29.7,12.9-46.8,12.9s-32.7-4.7-46.8-12.9h-4.3L3761.4,2605c-8.2,12.9-3.4,23.2-1.7,26.2c2.6,5.2,9.5,13.3,22.8,13.3
		H4621c14.2,0,21.1-9.5,23.2-13.3C4647.6,2625.2,4650.2,2615.7,4643.7,2605z"/>
	<circle id="XMLID_62_" class="st13" cx="4159.4" cy="2178.6" r="43"/>
	<circle id="XMLID_61_" class="st4" cx="4159.4" cy="2178.6" r="43"/>
	<circle id="XMLID_64_" class="st13" cx="4308.1" cy="2207" r="28.4"/>
	<circle id="XMLID_63_" class="st4" cx="4308.1" cy="2207" r="28.4"/>
	<circle id="XMLID_88_" class="st14" cx="4217.4" cy="1943.5" r="22.3"/>
	<circle id="XMLID_65_" class="st15" cx="4217.4" cy="1943.5" r="22.3"/>
	<circle id="XMLID_89_" class="st9" cx="4143.5" cy="2447.3" r="27.5"/>
	<circle id="XMLID_90_" class="st9" cx="4323.1" cy="2510.9" r="13.8"/>
	<circle id="XMLID_37_" class="st4" cx="4238.5" cy="1689.1" r="9"/>
	<circle id="XMLID_2_" class="st4" cx="4169.7" cy="1487.1" r="9"/>
</g>
</svg>
