<?xml version="1.0" encoding="utf-8"?>
<!-- Generator: Adobe Illustrator 22.0.0, SVG Export Plug-In . SVG Version: 6.00 Build 0)  -->
<svg version="1.1" id="Layer_1" xmlns="http://www.w3.org/2000/svg" xmlns:xlink="http://www.w3.org/1999/xlink" x="0px" y="0px"
	 viewBox="0 0 1000 750" style="enable-background:new 0 0 1000 750;" xml:space="preserve">
<style type="text/css">
	.st0{fill:#EF444F;}
	.st1{fill:#431348;}
	.st2{fill:#E0E1E0;}
	.st3{fill:#CFC3D8;}
	.st4{fill:none;stroke:#431348;stroke-width:8;stroke-linecap:round;stroke-linejoin:round;stroke-miterlimit:10;}
	.st5{fill:#C0B0CC;}
	.st6{fill:#4B1952;}
	.st7{fill:none;stroke:#431348;stroke-width:6;stroke-linecap:round;stroke-linejoin:round;stroke-miterlimit:10;}
	.st8{fill:#FFFFFF;}
	.st9{fill:#E6EEF1;}
	.st10{fill:#FAA74E;}
	.st11{fill:#BBC5CB;}
	.st12{fill:#CFC3D8;stroke:#CFC3D8;stroke-width:8;stroke-linecap:round;stroke-linejoin:round;stroke-miterlimit:10;}
	.st13{fill:#25B5E1;}
	.st14{fill:none;stroke:#BBC5CB;stroke-width:8;stroke-linecap:round;stroke-linejoin:round;stroke-miterlimit:10;}
	.st15{fill:url(#XMLID_3_);}
	.st16{fill:none;stroke:#3A3B3A;stroke-width:4;stroke-linecap:round;stroke-linejoin:round;stroke-miterlimit:10;}
	.st17{opacity:0.3;fill:#FFFFFF;enable-background:new    ;}
	.st18{fill:none;stroke:#431348;stroke-width:4;stroke-linecap:round;stroke-linejoin:round;stroke-miterlimit:10;}
</style>
<rect id="XMLID_71_" class="st0" width="1000" height="750"/>
<g>
	<ellipse id="XMLID_22_" class="st1" cx="504.2" cy="670.8" rx="92.5" ry="17.2"/>
	<path id="XMLID_104_" class="st2" d="M475.2,554.3c-23.5,0-42.5,17.4-42.5,39v1.4c0,42.1,31.3,76.1,69.9,76.1s69.9-34.1,69.9-76.1
		v-1.4c0-21.5-19-39-42.5-39H475.2z"/>
	<ellipse id="XMLID_24_" class="st3" cx="502.7" cy="568" rx="49.3" ry="13.7"/>
	<ellipse id="XMLID_10_" class="st1" cx="502.7" cy="566.7" rx="36.8" ry="10.2"/>
	<path id="XMLID_188_" class="st3" d="M502.7,638.7c-34.9,0-63.8-16.8-69.1-53.2c-0.6,2.5-0.9,5.1-0.9,7.8v1.4
		c0,42.1,31.3,76.1,69.9,76.1s69.9-34.1,69.9-76.1v-1.4c0-2.7-0.3-5.3-0.9-7.8C566.5,621.9,537.6,638.7,502.7,638.7z"/>
	<path id="XMLID_184_" class="st4" d="M475.2,554.3c-23.5,0-42.5,17.4-42.5,39v1.4c0,42.1,31.3,76.1,69.9,76.1s69.9-34.1,69.9-76.1
		v-1.4c0-21.5-19-39-42.5-39H475.2z"/>
	<line id="XMLID_17_" class="st4" x1="612.5" y1="179.1" x2="648.5" y2="179.1"/>
	<circle id="XMLID_53_" class="st5" cx="664.5" cy="179.1" r="16"/>
	<circle id="XMLID_16_" class="st4" cx="664.5" cy="179.1" r="16"/>
	<g id="XMLID_42_">
		<path id="XMLID_50_" class="st6" d="M626,416.5c-0.9-7.5-0.6-15,0.8-22.4c0.9-3.8,5-6.8,8.6-6.6l0,0c3.7,0.1,7.5,3.3,8.2,7.2
			c0.9,7.5,0.6,15-0.8,22.4c-0.9,3.8-5,6.8-8.6,6.6l0,0C630.5,423.6,626.6,420.4,626,416.5z"/>
		<g id="XMLID_101_">
			<path id="XMLID_49_" class="st1" d="M647.3,416.1c-2.5-6.9-4.1-14.2-4.3-21.6c-0.1-3.8,3.2-7.6,6.8-8.3l0,0
				c3.6-0.7,8,1.5,9.4,5.1c2.7,6.9,4.1,14.2,4.3,21.6c0.1,3.8-3.2,7.6-6.8,8.3l0,0C653.2,421.9,648.8,419.7,647.3,416.1z"/>
			<path id="XMLID_48_" class="st6" d="M667.6,411c-4-6-7.2-12.6-9.1-19.6c-1-3.6,1.3-8,4.5-9.4l0,0c3.4-1.5,8-0.5,10.1,2.6
				c4.1,5.9,7.2,12.6,9.1,19.6c1,3.6-1.3,8-4.5,9.4l0,0C674.5,415.1,669.8,414,667.6,411z"/>
			<path id="XMLID_47_" class="st6" d="M685.8,401.5c-5.2-4.8-9.7-10.4-13.1-16.6c-1.8-3.3-0.5-7.9,2.2-10l0,0
				c3-2.3,7.5-2.2,10.3,0.2c5.3,4.7,9.7,10.4,13.1,16.6c1.8,3.3,0.5,7.9-2.2,10l0,0C693.3,403.9,688.6,403.9,685.8,401.5z"/>
			<path id="XMLID_46_" class="st6" d="M701.3,388.3c-6-3.4-11.6-7.7-16.2-12.9c-2.4-2.7-2.3-7.4-0.2-10l0,0
				c2.4-2.9,6.6-3.8,9.8-2.1c6.1,3.3,11.6,7.7,16.2,12.9c2.4,2.7,2.3,7.4,0.2,10l0,0C709,388.9,704.5,390,701.3,388.3z"/>
			<path id="XMLID_45_" class="st6" d="M713.5,371.9c-6.5-1.9-12.8-4.7-18.4-8.6c-2.9-2-3.9-6.5-2.5-9.5l0,0
				c1.7-3.4,5.4-5.2,8.9-4.2c6.6,1.8,12.8,4.7,18.4,8.6c2.9,2,3.9,6.5,2.5,9.5l0,0C721,370.7,716.9,372.8,713.5,371.9z"/>
			<path id="XMLID_44_" class="st6" d="M721.7,352.9c-6.7-0.3-13.3-1.4-19.5-3.8c-3.2-1.2-5.2-5.3-4.6-8.5l0,0
				c0.9-3.8,4-6.2,7.4-6.1c6.7,0.1,13.3,1.4,19.5,3.8c3.2,1.2,5.2,5.3,4.6,8.5l0,0C728.6,349.9,725.2,352.9,721.7,352.9z"/>
			<path id="XMLID_43_" class="st6" d="M724.5,333.3c-6.5,0.4-13-0.2-19.3-1.8c-3.3-1-5.6-4.6-5.3-7.8l0,0c0.5-3.9,3.3-6.3,6.7-6.7
				c6.5-0.4,13,0.2,19.3,1.8c3.3,1,5.6,4.6,5.3,7.8l0,0C730.9,329.8,727.9,333,724.5,333.3z"/>
		</g>
	</g>
	<g id="XMLID_97_">
		<path id="XMLID_68_" class="st7" d="M626,416.5c-0.9-7.5-0.6-15,0.8-22.4c0.9-3.8,5-6.8,8.6-6.6l0,0c3.7,0.1,7.5,3.3,8.2,7.2
			c0.9,7.5,0.6,15-0.8,22.4c-0.9,3.8-5,6.8-8.6,6.6l0,0C630.5,423.6,626.6,420.4,626,416.5z"/>
		<path id="XMLID_66_" class="st7" d="M647.3,416.1c-2.5-6.9-4.1-14.2-4.3-21.6c-0.1-3.8,3.2-7.6,6.8-8.3l0,0c3.6-0.7,8,1.5,9.4,5.1
			c2.7,6.9,4.1,14.2,4.3,21.6c0.1,3.8-3.2,7.6-6.8,8.3l0,0C653.2,421.9,648.8,419.7,647.3,416.1z"/>
		<path id="XMLID_65_" class="st7" d="M667.6,411c-4-6-7.2-12.6-9.1-19.6c-1-3.6,1.3-8,4.5-9.4l0,0c3.4-1.5,8-0.5,10.1,2.6
			c4.1,5.9,7.2,12.6,9.1,19.6c1,3.6-1.3,8-4.5,9.4l0,0C674.5,415.1,669.8,414,667.6,411z"/>
		<path id="XMLID_64_" class="st7" d="M685.8,401.5c-5.2-4.8-9.7-10.4-13.1-16.6c-1.8-3.3-0.5-7.9,2.2-10l0,0
			c3-2.3,7.5-2.2,10.3,0.2c5.3,4.7,9.7,10.4,13.1,16.6c1.8,3.3,0.5,7.9-2.2,10l0,0C693.3,403.9,688.6,403.9,685.8,401.5z"/>
		<path id="XMLID_63_" class="st7" d="M701.3,388.3c-6-3.4-11.6-7.7-16.2-12.9c-2.4-2.7-2.3-7.4-0.2-10l0,0c2.4-2.9,6.6-3.8,9.8-2.1
			c6.1,3.3,11.6,7.7,16.2,12.9c2.4,2.7,2.3,7.4,0.2,10l0,0C709,388.9,704.5,390,701.3,388.3z"/>
		<path id="XMLID_62_" class="st7" d="M713.5,371.9c-6.5-1.9-12.8-4.7-18.4-8.6c-2.9-2-3.9-6.5-2.5-9.5l0,0c1.7-3.4,5.4-5.2,8.9-4.2
			c6.6,1.8,12.8,4.7,18.4,8.6c2.9,2,3.9,6.5,2.5,9.5l0,0C721,370.7,716.9,372.8,713.5,371.9z"/>
		<path id="XMLID_61_" class="st7" d="M721.7,352.9c-6.7-0.3-13.3-1.4-19.5-3.8c-3.2-1.2-5.2-5.3-4.6-8.5l0,0c0.9-3.8,4-6.2,7.4-6.1
			c6.7,0.1,13.3,1.4,19.5,3.8c3.2,1.2,5.2,5.3,4.6,8.5l0,0C728.6,349.9,725.2,352.9,721.7,352.9z"/>
		<path id="XMLID_60_" class="st7" d="M724.5,333.3c-6.5,0.4-13-0.2-19.3-1.8c-3.3-1-5.6-4.6-5.3-7.8l0,0c0.5-3.9,3.3-6.3,6.7-6.7
			c6.5-0.4,13,0.2,19.3,1.8c3.3,1,5.6,4.6,5.3,7.8l0,0C730.9,329.8,727.9,333,724.5,333.3z"/>
	</g>
	<path id="XMLID_57_" class="st3" d="M726.8,265.7v19.5c0,5.3-4.3,9.6-9.6,9.6s-9.6-4.3-9.6-9.6v-12.8h-19.3v16.4
		c0,16,12.9,28.9,28.9,28.9l0,0c16,0,28.9-12.9,28.9-28.9v-23.1H726.8L726.8,265.7z"/>
	<path id="XMLID_187_" class="st5" d="M711.4,292.9c-2.3-1.8-3.8-4.5-3.8-7.6V277c0-0.8-0.1-1.7-0.1-2.5c0-0.7,0-1.3,0-2h-19.2v16.4
		c0,16,12.9,28.9,28.9,28.9l0,0c5.2,0,10.1-1.4,14.3-3.8C722.7,309.7,715.5,302.2,711.4,292.9z"/>
	<path id="XMLID_59_" class="st4" d="M726.8,265.7v19.5c0,5.3-4.3,9.6-9.6,9.6s-9.6-4.3-9.6-9.6v-12.8h-19.3v16.4
		c0,16,12.9,28.9,28.9,28.9l0,0c16,0,28.9-12.9,28.9-28.9v-23.1H726.8L726.8,265.7z"/>
	<g id="XMLID_256_">
		<path id="XMLID_279_" class="st6" d="M379.4,416.5c0.9-7.5,0.6-15-0.8-22.4c-0.9-3.8-5-6.8-8.6-6.6l0,0c-3.7,0.1-7.5,3.3-8.2,7.2
			c-0.9,7.5-0.6,15,0.8,22.4c0.9,3.8,5,6.8,8.6,6.6l0,0C374.9,423.6,378.8,420.4,379.4,416.5z"/>
		<g id="XMLID_257_">
			<path id="XMLID_276_" class="st1" d="M358,416.1c2.5-6.9,4.1-14.2,4.3-21.6c0.1-3.8-3.2-7.6-6.8-8.3l0,0c-3.6-0.7-8,1.5-9.4,5.1
				c-2.7,6.9-4.1,14.2-4.3,21.6c-0.1,3.8,3.2,7.6,6.8,8.3l0,0C352.2,421.9,356.6,419.7,358,416.1z"/>
			<path id="XMLID_273_" class="st6" d="M337.8,411c4-6,7.2-12.6,9.1-19.6c1-3.6-1.3-8-4.5-9.4l0,0c-3.4-1.5-8-0.5-10.1,2.6
				c-4.1,5.9-7.2,12.6-9.1,19.6c-1,3.6,1.3,8,4.5,9.4l0,0C330.8,415.1,335.6,414,337.8,411z"/>
			<path id="XMLID_270_" class="st6" d="M319.6,401.5c5.2-4.8,9.7-10.4,13.1-16.6c1.8-3.3,0.5-7.9-2.2-10l0,0
				c-3-2.3-7.5-2.2-10.3,0.2c-5.3,4.7-9.7,10.4-13.1,16.6c-1.8,3.3-0.5,7.9,2.2,10l0,0C312,403.9,316.8,403.9,319.6,401.5z"/>
			<path id="XMLID_267_" class="st6" d="M304.1,388.3c6-3.4,11.6-7.7,16.2-12.9c2.4-2.7,2.3-7.4,0.2-10l0,0
				c-2.4-2.9-6.6-3.8-9.8-2.1c-6.1,3.3-11.6,7.7-16.2,12.9c-2.4,2.7-2.3,7.4-0.2,10l0,0C296.4,388.9,300.9,390,304.1,388.3z"/>
			<path id="XMLID_264_" class="st6" d="M291.9,371.9c6.5-1.9,12.8-4.7,18.4-8.6c2.9-2,3.9-6.5,2.5-9.5l0,0
				c-1.7-3.4-5.4-5.2-8.9-4.2c-6.6,1.8-12.8,4.7-18.4,8.6c-2.9,2-3.9,6.5-2.5,9.5l0,0C284.4,370.7,288.4,372.8,291.9,371.9z"/>
			<path id="XMLID_261_" class="st6" d="M283.6,352.9c6.7-0.3,13.3-1.4,19.5-3.8c3.2-1.2,5.2-5.3,4.6-8.5l0,0
				c-0.9-3.8-4-6.2-7.4-6.1c-6.7,0.1-13.3,1.4-19.5,3.8c-3.2,1.2-5.2,5.3-4.6,8.5l0,0C276.8,349.9,280.2,352.9,283.6,352.9z"/>
			<path id="XMLID_258_" class="st6" d="M280.8,333.3c6.5,0.4,13-0.2,19.3-1.8c3.3-1,5.6-4.6,5.3-7.8l0,0c-0.5-3.9-3.3-6.3-6.7-6.7
				c-6.5-0.4-13,0.2-19.3,1.8c-3.3,1-5.6,4.6-5.3,7.8l0,0C274.5,329.8,277.4,333,280.8,333.3z"/>
		</g>
	</g>
	<g id="XMLID_247_">
		<path id="XMLID_255_" class="st7" d="M379.4,416.5c0.9-7.5,0.6-15-0.8-22.4c-0.9-3.8-5-6.8-8.6-6.6l0,0c-3.7,0.1-7.5,3.3-8.2,7.2
			c-0.9,7.5-0.6,15,0.8,22.4c0.9,3.8,5,6.8,8.6,6.6l0,0C374.9,423.6,378.8,420.4,379.4,416.5z"/>
		<path id="XMLID_254_" class="st7" d="M358,416.1c2.5-6.9,4.1-14.2,4.3-21.6c0.1-3.8-3.2-7.6-6.8-8.3l0,0c-3.6-0.7-8,1.5-9.4,5.1
			c-2.7,6.9-4.1,14.2-4.3,21.6c-0.1,3.8,3.2,7.6,6.8,8.3l0,0C352.2,421.9,356.6,419.7,358,416.1z"/>
		<path id="XMLID_253_" class="st7" d="M337.8,411c4-6,7.2-12.6,9.1-19.6c1-3.6-1.3-8-4.5-9.4l0,0c-3.4-1.5-8-0.5-10.1,2.6
			c-4.1,5.9-7.2,12.6-9.1,19.6c-1,3.6,1.3,8,4.5,9.4l0,0C330.8,415.1,335.6,414,337.8,411z"/>
		<path id="XMLID_252_" class="st7" d="M319.6,401.5c5.2-4.8,9.7-10.4,13.1-16.6c1.8-3.3,0.5-7.9-2.2-10l0,0
			c-3-2.3-7.5-2.2-10.3,0.2c-5.3,4.7-9.7,10.4-13.1,16.6c-1.8,3.3-0.5,7.9,2.2,10l0,0C312,403.9,316.8,403.9,319.6,401.5z"/>
		<path id="XMLID_251_" class="st7" d="M304.1,388.3c6-3.4,11.6-7.7,16.2-12.9c2.4-2.7,2.3-7.4,0.2-10l0,0c-2.4-2.9-6.6-3.8-9.8-2.1
			c-6.1,3.3-11.6,7.7-16.2,12.9c-2.4,2.7-2.3,7.4-0.2,10l0,0C296.4,388.9,300.9,390,304.1,388.3z"/>
		<path id="XMLID_250_" class="st7" d="M291.9,371.9c6.5-1.9,12.8-4.7,18.4-8.6c2.9-2,3.9-6.5,2.5-9.5l0,0c-1.7-3.4-5.4-5.2-8.9-4.2
			c-6.6,1.8-12.8,4.7-18.4,8.6c-2.9,2-3.9,6.5-2.5,9.5l0,0C284.4,370.7,288.4,372.8,291.9,371.9z"/>
		<path id="XMLID_249_" class="st7" d="M283.6,352.9c6.7-0.3,13.3-1.4,19.5-3.8c3.2-1.2,5.2-5.3,4.6-8.5l0,0c-0.9-3.8-4-6.2-7.4-6.1
			c-6.7,0.1-13.3,1.4-19.5,3.8c-3.2,1.2-5.2,5.3-4.6,8.5l0,0C276.8,349.9,280.2,352.9,283.6,352.9z"/>
		<path id="XMLID_248_" class="st7" d="M280.8,333.3c6.5,0.4,13-0.2,19.3-1.8c3.3-1,5.6-4.6,5.3-7.8l0,0c-0.5-3.9-3.3-6.3-6.7-6.7
			c-6.5-0.4-13,0.2-19.3,1.8c-3.3,1-5.6,4.6-5.3,7.8l0,0C274.5,329.8,277.4,333,280.8,333.3z"/>
	</g>
	<path id="XMLID_191_" class="st3" d="M278.5,265.7v19.5c0,5.3,4.3,9.6,9.6,9.6c5.3,0,9.6-4.3,9.6-9.6v-12.8H317v16.4
		c0,16-12.9,28.9-28.9,28.9l0,0c-16,0-28.9-12.9-28.9-28.9v-23.1H278.5L278.5,265.7z"/>
	<path id="XMLID_183_" class="st5" d="M294,292.9c2.3-1.8,3.8-4.5,3.8-7.6V277c0-0.8,0.1-1.7,0.1-2.5c0-0.7,0-1.3,0-2h19.2v16.4
		c0,16-12.9,28.9-28.9,28.9l0,0c-5.2,0-10.1-1.4-14.3-3.8C282.7,309.7,289.9,302.2,294,292.9z"/>
	<path id="XMLID_84_" class="st4" d="M278.5,265.7v19.5c0,5.3,4.3,9.6,9.6,9.6c5.3,0,9.6-4.3,9.6-9.6v-12.8H317v16.4
		c0,16-12.9,28.9-28.9,28.9l0,0c-16,0-28.9-12.9-28.9-28.9v-23.1H278.5L278.5,265.7z"/>
	<path id="XMLID_52_" class="st5" d="M608.7,220.1h-16v-82h16c4.4,0,8,3.6,8,8v66C616.7,216.6,613.1,220.1,608.7,220.1z"/>
	<path id="XMLID_20_" class="st8" d="M608.7,138.1h-16v11h16c4.4,0,8,3.6,8,8v-11C616.7,141.7,613.1,138.1,608.7,138.1z"/>
	<path id="XMLID_15_" class="st4" d="M608.7,220.1h-16v-82h16c4.4,0,8,3.6,8,8v66C616.7,216.6,613.1,220.1,608.7,220.1z"/>
	<line id="XMLID_93_" class="st4" x1="392.9" y1="179.1" x2="356.9" y2="179.1"/>
	<circle id="XMLID_69_" class="st5" cx="340.9" cy="179.1" r="16"/>
	<circle id="XMLID_92_" class="st4" cx="340.9" cy="179.1" r="16"/>
	<path id="XMLID_67_" class="st5" d="M396.7,220.1h16v-82h-16c-4.4,0-8,3.6-8,8v66C388.7,216.6,392.3,220.1,396.7,220.1z"/>
	<path id="XMLID_23_" class="st9" d="M396.7,138.1c-4.4,0-8,3.6-8,8v11c0-4.4,3.6-8,8-8h16v-11C412.7,138.1,396.7,138.1,396.7,138.1
		z"/>
	<path id="XMLID_94_" class="st4" d="M396.7,220.1h16v-82h-16c-4.4,0-8,3.6-8,8v66C388.7,216.6,392.3,220.1,396.7,220.1z"/>
	<path id="XMLID_5_" class="st4" d="M608.7,220.1h-16v-82h16c4.4,0,8,3.6,8,8v66C616.7,216.6,613.1,220.1,608.7,220.1z"/>
	<path id="XMLID_4_" class="st4" d="M396.7,220.1h16v-82h-16c-4.4,0-8,3.6-8,8v66C388.7,216.6,392.3,220.1,396.7,220.1z"/>
	<path id="XMLID_88_" class="st2" d="M556.7,273.1h-108c-22.1,0-40-17.9-40-40v-108c0-22.1,17.9-40,40-40h108c22.1,0,40,17.9,40,40
		v108C596.7,255.2,578.8,273.1,556.7,273.1z"/>
	<path id="XMLID_39_" class="st2" d="M556.7,273.1h-108c-22.1,0-40-17.9-40-40v-108c0-22.1,17.9-40,40-40h108c22.1,0,40,17.9,40,40
		v108C596.7,255.2,578.8,273.1,556.7,273.1z"/>
	<path id="XMLID_108_" class="st2" d="M556.7,273.1h-108c-22.1,0-40-17.9-40-40v-108c0-22.1,17.9-40,40-40h108c22.1,0,40,17.9,40,40
		v108C596.7,255.2,578.8,273.1,556.7,273.1z"/>
	<path id="XMLID_133_" class="st8" d="M556.7,85.1h-108c-22.1,0-40,17.9-40,40v9.9c0-22.1,17.9-40,40-40h108c22.1,0,40,17.9,40,40
		v-9.9C596.7,103,578.8,85.1,556.7,85.1z"/>
	<path id="XMLID_154_" class="st5" d="M556.7,256.7h-108c-22.1,0-40-13-40-35.1v11.5c0,22.1,17.9,40,40,40h108c22.1,0,40-17.9,40-40
		v-11.5C596.7,243.8,578.8,256.7,556.7,256.7z"/>
	<path id="XMLID_2_" class="st4" d="M556.7,273.1h-108c-22.1,0-40-17.9-40-40v-108c0-22.1,17.9-40,40-40h108c22.1,0,40,17.9,40,40
		v108C596.7,255.2,578.8,273.1,556.7,273.1z"/>
	<ellipse id="XMLID_90_" class="st10" cx="502.7" cy="85.1" rx="40" ry="22"/>
	<ellipse id="XMLID_76_" class="st11" cx="502.7" cy="85.1" rx="40" ry="22"/>
	<ellipse id="XMLID_38_" class="st2" cx="502.7" cy="85.1" rx="40" ry="18.9"/>
	<path id="XMLID_126_" class="st5" d="M541.4,80.6c-3,10.5-19.5,13.5-39.5,13.5c-18.6,0-34.2-1.9-38.7-11.3
		c-0.3,1.1-0.5-1.8-0.5-0.6c0,12.1,17.9,21.9,40,21.9c22.1,0,40-9.8,40-21.9C542.7,80.2,542.2,82.3,541.4,80.6z"/>
	<ellipse id="XMLID_6_" class="st4" cx="502.7" cy="85.1" rx="40" ry="18.9"/>
	
		<ellipse id="XMLID_74_" transform="matrix(0.7071 -0.7071 0.7071 0.7071 21.1659 407.6921)" class="st12" cx="502.7" cy="178.3" rx="42.1" ry="42.1"/>
	
		<ellipse id="XMLID_89_" transform="matrix(0.329 -0.9443 0.9443 0.329 175.2619 589.8557)" class="st9" cx="502.7" cy="171.6" rx="42.1" ry="42.1"/>
	
		<ellipse id="XMLID_7_" transform="matrix(0.329 -0.9443 0.9443 0.329 175.2619 589.8557)" class="st4" cx="502.7" cy="171.6" rx="42.1" ry="42.1"/>
	<circle id="XMLID_58_" class="st13" cx="501.9" cy="181" r="20.9"/>
	<circle id="XMLID_54_" class="st4" cx="501.9" cy="181" r="20.9"/>
	<circle id="XMLID_55_" class="st1" cx="501.9" cy="181" r="11.1"/>
	<g id="XMLID_107_">
		<g id="XMLID_239_">
			<line id="XMLID_246_" class="st14" x1="546.9" y1="240.7" x2="546.9" y2="248.7"/>
			<line id="XMLID_245_" class="st14" x1="532.1" y1="239.1" x2="532.1" y2="250.4"/>
			<line id="XMLID_244_" class="st14" x1="517.4" y1="237.4" x2="517.4" y2="252.1"/>
			<line id="XMLID_243_" class="st14" x1="502.7" y1="235.7" x2="502.7" y2="253.7"/>
			<line id="XMLID_242_" class="st14" x1="458.5" y1="240.7" x2="458.5" y2="248.7"/>
			<line id="XMLID_241_" class="st14" x1="473.2" y1="239.1" x2="473.2" y2="250.4"/>
			<line id="XMLID_240_" class="st14" x1="488" y1="237.4" x2="488" y2="252.1"/>
		</g>
	</g>
	<g id="XMLID_8_">
		<g id="XMLID_220_">
			<line id="XMLID_227_" class="st4" x1="546.9" y1="237.7" x2="546.9" y2="245.7"/>
			<line id="XMLID_226_" class="st4" x1="532.1" y1="236.1" x2="532.1" y2="247.4"/>
			<line id="XMLID_225_" class="st4" x1="517.4" y1="234.4" x2="517.4" y2="249.1"/>
			<line id="XMLID_224_" class="st4" x1="502.7" y1="232.7" x2="502.7" y2="250.7"/>
			<line id="XMLID_223_" class="st4" x1="458.5" y1="237.7" x2="458.5" y2="245.7"/>
			<line id="XMLID_222_" class="st4" x1="473.2" y1="236.1" x2="473.2" y2="247.4"/>
			<line id="XMLID_221_" class="st4" x1="488" y1="234.4" x2="488" y2="249.1"/>
		</g>
	</g>
	<rect id="XMLID_91_" x="486.7" y="273.1" class="st3" width="32" height="44"/>
	<rect id="XMLID_87_" x="486.7" y="273.1" class="st1" width="32" height="16.4"/>
	<rect id="XMLID_18_" x="486.7" y="273.1" class="st4" width="32" height="44"/>
	<path id="XMLID_95_" class="st2" d="M638.3,424.2c-18.4,50-49.4,93.9-89.1,127.9c-26.7,22.9-66.3,22.9-93,0
		c-39.7-34-70.7-77.9-89.1-127.9c-14.5-39.3,7.3-82.4,47.4-94.3c27.9-8.3,57.5-12.8,88.2-12.8s60.2,4.5,88.2,12.8
		C631,341.8,652.8,384.9,638.3,424.2z"/>
	<path id="XMLID_119_" class="st2" d="M638.3,424.2c-18.4,50-49.4,93.9-89.1,127.9c-26.7,22.9-66.3,22.9-93,0
		c-39.7-34-70.7-77.9-89.1-127.9c-14.5-39.3,7.3-82.4,47.4-94.3c27.9-8.3,57.5-12.8,88.2-12.8s60.2,4.5,88.2,12.8
		C631,341.8,652.8,384.9,638.3,424.2z"/>
	<path id="XMLID_195_" class="st8" d="M414.5,337.9c27.9-8.3,57.5-12.8,88.2-12.8s60.2,4.5,88.2,12.8c30.3,9,50.1,35.7,51.8,65.2
		c1.8-32.5-18.8-63.4-51.8-73.2c-27.9-8.3-57.5-12.8-88.2-12.8s-60.2,4.5-88.2,12.8c-33,9.8-53.6,40.7-51.8,73.2
		C364.4,373.7,384.2,346.9,414.5,337.9z"/>
	<path id="XMLID_175_" class="st3" d="M551.3,518c-27.9,22.9-69.4,22.9-97.3,0c-40.2-32.9-71.8-75-91.3-122.9
		c-0.5,9.6,0.8,19.5,4.4,29.1c18.4,50,49.4,93.9,89.1,127.9c26.7,22.9,66.3,22.9,93,0c39.7-34,70.7-77.9,89.1-127.9
		c3.6-9.6,4.9-19.5,4.4-29.1C623.2,443,591.5,485.1,551.3,518z"/>
	<path id="XMLID_28_" class="st4" d="M638.3,424.2c-18.4,50-49.4,93.9-89.1,127.9c-26.7,22.9-66.3,22.9-93,0
		c-39.7-34-70.7-77.9-89.1-127.9c-14.5-39.3,7.3-82.4,47.4-94.3c27.9-8.3,57.5-12.8,88.2-12.8s60.2,4.5,88.2,12.8
		C631,341.8,652.8,384.9,638.3,424.2z"/>
	
		<linearGradient id="XMLID_3_" gradientUnits="userSpaceOnUse" x1="502.65" y1="445" x2="502.65" y2="381" gradientTransform="matrix(1 0 0 1 0 2)">
		<stop  offset="0" style="stop-color:#57AA62"/>
		<stop  offset="1" style="stop-color:#9BA640"/>
	</linearGradient>
	<path id="XMLID_96_" class="st15" d="M547,447h-88.7c-6.4,0-11.7-5.2-11.7-11.7v-40.7c0-6.4,5.2-11.7,11.7-11.7H547
		c6.4,0,11.7,5.2,11.7,11.7v40.7C558.7,441.8,553.5,447,547,447z"/>
	<polyline id="XMLID_21_" class="st16" points="446.7,429 460.8,404.8 472.2,438.6 488.3,401.9 500.8,428.3 509.8,394.3 
		526.2,438.6 540.9,402.4 558.7,428.3 	"/>
	<path id="XMLID_103_" class="st17" d="M548.6,403.1h-91.9c-5.6,0-10.1-4.5-10.1-10.1l0,0c0-5.6,4.5-10.1,10.1-10.1h91.9
		c5.6,0,10.1,4.5,10.1,10.1l0,0C558.7,398.6,554.2,403.1,548.6,403.1z"/>
	<path id="XMLID_19_" class="st7" d="M547,447h-88.7c-6.4,0-11.7-5.2-11.7-11.7v-40.7c0-6.4,5.2-11.7,11.7-11.7H547
		c6.4,0,11.7,5.2,11.7,11.7v40.7C558.7,441.8,553.5,447,547,447z"/>
	<ellipse id="XMLID_51_" class="st8" cx="502.7" cy="79.5" rx="13.5" ry="5.6"/>
	<ellipse id="XMLID_70_" class="st9" cx="501.4" cy="173.1" rx="6.3" ry="4.9"/>
	<ellipse id="XMLID_116_" class="st8" cx="666.1" cy="174.1" rx="5.2" ry="4"/>
	<ellipse id="XMLID_134_" class="st8" cx="339.3" cy="174.1" rx="5.2" ry="4"/>
	<circle id="XMLID_25_" class="st3" cx="503.3" cy="469.7" r="11.7"/>
	<circle id="XMLID_9_" class="st18" cx="503.3" cy="469.7" r="11.7"/>
	<path id="XMLID_37_" class="st1" d="M509.8,467.3l-1.3-2.2c-0.2-0.3-0.6-0.5-1-0.3l0,0c-1.1,0.6-2.4-0.2-2.4-1.4l0,0
		c0-0.4-0.3-0.7-0.7-0.7h-2.5c-0.4,0-0.7,0.3-0.7,0.7l0,0c0,1.2-1.3,2-2.4,1.4l0,0c-0.3-0.2-0.8-0.1-1,0.3l-1.3,2.2
		c-0.2,0.3-0.1,0.8,0.3,1l0,0c1.1,0.6,1.1,2.1,0,2.7l0,0c-0.3,0.2-0.5,0.6-0.3,1l1.3,2.2c0.2,0.3,0.6,0.5,1,0.3l0,0
		c1.1-0.6,2.4,0.2,2.4,1.4l0,0c0,0.4,0.3,0.7,0.7,0.7h2.5c0.4,0,0.7-0.3,0.7-0.7l0,0c0-1.2,1.3-2,2.4-1.4l0,0c0.3,0.2,0.8,0.1,1-0.3
		l1.3-2.2c0.2-0.3,0.1-0.8-0.3-1l0,0c-1.1-0.6-1.1-2.1,0-2.7l0,0C509.9,468.1,510,467.7,509.8,467.3z"/>
</g>
</svg>
