<?xml version="1.0" encoding="utf-8"?>
<!-- Generator: Adobe Illustrator 22.0.0, SVG Export Plug-In . SVG Version: 6.00 Build 0)  -->
<svg version="1.1" id="Layer_1" xmlns="http://www.w3.org/2000/svg" xmlns:xlink="http://www.w3.org/1999/xlink" x="0px" y="0px"
	 viewBox="0 0 1000 750" style="enable-background:new 0 0 1000 750;" xml:space="preserve">
<style type="text/css">
	.st0{fill:#217775;}
	.st1{fill:#2B2727;}
	.st2{fill:#723820;}
	.st3{fill:#5B341A;}
	.st4{fill:#794022;}
	.st5{opacity:0.44;fill:#723820;enable-background:new    ;}
	.st6{fill:none;stroke:#2F1313;stroke-width:6;stroke-linecap:round;stroke-linejoin:round;stroke-miterlimit:10;}
	.st7{fill:#C9C9C9;}
	.st8{fill:#B5B6B6;}
	.st9{fill:#F05347;}
	.st10{fill:#DC493E;}
	.st11{fill:#AB3A30;}
	.st12{fill:#ACACAC;}
	.st13{fill:#3C6AAA;}
	.st14{fill:#375E98;}
	.st15{opacity:0.23;fill:#723820;enable-background:new    ;}
	.st16{fill:#E1E2E1;}
	.st17{fill:#FDC558;}
	.st18{fill:#F2B24D;}
	.st19{fill:#333C41;}
	.st20{fill:#2E363A;}
	.st21{fill:#7E4126;}
	.st22{opacity:8.000000e-02;}
	.st23{fill:none;stroke:#2F1313;stroke-width:5.8435;stroke-linecap:round;stroke-linejoin:round;stroke-miterlimit:10;}
	.st24{fill:none;stroke:#2F1313;stroke-width:7.8052;stroke-linecap:round;stroke-linejoin:round;stroke-miterlimit:10;}
	.st25{fill:none;stroke:#2F1313;stroke-width:5.3519;stroke-linecap:round;stroke-linejoin:round;stroke-miterlimit:10;}
	.st26{fill:#D98C3E;}
	.st27{fill:#C87634;}
	.st28{fill:none;stroke:#CF8137;stroke-width:6;stroke-linecap:round;stroke-linejoin:round;stroke-miterlimit:10;}
	.st29{fill:none;stroke:#CF8137;stroke-width:4.9126;stroke-linecap:round;stroke-linejoin:round;stroke-miterlimit:10;}
</style>
<rect id="XMLID_22_" x="-0.5" class="st0" width="1000.5" height="750"/>
<path id="XMLID_30_" class="st1" d="M785.2,563H191.1c-13.4,0-24.2-10.8-24.2-24.2l0,0c0-13.4,10.8-24.2,24.2-24.2h594.1
	c13.4,0,24.2,10.8,24.2,24.2l0,0C809.4,552.1,798.6,563,785.2,563z"/>
<path id="XMLID_46_" class="st2" d="M705.8,299.9V248c0-19.9-16.1-36-36-36l0,0c-19.9,0-36,16.1-36,36v51.8c0,33.1-26.9,60-60,60
	l0,0v152c0,13.3,10.7,24,24,24h144c13.3,0,24-10.7,24-24v-152l0,0C732.6,359.9,705.8,333,705.8,299.9z"/>
<rect id="XMLID_2_" x="655.8" y="212" class="st2" width="16.4" height="8.3"/>
<path id="XMLID_43_" class="st3" d="M691.8,299.9V248c0-19.9-16.1-36-36-36l0,0c-19.9,0-36,16.1-36,36v51.8c0,33.1-26.9,60-60,60
	l0,0v152c0,13.3,10.7,24,24,24h144c13.3,0,24-10.7,24-24v-152l0,0C718.6,359.9,691.8,333,691.8,299.9z"/>
<path id="XMLID_20_" class="st3" d="M751.8,359.9L751.8,359.9c-22.6,0-42.2-12.5-52.5-30.9l-55.5,22.4L615.7,367l66.6,10.4
	l69.5-13.8V359.9z"/>
<circle id="XMLID_31_" class="st4" cx="655.8" cy="248.7" r="12"/>
<rect id="XMLID_1_" x="310.8" y="212" class="st2" width="14" height="3.7"/>
<rect id="XMLID_28_" x="310.8" y="236.7" class="st4" width="345.1" height="24"/>
<rect id="XMLID_101_" x="442.7" y="236.7" class="st5" width="15.9" height="23.8"/>
<rect id="XMLID_134_" x="355.9" y="236.7" class="st5" width="25.1" height="23.8"/>
<rect id="XMLID_103_" x="551.8" y="236.7" class="st5" width="22" height="23.8"/>
<g id="XMLID_82_">
	<path id="XMLID_11_" class="st6" d="M331,203.7c1.2,8.3,8.1,53.2,41.3,68.7c4,1.9,20.1,9.4,28.7,2.7c11.3-8.9-3.1-33.2,9.3-48
		c8-9.6,23.7-11,34-9.3c35.6,5.9,36.3,54.3,70.7,62c21.8,4.9,44.8-9.3,56.7-16.7c24.8-15.3,29.2-31.7,44-32
		c9.1-0.2,22.5,5.6,39.3,35.3"/>
	<path id="XMLID_10_" class="st6" d="M358.3,223c-3.8,5.8-4.4,13-1.3,18.7c3,5.5,8.3,7.5,10,8c1.8,0.6,8.3,2.3,14-1.3
		c5.6-3.6,8.4-11.1,6.7-18.7"/>
	<path id="XMLID_95_" class="st6" d="M421.6,263c-0.5-1.4-4.9-14.1,2.7-25.3c0.4-0.7,6.9-10.1,15.3-10.7
		c11.9-0.9,26.6,15.9,31.3,43.3"/>
	<path id="XMLID_96_" class="st6" d="M437.6,245c-3.4,1.7-4,8.6-2,13.3c0.4,0.9,2.9,6.6,7.3,6.7c4.3,0.1,8.2-5.3,8-10
		C450.7,248.2,441.8,243,437.6,245z"/>
	<path id="XMLID_97_" class="st6" d="M495,222.4c0.3,3.3,1.2,9.6,5.3,16c5.9,9.2,14.3,12.8,17.3,14c2.9,1.2,12.1,4.8,22.7,2
		c7-1.8,9.8-5.3,27.3-21.3c6.1-5.6,11.1-10,14-12.7"/>
	<path id="XMLID_98_" class="st6" d="M599,267c0.9-8.2,6.3-14.8,13.3-16.7c0.7-0.2,9.9-2.5,16,4c4.4,4.7,4.1,10.8,4,12"/>
	<path id="XMLID_99_" class="st6" d="M527,225c0,9.1,4.4,15.8,9.3,16.7c4.2,0.7,8.2-3,10-4.7c5-4.6,6.3-10.4,6.7-12.7"/>
</g>
<g id="XMLID_107_">
	<polygon id="XMLID_26_" class="st7" points="433,228.2 432.9,228.2 424.2,204.8 424.2,204.8 424.2,204.8 424.2,204.8 424.2,204.8 
		431.3,172.2 450.2,172.2 457.4,204.8 457.4,204.8 457.4,204.8 457.4,204.8 457.4,204.8 448.6,228.2 448.6,228.2 448.6,298.5 
		433,298.5 	"/>
	<polygon id="XMLID_24_" class="st8" points="443.6,228.2 452.4,204.8 452.4,204.8 452.4,204.8 452.4,204.8 445.2,172.2 
		450.2,172.2 457.4,204.8 457.4,204.8 457.4,204.8 457.4,204.8 448.6,228.2 448.6,228.2 448.6,298.5 443.6,298.5 	"/>
	<path id="XMLID_15_" class="st9" d="M416.7,443.4V329.3c0-5.5,3.3-10.3,8.1-12.3c2-0.8,2.3-3.5,0.6-4.9l-6.7-5.6
		c-1.8-1.5-2.8-3.7-2.8-6v-5.3c0-2,1.6-3.6,3.6-3.6h42.4c2,0,3.6,1.6,3.6,3.6v5.3c0,2.3-1,4.5-2.8,6l-6.7,5.6
		c-1.6,1.4-1.3,4,0.6,4.9c4.8,2.1,8.1,6.8,8.1,12.3v114.1c0,7.4-6,13.4-13.4,13.4h-21.4C422.7,456.9,416.7,450.8,416.7,443.4z"/>
	<path id="XMLID_16_" class="st10" d="M456.9,443.4V329.3c0-5.5-3.3-10.3-8.1-12.3c-2-0.8-2.3-3.5-0.6-4.9l6.7-5.6
		c1.8-1.5,2.8-3.7,2.8-6v-5.3c0-2-1.6-3.6-3.6-3.6h8c2,0,3.6,1.6,3.6,3.6v5.3c0,2.3-1,4.5-2.8,6l-6.7,5.6c-1.6,1.4-1.3,4,0.6,4.9
		c4.8,2.1,8.1,6.8,8.1,12.3v114.1c0,7.4-6,13.4-13.4,13.4h-8C450.9,456.9,456.9,450.8,456.9,443.4z"/>
	<path id="XMLID_23_" class="st11" d="M436.5,437.3V342c0-2.8-2.2-5-5-5l0,0c-2.8,0-5,2.2-5,5v95.3c0,2.8,2.2,5,5,5l0,0
		C434.3,442.3,436.5,440,436.5,437.3z"/>
	<path id="XMLID_25_" class="st11" d="M455,437.3V342c0-2.8-2.2-5-5-5l0,0c-2.8,0-5,2.2-5,5v95.3c0,2.8,2.2,5,5,5l0,0
		C452.8,442.3,455,440,455,437.3z"/>
</g>
<g id="XMLID_108_">
	<path id="XMLID_9_" class="st7" d="M582.9,171.7c-1.6,1.8-4,4.4-6,6.6c-2.1,2.3-5.6,2.7-8.2,0.8c-5.7-4.1-15.1-11.2-27-12.1
		c-17.2-1.4-28.8,4.7-39.3,12.9c-15.5,12.2-25.3,26.8-30.5,35.8c3.9,3.4,5.6,4.4,8.6,6.9c4.9-5.1,14.5-15.8,28.1-19.2
		c2.1-0.5,5.8-1.4,10.2,0c1.5,0.5,4.3,1.6,6.8,4.4c4.3,4.8,4,10.7,4,12v38.8h25.5v-37.1c-0.5-6.5,2.3-12.5,7.2-15
		c0.4-0.2,5.2-2.6,9.9-0.8c3.4,1.3,7.6,5.2,10.8,8.3c0.3,0.3,1.1,1,2.4,1.5c0.7,0.2,1.5,0.4,2.2,0.3c4.6-0.1,14-0.3,20.5-0.6
		c3.1-0.1,5.5-2.6,5.5-5.7v-33.8c0-3.1-2.5-5.6-5.6-5.7c-6.2-0.1-15-0.3-20.3-0.4C585.9,169.6,584.1,170.4,582.9,171.7z"/>
	<g id="XMLID_12_">
		<path id="XMLID_27_" class="st12" d="M516.7,201.6c-2.8-3.2-6.2-4.5-7.8-5.1c-5-1.6-9.4-0.6-11.8,0c-7.5,1.8-13.9,5.6-19.2,9.7
			c-2.4,3.5-4.4,6.7-6,9.4c3.9,3.4,5.6,4.4,8.6,6.9c4.9-5.1,14.5-15.8,28.1-19.2c1.9-0.5,5.3-1.3,9.3-0.3
			C517.6,202.7,517.2,202.2,516.7,201.6z"/>
		<path id="XMLID_44_" class="st12" d="M612.2,210.2c-7.5,0.2-18.4,0.5-23.7,0.6c-0.9,0-1.8-0.1-2.6-0.4c-1.5-0.5-2.5-1.4-2.8-1.7
			c-3.7-3.5-8.6-8-12.5-9.5c-5.4-2.1-11,0.8-11.4,1c-5.6,3-8.8,9.8-8.3,17.4v41.2h4.3v-37.1c-0.5-6.5,2.3-12.5,7.2-15
			c0.4-0.2,5.2-2.6,9.9-0.8c3.4,1.3,7.6,5.2,10.8,8.3c0.3,0.3,1.1,1,2.4,1.5c0.7,0.2,1.5,0.4,2.2,0.3c4.6-0.1,14-0.3,20.5-0.6
			c2.9-0.1,5.3-2.4,5.5-5.2C613.2,210.1,612.7,210.2,612.2,210.2z"/>
	</g>
	<path id="XMLID_4_" class="st13" d="M545.5,435.7h-4.8c-12.6,0-22.6-12.4-22.2-27.3l4.7-149.7H563l4.7,149.7
		C568.1,423.3,558.1,435.7,545.5,435.7z"/>
	<path id="XMLID_93_" class="st14" d="M567.7,408.4L563,258.7h-9.7l4.7,149.7c0.4,13.9-8.3,25.6-19.7,27.1c0.8,0.1,1.6,0.2,2.4,0.2
		h4.8C558.1,435.7,568.1,423.3,567.7,408.4z"/>
	<path id="XMLID_7_" class="st14" d="M568.2,270.8H518c-3.3,0-6-2.7-6-6l0,0c0-3.3,2.7-6,6-6h50.2c3.3,0,6,2.7,6,6l0,0
		C574.2,268.1,571.5,270.8,568.2,270.8z"/>
</g>
<polygon id="XMLID_102_" class="st15" points="521.3,324.5 564,295.1 564.9,322.2 520.6,347 "/>
<g id="XMLID_109_">
	<polygon id="XMLID_70_" class="st7" points="681.7,209.6 416,415.4 467.9,482.3 762.2,312.5 	"/>
	<polygon id="XMLID_65_" class="st16" points="750.6,295.7 455.1,465.7 468.3,482.6 758.5,314.6 	"/>
	<path id="XMLID_13_" class="st17" d="M822.9,244.7l-54.7-70.6c-8.4-10.9-24.1-12.9-35-4.4l-5.8,4.5l20.4,26.3l0,0
		c1.4-0.5,2.8-0.7,4.3-0.7h0.1c0.3,0,0.7,0,1,0c0.1,0,0.1,0,0.2,0c0.9,0.1,1.9,0.2,2.8,0.5c0.1,0,0.3,0.1,0.4,0.1
		c0.2,0.1,0.4,0.1,0.7,0.2c0.2,0.1,0.4,0.1,0.6,0.2c0.2,0.1,0.4,0.2,0.6,0.2c0.2,0.1,0.5,0.2,0.7,0.3c0.1,0.1,0.3,0.1,0.4,0.2
		c0.4,0.2,0.7,0.4,1,0.7c0.1,0.1,0.2,0.2,0.4,0.3c0.2,0.2,0.5,0.4,0.7,0.5c0.1,0.1,0.2,0.2,0.4,0.3c0.2,0.2,0.4,0.4,0.7,0.6
		c0.1,0.1,0.2,0.2,0.3,0.3c0.3,0.3,0.6,0.7,0.9,1l26,33.6c0.3,0.4,0.5,0.7,0.8,1.1c0.1,0.1,0.1,0.2,0.2,0.4c0.2,0.3,0.3,0.5,0.4,0.8
		c0.1,0.1,0.1,0.3,0.2,0.4c0.1,0.3,0.2,0.5,0.4,0.8c0.1,0.1,0.1,0.3,0.2,0.4c0.1,0.4,0.3,0.8,0.4,1.2c0,0.2,0.1,0.3,0.1,0.5
		c0.1,0.3,0.1,0.5,0.2,0.8c0,0.2,0.1,0.4,0.1,0.6s0,0.4,0.1,0.6c0,0.2,0,0.5,0.1,0.7c0,0.2,0,0.3,0,0.5c0,1-0.1,1.9-0.2,2.8
		c0,0.1,0,0.1,0,0.2c-0.1,0.3-0.1,0.6-0.2,1v0.1c-0.4,1.4-1,2.7-1.8,4l0,0l21.6,27.9l3.4-2C828.8,274.1,832.2,256.7,822.9,244.7z"/>
	<g id="XMLID_135_">
		<path id="XMLID_146_" class="st18" d="M784.2,231.5l-26-33.6c-0.3-0.4-0.6-0.7-0.9-1c-0.1-0.1-0.2-0.2-0.3-0.3
			c-0.2-0.2-0.4-0.4-0.7-0.6c-0.1-0.1-0.2-0.2-0.4-0.3c-0.2-0.2-0.5-0.4-0.7-0.5c-0.1-0.1-0.2-0.2-0.4-0.3c-0.3-0.2-0.7-0.5-1-0.7
			c-0.1-0.1-0.3-0.1-0.4-0.2c-0.2-0.1-0.5-0.2-0.7-0.3c-0.2-0.1-0.4-0.2-0.6-0.2c-0.2-0.1-0.4-0.1-0.6-0.2c-0.2-0.1-0.4-0.2-0.7-0.2
			c-0.1,0-0.3-0.1-0.4-0.1c-0.9-0.3-1.9-0.4-2.8-0.5c-0.1,0-0.1,0-0.2,0c-0.3,0-0.7,0-1,0h-0.1c-1.4,0-2.9,0.3-4.3,0.7l0,0
			l-14.5-19.1l0,0l20.4,26.3l0,0c1.4-0.5,2.8-0.7,4.3-0.7h0.1c0.3,0,0.7,0,1,0c0.1,0,0.1,0,0.2,0c0.9,0.1,1.9,0.2,2.8,0.5
			c0.1,0,0.3,0.1,0.4,0.1c0.2,0.1,0.4,0.1,0.7,0.2c0.2,0.1,0.4,0.1,0.6,0.2c0.2,0.1,0.4,0.2,0.6,0.2c0.2,0.1,0.5,0.2,0.7,0.3
			c0.1,0.1,0.3,0.1,0.4,0.2c0.4,0.2,0.7,0.4,1,0.7c0.1,0.1,0.2,0.2,0.4,0.3c0.2,0.2,0.5,0.4,0.7,0.5c0.1,0.1,0.2,0.2,0.4,0.3
			c0.2,0.2,0.4,0.4,0.7,0.6c0.1,0.1,0.2,0.2,0.3,0.3c0.3,0.3,0.6,0.7,0.9,1l20.7,26.7C784.5,231.9,784.3,231.7,784.2,231.5z"/>
		<path id="XMLID_149_" class="st18" d="M822.9,244.7l-4.9-6.3c8.2,11.9,4.6,28.4-8.1,35.8l-3.4,2l-15.8-20.5l0,0l0,0l21.6,27.9
			l3.4-2C828.8,274.1,832.2,256.7,822.9,244.7z"/>
	</g>
	<g id="XMLID_45_">
		<path id="XMLID_66_" class="st19" d="M761.7,203.1L761.7,203.1L761.7,203.1L761.7,203.1z"/>
		<path id="XMLID_67_" class="st19" d="M760.6,202.3c-0.3-0.2-0.7-0.5-1-0.7l0,0C759.9,201.8,760.3,202.1,760.6,202.3L760.6,202.3z"
			/>
		<path id="XMLID_68_" class="st19" d="M762,203.4L762,203.4c0.2,0.2,0.4,0.4,0.6,0.6C762.5,203.8,762.3,203.6,762,203.4z"/>
		<path id="XMLID_72_" class="st19" d="M759.2,201.4c-0.2-0.1-0.5-0.2-0.7-0.3l0,0C758.7,201.2,758.9,201.3,759.2,201.4L759.2,201.4
			z"/>
		<path id="XMLID_76_" class="st19" d="M754.8,199.9C754.8,199.9,754.8,200,754.8,199.9C754.8,200,754.8,200,754.8,199.9z"/>
		<path id="XMLID_77_" class="st19" d="M752.3,199.7C752.2,199.7,752.2,199.7,752.3,199.7C752.2,199.7,752.2,199.7,752.3,199.7
			L752.3,199.7z"/>
		<path id="XMLID_79_" class="st19" d="M792.8,245.9c0,0.2,0,0.4,0.1,0.6l0,0C792.9,246.3,792.8,246.1,792.8,245.9L792.8,245.9z"/>
		<path id="XMLID_81_" class="st19" d="M757.9,200.8c-0.1,0-0.2-0.1-0.3-0.1C757.7,200.8,757.8,200.8,757.9,200.8L757.9,200.8z"/>
		<path id="XMLID_83_" class="st19" d="M753.4,199.8c-0.1,0-0.1,0-0.2,0l0,0C753.3,199.8,753.4,199.8,753.4,199.8L753.4,199.8z"/>
		<path id="XMLID_84_" class="st19" d="M792.7,245c0,0.1,0,0.2,0.1,0.3l0,0C792.7,245.2,792.7,245.1,792.7,245z"/>
		<path id="XMLID_85_" class="st19" d="M792.1,242.9c0.1,0.2,0.2,0.5,0.2,0.8C792.2,243.4,792.2,243.1,792.1,242.9L792.1,242.9z"/>
		<path id="XMLID_86_" class="st19" d="M792.9,247.2L792.9,247.2c0,0.2,0,0.3,0,0.5l0,0C792.9,247.5,792.9,247.4,792.9,247.2z"/>
		<path id="XMLID_87_" class="st19" d="M791.6,241.7c0.1,0.1,0.1,0.3,0.2,0.4C791.7,241.9,791.6,241.8,791.6,241.7L791.6,241.7z"/>
		<path id="XMLID_88_" class="st19" d="M790.6,255.7L790.6,255.7c-0.9,1.4-2,2.6-3.3,3.6l-8.5,6.6c-12.8,9.9-31.1,7.6-41-5.2
			l-8-10.4c-9.9-12.8-7.6-31.1,5.2-41l8.5-6.6c1.3-1,2.8-1.8,4.4-2.3l0,0l0,0l-20.4-26.3l-53.3,41.3l79.2,102.2l62.3-36l-3.4,2
			L790.6,255.7z"/>
		<path id="XMLID_89_" class="st19" d="M790.9,240.4c0.1,0.1,0.2,0.3,0.2,0.4C791.1,240.7,791,240.6,790.9,240.4L790.9,240.4z"/>
		<path id="XMLID_90_" class="st19" d="M789.9,238.9c0.3,0.4,0.5,0.7,0.8,1.1l0,0C790.4,239.7,790.2,239.3,789.9,238.9z"/>
		<path id="XMLID_91_" class="st19" d="M792.7,250.5L792.7,250.5L792.7,250.5z"/>
		<path id="XMLID_92_" class="st19" d="M792.9,249.1L792.9,249.1L792.9,249.1z"/>
	</g>
	<path id="XMLID_19_" class="st17" d="M724.7,171.1"/>
</g>
<polygon id="XMLID_195_" class="st20" points="812.2,283.6 753.3,317.6 747.9,310.7 806.6,276.4 "/>
<path id="XMLID_14_" class="st21" d="M737.8,535.9H387.6v-176h364.1v162C751.8,529.6,745.5,535.9,737.8,535.9z"/>
<circle id="XMLID_49_" class="st4" cx="389" cy="400.3" r="9"/>
<path id="XMLID_3_" class="st2" d="M360.8,299.9V248c0-19.9-16.1-36-36-36l0,0c-19.9,0-36,16.1-36,36v51.8c0,33.1-26.9,60-60,60l0,0
	v152c0,13.3,10.7,24,24,24h144c13.3,0,24-10.7,24-24v-152l0,0C387.6,359.9,360.8,333,360.8,299.9z"/>
<polygon id="XMLID_17_" class="st2" points="741.9,535.9 398.4,535.9 413.4,521.9 754.9,521.9 "/>
<path id="XMLID_42_" class="st2" d="M751.8,359.9v135.4l0,0v16.5c0,5.5-4.5,10-10,10h-16.5l0,0h-27.9v14h44.5c13.3,0,24-10.7,24-24
	v-152h-14.1V359.9z"/>
<g id="XMLID_166_" class="st22">
	<path id="XMLID_147_" class="st6" d="M413.6,485.1c9-15.2,40.8,1.6,26.3,18.3C428.6,516.5,405,499.7,413.6,485.1
		C418.2,477.3,410.1,491,413.6,485.1z"/>
	<path id="XMLID_148_" class="st23" d="M450.5,347.3c0.1,24.3,8.2,60.9,23.3,73.3c30,24.5,124.7-16,126-55.3
		c1.6-48.1-136.5-96.3-155.3-73.3c-5.8,7.1-5.3,27.6-1.7,28.7c1.2,0.4,2.3-2.2,3.7-1.9C450.7,319.4,450.5,342.2,450.5,347.3z"/>
	<path id="XMLID_150_" class="st6" d="M387.9,368.2c-23.9,66.5,71.3,53.5,89.1,97.4c18.8,46.3-42.4,82.5-78.3,93.1"/>
	<path id="XMLID_154_" class="st6" d="M391.3,465.7c40.4-27.6,81.9-3.4,57.3,42.1c-14.4,26.6-43.5,40.2-72.9,41.9"/>
	<path id="XMLID_176_" class="st6" d="M689.3,453.6"/>
	<path id="XMLID_172_" class="st6" d="M676.6,658"/>
	<path id="XMLID_155_" class="st6" d="M727.8,420.6c3.9,2.4,10.6,5.6,19,5.6c3.8,0,8.6-0.1,12.7-3.4c1.1-0.9,4.4-3.6,4.5-7.1
		c0.2-6.3-9.5-12.4-18.3-13c-7.1-0.4-17.1,2.6-19,9.8C725.9,415.7,726.9,418.7,727.8,420.6z"/>
	<path id="XMLID_161_" class="st6" d="M714.7,443.9c9.1,5,18.1,3.6,36,0.7c12.1-1.9,18.7-3.1,25.4-8.5c1.9-1.5,11.9-9.6,12.7-21.9
		c1.1-15.9-13.9-28.9-26.1-33.9c-21.2-8.6-40.9,4.1-44.4,6.3c-6.1,4-21.1,13.6-21.2,29.6C697,428.9,706.1,439.2,714.7,443.9z"/>
	<path id="XMLID_162_" class="st6" d="M785.6,463.7c-5.3,4.1-22.7,16.9-46.7,14c-19.2-2.3-31.3-13.4-34.7-16.7
		c-15-14.7-17.4-32.4-18-38s-2-19,5.2-33.5c6.1-12.2,15-18.7,20.5-22.6c22.6-16.2,47-13.9,51.5-13.4c8.4,0.9,21.1,2.3,32.5,12
		c20,17,17.4,45.4,16.9,50.1C810.2,444.3,789.6,460.7,785.6,463.7z"/>
	<path id="XMLID_164_" class="st6" d="M795.2,477c-3.3,3.2-8.5,7.5-15.7,11c-27.6,13.2-58.5,0.4-75.7-6.7
		c-17.7-7.3-29.9-15.8-46.7-27.3c-29.1-20.1-32.6-28.5-51.3-33.3c-6-1.6-25.2-6.2-44.5,2.5c-5.8,2.6-10.2,6-14.8,9.8
		c-22.3,18.2-28.5,38.8-48,82c-4.5,10-11.2,24.5-20,42"/>
	<path id="XMLID_165_" class="st6" d="M522.5,611c15.8,5.1,47.9-66.9,69.5-59.2c12.1,4.3,10.9,30.3,20.5,31.2c10.6,0.9,21-30,22-33
		c2.5-7.7,19.4-58.9-9-92c-3.9-4.5-12.7-14.5-27.2-17.7c0,0-15.5-3.4-33.8,5.7C516.2,469.7,502,604.3,522.5,611z"/>
	<path id="XMLID_173_" class="st6" d="M564.5,524c5.7,4.2,20.2-5.7,28-15c3.9-4.6,12.1-14.3,8.4-21.8c-2.9-5.8-11.8-7.9-18.4-6.2
		c-7.5,1.9-11,8.5-14,14C563.7,503.9,558.9,519.9,564.5,524z"/>
	<path id="XMLID_174_" class="st6" d="M603.5,325.3c9.8,10.1,20.7,24.5,17.6,38.8c-2.3,10.6-11,15.1-9.3,17.9
		c3.3,5.5,39.9-2.4,64-28c12.8-13.6,18.7-28.7,21.5-38.6"/>
	<path id="XMLID_177_" class="st6" d="M506.5,384c7.6,8.2,22.6,15.4,34,10c11-5.2,13.4-19.6,14-23.3c5-29.8-21.4-65.8-37-62.9
		C500.5,310.9,486.1,361.8,506.5,384z"/>
	<path id="XMLID_178_" class="st6" d="M521.7,322.7c5.6,0.1,10.4,17.3,10.8,31.3c0.2,7-0.5,23.8-5.3,24.7c-6,1-19.7-22.8-14-43.1
		C513.3,335.1,516.9,322.6,521.7,322.7z"/>
	<path id="XMLID_179_" class="st6" d="M797.7,519.9c-39,24.1-57.4,23.2-67,16.9c-6.9-4.5-9.9-12.3-28.2-26.8
		c-7.7-6.1-13.8-10-21.2-9.2c-7.2,0.8-12.1,5.6-13.4,7.1c-4.7,5-5.7,10.8-7.1,19.8c-1.6,10.4-0.1,13.3-2.1,23.3
		c-1.1,5.2-2.5,9.3-3.5,12"/>
	<path id="XMLID_52_" class="st23" d="M473.8,307.2"/>
	<path id="XMLID_53_" class="st6" d="M680.3,544.4c-7.3-10.6-8.2-20.9-4-24.7c5-4.4,16.1,1.4,17.3,2c12.4,6.6,15.9,20.4,16.7,24"/>
	<path id="XMLID_56_" class="st6" d="M501,441.2c-7.2,1.2-14.8,8.2-13.3,16c1,5.2,5.9,10.1,10.7,10c9.1-0.1,16.7-18.2,12-24
		C507.8,440,502.2,441,501,441.2z"/>
	<path id="XMLID_137_" class="st6" d="M547.5,500c3.9-12.7,9.7-31.5,27-39c2.4-1,14.7-6.4,27.8-0.6c13.6,6,17.8,19.6,18.7,22.7
		c5.7,20.3-9.8,36.4-10.7,37.3c-3.1,3.2-5.8,4.6-19.3,10.7c-26.3,11.7-39.5,17.5-43.5,15C535.7,538.6,546.2,504.4,547.5,500z"/>
	<path id="XMLID_144_" class="st6" d="M740.3,593.2"/>
	<path id="XMLID_145_" class="st24" d="M402.5,374.7c0.5,4.3,2.9,22.9,17.4,30.7c4.3,2.3,13.5,5.8,17.4,2c5.1-4.9-3.8-16.8-9.3-40.1
		c-6.6-27.4-1.7-41.7-6-42.7C415.9,323.1,399.2,348.7,402.5,374.7z"/>
	<path id="XMLID_6_" class="st6" d="M760.5,549c-20.6-11.1-30.3-27.1-27-34c3.3-6.8,21.7-9.1,43,0"/>
	<path id="XMLID_8_" class="st6" d="M672.5,486c-0.1-4-9-9.5-14-6c-4.1,2.9-4.1,10.5-1,13C661.7,496.4,672.6,490.5,672.5,486z"/>
	<path id="XMLID_18_" class="st25" d="M627.5,395c-5,2.6-7.4,3.9-8,6c-2.1,7.3,12.8,18.5,26,23.5c8,3.1,17.4,6.5,24.3,1.6
		c8.5-6,8.2-21.5,2.7-30.1c-0.9-1.4-3.2-4.9-7.6-6.9c-2.1-1-4.8-2.2-11.4-1.1C640.8,390.2,634.9,391.1,627.5,395z"/>
	<path id="XMLID_21_" class="st6" d="M649.9,401.8c-6,0.6-11.1,5.4-9,9c1.7,2.9,7.6,4.5,12.3,3.4c5.3-1.2,8.8-5.7,6.6-9
		C658.1,402.6,653.6,401.4,649.9,401.8z"/>
	<path id="XMLID_29_" class="st6" d="M489.2,330.7c-2,3.5-17.3,31.8-4,59.3c2.2,4.5,9,18.7,24,24c22,7.8,46.3-9,58-24.7
		c12.9-17.3,13-36.5,12.7-44"/>
</g>
<path id="XMLID_5_" class="st26" d="M346.8,299.9V248c0-19.9-16.1-36-36-36l0,0c-19.9,0-36,16.1-36,36v51.8c0,33.1-26.9,60-60,60
	l0,0v152c0,13.3,10.7,24,24,24h144c13.3,0,24-10.7,24-24v-152l0,0C373.6,359.9,346.8,333,346.8,299.9z"/>
<path id="XMLID_69_" class="st27" d="M216.9,521.9c3.8,8.3,12.1,14,21.8,14h144c9.7,0,18-5.7,21.8-14H216.9z"/>
<g id="XMLID_117_">
	<path id="XMLID_104_" class="st28" d="M251.6,565.7c-18.3-25.6-6.3-74,23.3-89.3c13.8-7.1,27.2-4.9,31.1-4.3
		c37.2,6.6,69.2,55.1,56.7,84C348.5,589,275.6,599.1,251.6,565.7z"/>
	<path id="XMLID_106_" class="st28" d="M215.6,537.7c-8-22.4,10.7-56.1,35.7-72c46.7-29.8,98.2,13.2,134-16
		c29.9-24.5,18.6-74.8,25-75c9.7-0.3,58.1,115.1,0,176C353.6,610.1,230.9,580.6,215.6,537.7z"/>
	<path id="XMLID_110_" class="st28" d="M277.3,543.7c-9.2-10-14-27.4-5.7-40c6.2-9.4,17.2-11.4,20.7-12c15.9-3,41.4,3.1,46,22.7
		c3.9,16.5-9,34.7-26,39.3C299.9,557.1,286,553.2,277.3,543.7z"/>
	<path id="XMLID_111_" class="st29" d="M379,512.7c5.3-2.4,5.9-19.5-2.5-25.8c-2.9-2.2-8.3-4.1-11.9-1.6c-3.9,2.6-3.4,8.8-3.3,9.8
		C362.2,505.4,374,515,379,512.7z"/>
	<path id="XMLID_112_" class="st28" d="M211.6,414.4c7.3-2.6,17.6,2.2,21.3,9.3c8.9,17.1-20.1,48.8-29.3,45.3
		C194.2,465.5,194.9,420.4,211.6,414.4z"/>
	<path id="XMLID_113_" class="st28" d="M207.3,386.7c7,6.1,18,14.2,33,20.3c19.2,7.8,36.3,8.9,46.7,8.7c15.6-3.9,24.2-10.7,29.3-17
		c26.1-31.9,5.6-103.7-54-177"/>
	<path id="XMLID_115_" class="st28" d="M218.9,357c8,19.7,33.8,35.9,52.4,28.7c13-5,18-19.6,19.6-24.2c11-32-8.1-76.9-29.6-78.8
		C238.9,280.8,205.8,324.9,218.9,357z"/>
	<path id="XMLID_116_" class="st28" d="M403.3,264.7c-5.9-20-23.1-47.3-38.9-44.9c-18.2,2.8-23.5,43.8-25.1,48.9
		c-11.6,37.3,7.3,84.7,26,87c13.9,1.7,27-22.6,31-30C399.5,319.8,412.2,294.6,403.3,264.7z"/>
	<path id="XMLID_132_" class="st28" d="M352.4,377.3c-3,1.6-7.1,4.5-25.1,40.4c-8.7,17.3-9.6,20.3-8,23c4.8,8.2,29.6,6.4,46.6-4.9
		c20.3-13.6,33.8-43.1,24-55.5C382.8,371.2,364.3,370.9,352.4,377.3z"/>
	<path id="XMLID_136_" class="st28" d="M362.9,392.3c-11.1,7.8-21.3,22.8-17.6,27.4c4.2,5.2,27.7-1.1,32.5-15.2
		c1.9-5.7,1.2-14.1-3-16.2C371.2,386.6,366.3,389.9,362.9,392.3z"/>
	<path id="XMLID_139_" class="st28" d="M296.3,515.7c-10.9,5.8-7.5,36.6,1.3,39.3c7.7,2.4,26.9-14.8,21.3-28.7
		C315.5,517.6,302.9,512.2,296.3,515.7z"/>
	<path id="XMLID_140_" class="st28" d="M244.3,435.7c-0.5,3.3,8.9,7.9,16.7,8.7c2.7,0.3,7.4,0.7,9.3-2c1.6-2.2,0.9-5.8-0.7-8
		C264.4,427.2,245,431.2,244.3,435.7z"/>
	<path id="XMLID_141_" class="st28" d="M231.6,341.7c1,16,18.6,31.5,27.7,28c8.2-3.2,12.3-22.9,3.7-34.7c-6-8.2-18.9-13.6-26-8.7
		C230.9,330.5,231.5,340.3,231.6,341.7z"/>
	<path id="XMLID_114_" class="st28" d="M305.3,236.7c-3.7,2.5-3.3,13.9,4,20c8.2,6.8,20.6,3.3,22-1
		C333.5,249,311.3,232.6,305.3,236.7z"/>
	<path id="XMLID_50_" class="st29" d="M452.3,457.7c-14.2-5.1-40.3-8.1-53,8c-14.3,18.1-0.2,45.8,2,50c1.6,3,14.8,26.9,43,31
		c16.7,2.4,41.4-1.8,50-18C506.3,506,482.2,468.5,452.3,457.7z"/>
</g>
<circle id="XMLID_57_" class="st2" cx="389" cy="447.9" r="9"/>
<circle id="XMLID_105_" class="st2" cx="389" cy="400.3" r="9"/>
<circle id="XMLID_60_" class="st2" cx="389" cy="495.4" r="9"/>
<circle id="XMLID_64_" class="st2" cx="231.6" cy="400.3" r="9"/>
<circle id="XMLID_63_" class="st2" cx="231.6" cy="447.9" r="9"/>
<circle id="XMLID_61_" class="st2" cx="231.6" cy="495.4" r="9"/>
<circle id="XMLID_38_" class="st2" cx="310.8" cy="248.7" r="12"/>
</svg>
